<?xml version="1.0" encoding="UTF-8" standalone="no"?>
<svg width="269px" height="190px" viewBox="0 0 269 190" version="1.1" xmlns="http://www.w3.org/2000/svg" xmlns:xlink="http://www.w3.org/1999/xlink" xmlns:sketch="http://www.bohemiancoding.com/sketch/ns">
    <!-- Generator: Sketch 3.5.1 (25234) - http://www.bohemiancoding.com/sketch -->
    <title>logo + Streu Obst!</title>
    <desc>Created with Sketch.</desc>
    <defs></defs>
    <g id="Page-1" stroke="none" stroke-width="1" fill="none" fill-rule="evenodd" sketch:type="MSPage">
        <g id="Wireframe" sketch:type="MSArtboardGroup" transform="translate(-585.000000, -275.000000)">
            <g id="logo-+-Streu-Obst!" sketch:type="MSLayerGroup" transform="translate(586.000000, 275.000000)">
                <g id="logo" sketch:type="MSShapeGroup">
                    <g id="apfel" transform="translate(60.417399, 50.796292)" stroke="#404040" stroke-width="2">
                        <path d="M118.20158,55.3815718 C125.083179,68.5719624 124.588423,92.7844604 116.17758,113.473498 C110.870203,126.528371 103.448871,133.755982 97.4668278,135.156332 C83.8835412,138.408757 78.3962532,135.83392 67.3766996,130.91011 C65.1278111,129.916314 65.1278111,129.916314 65.1278111,127.612512 C65.1278111,48.9218942 64.6780334,63.1060814 65.3526999,48.6960313 C65.3976777,47.3408542 65.4876332,47.3408542 66.6120775,46.5277479 C91.7096732,28.5942373 108.081581,36.0025389 118.20158,55.3815718 L118.20158,55.3815718 Z M76.687098,95.6755049 C80.6901195,93.3265312 83.1638969,85.7827119 80.9150084,81.8526983 C80.2403418,80.6330388 78.0814089,79.1875166 77.0918979,79.458552 C75.697587,79.8651051 74.2582984,81.6268354 73.7635429,83.0723577 C73.1788319,84.6985702 73.6286096,86.6409908 73.6286096,88.4478936 C73.6286096,90.3903141 73.4936763,92.2875621 73.6735874,94.2299826 C73.8085207,96.1724032 74.932965,96.714474 76.687098,95.6755049 L76.687098,95.6755049 Z" id="XMLID_28_" fill="#0CAC6A"></path>
                        <path d="M90.180429,0.632415991 C91.3048733,0.903451416 92.7891397,2.57483653 92.924073,3.79449595 C94.9480726,17.4366123 79.7905641,33.9246007 65.5775888,33.1114944 C67.286744,27.2390602 70.1653213,23.7155997 74.9779427,19.2886877 C75.4277204,18.836962 75.7875426,18.1593735 76.0574092,17.4366123 C76.4172314,16.5783335 75.8325204,15.5845369 74.932965,15.4490192 C73.9884318,15.3135015 73.0888764,15.2231564 72.6390987,15.6297095 C69.445677,18.7014443 66.4771442,21.0052454 63.6435447,25.5676751 C63.0588337,26.4711265 62.6090559,27.5100956 61.9343894,28.8201002 C58.2012345,16.1717803 71.9644321,-3.7041508 90.180429,0.632415991 L90.180429,0.632415991 Z" id="XMLID_26_" fill="#CAA1C9"></path>
                        <path d="M80.9150084,81.8526983 C83.1638969,85.7827119 80.6901195,93.3265312 76.687098,95.6755049 C74.932965,96.714474 73.8085207,96.1724032 73.6735874,94.2299826 C73.5386541,92.3327347 73.6286096,90.3903141 73.6286096,88.4478936 C73.6286096,86.6409908 73.1788319,84.6985702 73.7635429,83.0723577 C74.3032762,81.5816628 75.697587,79.8651051 77.0918979,79.458552 C78.0814089,79.1875166 80.2403418,80.6330388 80.9150084,81.8526983 L80.9150084,81.8526983 Z" id="XMLID_25_" fill="#F2F2F2"></path>
                        <path d="M56.4920792,45.8501593 C57.6165235,46.6632656 57.706479,46.6632656 57.7514568,48.0184427 C58.4711011,62.4284928 58.0213234,48.2894782 58.0213234,126.934924 C58.0213234,129.238725 58.0213234,129.238725 55.7724349,130.232522 C44.7528812,135.111159 39.2655933,137.685996 25.6823067,134.478743 C19.7002633,133.033221 12.323909,125.80561 6.97155436,112.795909 C-1.48426641,92.1068718 -1.93404411,67.8943739 4.94755471,54.7039832 C15.067553,35.2797778 31.4394613,27.9166487 56.4920792,45.8501593 L56.4920792,45.8501593 Z M49.3406138,87.770305 C49.3406138,85.9634022 49.7903915,84.0209816 49.2056805,82.3947691 C48.6659472,80.9040743 47.2716364,79.1875166 45.8773255,78.7809634 C44.8878145,78.509928 42.7288816,79.9554503 42.054215,81.1751097 C39.8053265,85.1051233 42.2791039,92.6489427 46.2821254,94.9979163 C48.0362584,96.0368855 49.1607027,95.4948146 49.295636,93.5523941 C49.4305693,91.6099735 49.3406138,89.667553 49.3406138,87.770305 L49.3406138,87.770305 Z" id="XMLID_20_" fill="#FFCE08"></path>
                        <path d="M49.2056805,82.3947691 C49.7903915,84.0209816 49.3406138,85.9634022 49.3406138,87.770305 C49.3406138,89.7127256 49.4755471,91.6099735 49.295636,93.5523941 C49.1607027,95.4948146 48.0362584,96.0368855 46.2821254,94.9979163 C42.2791039,92.6489427 39.8053265,85.1051233 42.054215,81.1751097 C42.7288816,79.9554503 44.8878145,78.509928 45.8773255,78.7809634 C47.2716364,79.1875166 48.6659472,80.9492468 49.2056805,82.3947691 L49.2056805,82.3947691 Z" id="XMLID_17_" fill="#F15853"></path>
                        <path d="M49.3406138,87.770305 C49.3406138,85.9634022 49.7903915,84.0209816 49.2056805,82.3947691 C48.6659472,80.9040743 47.2716364,79.1875166 45.8773255,78.7809634 C44.8878145,78.509928 42.7288816,79.9554503 42.054215,81.1751097 C39.8053265,85.1051233 42.2791039,92.6489427 46.2821254,94.9979163 C48.0362584,96.0368855 49.1607027,95.4948146 49.295636,93.5523941 C49.4305693,91.6099735 49.3406138,89.667553 49.3406138,87.770305 L49.3406138,87.770305 Z" id="XMLID_38_"></path>
                        <path d="M73.6286096,88.4478936 C73.6286096,86.6409908 73.1788319,84.6985702 73.7635429,83.0723577 C74.3032762,81.5816628 75.697587,79.8651051 77.0918979,79.458552 C78.0814089,79.1875166 80.2403418,80.6330388 80.9150084,81.8526983 C83.1638969,85.7827119 80.6901195,93.3265312 76.687098,95.6755049 C74.932965,96.714474 73.8085207,96.1724032 73.6735874,94.2299826 C73.4936763,92.2875621 73.6286096,90.3451416 73.6286096,88.4478936 L73.6286096,88.4478936 Z" id="XMLID_39_"></path>
                        <path d="M116.17758,113.473498 C110.870203,126.528371 103.448871,133.755982 97.4668278,135.156332 C83.8835412,138.408757 78.3962532,135.83392 67.3766996,130.91011 C65.1278111,129.916314 65.1278111,129.916314 65.1278111,127.612512 C65.1278111,48.9218942 64.6780334,63.1060814 65.3526999,48.6960313 C65.3976777,47.3408542 65.4876332,47.3408542 66.6120775,46.5277479 C91.6646954,28.5942373 108.036604,35.9573663 118.156602,55.3363992 C125.083179,68.5719624 124.588423,92.7844604 116.17758,113.473498 L116.17758,113.473498 Z" id="XMLID_40_"></path>
                        <path d="M90.180429,1.0841417 C91.3048733,1.35517712 92.7891397,3.02656224 92.924073,4.24622165 C94.9480726,17.888338 79.7905641,34.3763264 65.5775888,33.5632201 C67.286744,27.6907859 70.1653213,24.1673254 74.9779427,19.7404134 C75.4277204,19.2886877 75.7875426,18.6110992 76.0574092,17.888338 C76.4172314,17.0300592 75.8325204,16.0362626 74.932965,15.9007449 C73.9884318,15.7652272 73.0888764,15.6748821 72.6390987,16.0814352 C69.445677,19.15317 66.4771442,21.4569711 63.6435447,26.0194008 C63.0588337,26.9228522 62.6090559,27.9618213 61.9343894,29.2718259 C58.2012345,16.623506 71.9644321,-3.2524251 90.180429,1.0841417 L90.180429,1.0841417 Z" id="XMLID_43_"></path>
                    </g>
                    <g id="birne" transform="translate(0.000000, 0.692912)">
                        <g id="kirsche" transform="translate(136.822084, 17.896501)">
                            <path d="M35.802305,148.708103 C34.4979497,159.865728 22.5338628,171.249216 13.3134199,169.487486 C4.09297708,167.725755 -1.66417749,157.96848 0.764622091,143.784293 C3.0135106,130.639075 7.78115422,127.74803 17.1815082,127.74803 C27.2565287,127.74803 37.4664825,134.25288 35.802305,148.708103 L35.802305,148.708103 Z" id="XMLID_52_" stroke="#333333" stroke-width="2" fill="#FFFFFF"></path>
                            <path d="M96.2974057,142.203253 C100.660249,152.321909 92.4293175,169.848866 81.8145638,167.770928 C72.0993654,165.87368 62.8339448,159.233312 60.8999007,149.611554 C58.875901,139.492899 63.5086114,127.160787 74.6630983,126.483198 C84.6481633,125.895955 91.0799844,130.232522 96.2974057,142.203253 L96.2974057,142.203253 Z" id="XMLID_55_" stroke="#333333" stroke-width="2" fill="#CAA1C9"></path>
                            <path d="M17.1815082,125.941127 C17.1365304,125.308711 17.1815082,125.941127 17.1815082,125.941127 C15.8771528,111.169697 27.0316398,46.2115399 32.8787499,46.5277479" id="XMLID_145_" stroke="#333333" stroke-width="2"></path>
                            <path d="M66.2072776,4.51105363 C68.2312772,18.15317 53.0737687,34.6411583 38.8607933,33.8280521 C40.5699486,27.9556179 43.4485259,24.4321573 48.2611473,20.0052454 C48.710925,19.5535197 49.0707472,18.8759311 49.3406138,18.15317 C49.7004359,17.2948912 49.1157249,16.3010946 48.2161695,16.1655769 C47.2716364,16.0300592 46.372081,15.939714 45.9223033,16.3462672 C42.7288816,19.418002 39.7603487,21.7218031 36.9267492,26.2842328 C36.3420382,27.1876842 35.8922605,28.2266533 35.217594,29.5366578 C31.4394613,16.9335106 45.2026589,-2.94242054 63.4636336,1.34897368 C64.5880778,1.62000911 66.0723442,3.29139422 66.2072776,4.51105363 Z" id="XMLID_46_" fill="#FFCE08"></path>
                            <path d="M82.354297,138.137721 C83.0739413,139.763934 84.2433634,141.390147 84.3782967,143.106704 C84.4682522,144.687744 83.8835412,146.856028 82.7590969,147.759479 C81.9494971,148.437068 79.430742,147.940169 78.3062977,147.127063 C74.7080761,144.416709 73.9884318,136.511509 76.7320758,132.762186 C77.9464755,131.0908 79.1608753,131.135973 80.1054085,132.897703 C80.9150084,134.569088 81.5896749,136.375991 82.354297,138.137721 L82.354297,138.137721 Z" id="XMLID_32_" fill="#F2F2F2"></path>
                            <path d="M19.7902188,135.562885 C22.0840851,139.628416 20.4199076,147.398098 16.5068416,149.656727 C15.2924418,150.334316 12.7287089,150.515006 12.0090646,149.792245 C10.9745759,148.753276 10.6597315,146.494647 10.9295981,144.95878 C11.2444425,143.287395 12.5937756,141.841872 13.493331,140.260832 C14.4378642,138.589447 15.3374196,136.872889 16.4168861,135.291849 C17.5863081,133.665637 18.8007079,133.755982 19.7902188,135.562885 L19.7902188,135.562885 Z" id="XMLID_31_" fill="#0CAC6A"></path>
                            <path d="M74.6181206,125.579747 C73.1338541,123.366291 45.4725255,55.0653638 35.9822161,46.5277479 C35.8922605,45.8501593 32.8787499,46.5277479 32.8787499,46.5277479" id="XMLID_149_" stroke="#333333" stroke-width="2"></path>
                            <path d="M63.4636336,0.993796557 C64.5880778,1.26483198 66.0723442,2.9362171 66.2072776,4.15587651 C68.2312772,17.7979929 53.0737687,34.2859812 38.8607933,33.4728749 C40.5699486,27.6004407 43.4485259,24.0769802 48.2611473,19.6500683 C48.710925,19.1983426 49.0707472,18.520754 49.3406138,17.7979929 C49.7004359,16.939714 49.1157249,15.9459175 48.2161695,15.8103998 C47.2716364,15.6748821 46.372081,15.5845369 45.9223033,15.9910901 C42.7288816,19.0628249 39.7603487,21.366626 36.9267492,25.9290556 C36.3420382,26.832507 35.8922605,27.8714762 35.217594,29.1814807 C31.4394613,16.5783335 45.2026589,-3.29759767 63.4636336,0.993796557 L63.4636336,0.993796557 Z" id="XMLID_47_" stroke="#333333" stroke-width="2"></path>
                            <path d="M82.354297,138.137721 C83.0739413,139.763934 84.2433634,141.390147 84.3782967,143.106704 C84.4682522,144.687744 83.8835412,146.856028 82.7590969,147.759479 C81.9494971,148.437068 79.430742,147.940169 78.3062977,147.127063 C74.7080761,144.416709 73.9884318,136.511509 76.7320758,132.762186 C77.9464755,131.0908 79.1608753,131.135973 80.1054085,132.897703 C80.9150084,134.569088 81.5896749,136.375991 82.354297,138.137721 L82.354297,138.137721 Z" id="XMLID_37_" stroke="#333333" stroke-width="2" fill="#FFCE08"></path>
                            <path d="M13.5383088,140.260832 C12.6387534,141.7967 11.2894203,143.287395 10.9745759,144.95878 C10.7047093,146.494647 11.0195537,148.753276 12.0540424,149.792245 C12.7736867,150.560178 15.3823974,150.379488 16.5518194,149.656727 C20.4648854,147.398098 22.0840851,139.628416 19.8351966,135.562885 C18.8456857,133.755982 17.5863081,133.665637 16.5068416,135.291849 C15.3823974,136.872889 14.482842,138.589447 13.5383088,140.260832 L13.5383088,140.260832 Z" id="XMLID_35_" stroke="#333333" stroke-width="2"></path>
                        </g>
                        <g id="pflaume" transform="translate(186.031604, 52.495754)" stroke="#333333" stroke-width="2">
                            <path d="M71.3347433,3.88484109 C73.3137652,17.255922 58.4261233,33.4277024 44.4830146,32.6145961 C46.1471921,26.832507 48.9807916,23.3993917 53.7034575,19.0628249 C54.1532352,18.6110992 54.4680796,17.9786832 54.782924,17.255922 C55.1427461,16.3976432 54.5580351,15.4490192 53.6584797,15.3135015 C52.7139465,15.1779838 51.8593689,15.0876386 51.4095912,15.4941918 C48.2611473,18.520754 45.38257,20.7793826 42.5939483,25.2514671 C42.054215,26.1549185 41.6044373,27.148715 40.9297708,28.4587196 C37.2415936,16.0814352 50.6899469,-3.43311538 68.5910994,0.813106274 C69.7155436,1.03896913 71.1548323,2.71035425 71.3347433,3.88484109 L71.3347433,3.88484109 Z" id="XMLID_6_" fill="#0ABA70"></path>
                            <path d="M41.0197263,133.936672 C24.4229292,133.936672 0.26986662,115.686954 0.26986662,87.0475439 C0.26986662,57.2336472 17.991108,46.1211948 29.145595,46.1211948 C34.4529719,46.1211948 36.3420382,46.6632656 37.7363491,47.0698188 C37.8263046,47.1149913 53.8383908,63.2867717 56.8069236,81.1299371 C58.6060344,91.9261815 58.0213234,103.896913 58.4261233,105.748988 C58.0663012,106.923475 58.7409677,108.188307 59.9103897,108.549688 C72.2342987,87.6347873 55.367635,52.4905272 47.9463029,47.1149913 C44.5279924,44.6304999 50.3751025,46.1663673 52.8938576,46.1211948 C65.0378555,45.9405045 80.3302974,57.0077843 80.3302974,87.0475439 C80.2853196,116.093507 57.4366124,133.936672 41.0197263,133.936672 L41.0197263,133.936672 Z" id="Shape" fill="#F15853"></path>
                        </g>
                        <path d="M86.7171407,3.97518623 C88.6961626,17.3462672 73.8085207,33.5180475 59.865412,32.7049412 C61.5295895,26.9228522 64.363189,23.4897368 69.0858548,19.15317 C69.5356325,18.7014443 69.8504769,18.0690283 70.1653213,17.3462672 C70.5251435,16.4879883 69.9404325,15.5393643 69.0408771,15.4038466 C68.0963439,15.2683289 67.2417663,15.1779838 66.7919886,15.5845369 C63.6435447,18.6110992 60.7649674,20.8697277 57.9763456,25.3418122 C57.4366124,26.2452636 56.9868347,27.2390602 56.3121681,28.5490647 C52.623991,16.1717803 66.0723442,-3.34277024 83.9734967,0.903451416 C85.097941,1.12931427 86.5372296,2.80069939 86.7171407,3.97518623 L86.7171407,3.97518623 Z" id="XMLID_11_" fill="#0CAC6A"></path>
                        <path d="M111.814736,136.737372 C117.661847,161.537113 101.155005,192.525497 64.2282557,185.343058 C61.1247895,184.755814 59.7754564,183.716845 59.7754564,180.10304 C59.9103897,135.924265 59.9103897,91.7454913 59.9103897,47.5215445 L59.9103897,43.7722211 C66.8819441,42.417044 73.5386541,45.2629159 76.8220313,51.9484564 C78.8010532,55.9688152 79.8355419,60.5764174 80.8700306,65.0033294 C85.0079854,82.8013222 90.3603401,99.9668991 101.919627,114.602812 C107.002115,121.017317 109.92567,128.696654 111.814736,136.737372 L111.814736,136.737372 Z" id="XMLID_10_" fill="#F15853"></path>
                        <path d="M53.2986575,180.28373 C53.2986575,183.942708 51.9943022,184.936505 48.8458583,185.523748 C11.9191091,192.706187 -4.58773255,161.717803 1.25937756,136.918062 C3.14844391,128.877344 6.07199896,121.198007 11.154487,114.783502 C22.7137739,100.102417 28.0661285,82.9820125 32.2040834,65.1840196 C33.2385721,60.7571077 34.228083,56.1495055 36.2520827,52.1291467 C39.5804377,45.4436062 46.1921699,42.5977342 53.1637242,43.9529114 L53.1637242,47.7022347 C53.1637242,91.881009 53.1637242,136.059783 53.2986575,180.28373 L53.2986575,180.28373 Z" id="XMLID_8_" fill="#FF5853"></path>
                        <path d="M48.8458583,185.523748 C11.9191091,192.706187 -4.58773255,161.717803 1.25937756,136.918062 C3.14844391,128.877344 6.07199896,121.198007 11.154487,114.783502 C22.7137739,100.102417 28.0661285,82.9820125 32.2040834,65.1840196 C33.2385721,60.7571077 34.228083,56.1495055 36.2520827,52.1291467 C39.5804377,45.4436062 46.1921699,42.5977342 53.1637242,43.9529114 L53.1637242,47.7022347 C53.1637242,91.881009 53.1637242,136.059783 53.2986575,180.28373 C53.2986575,183.897536 51.9943022,184.936505 48.8458583,185.523748 L48.8458583,185.523748 Z" id="XMLID_27_" stroke="#333333" stroke-width="2"></path>
                        <path d="M83.9734967,0.858278845 C85.097941,1.12931427 86.4922519,2.75552682 86.6721629,3.93001366 C88.6511848,17.3010946 73.7635429,33.4728749 59.8204342,32.6597687 C61.4846117,26.8776796 64.3182112,23.4445642 69.0408771,19.1079974 C69.4906548,18.6562717 69.8054992,18.0238557 70.1203436,17.3010946 C70.4801657,16.4428158 69.8954547,15.4941918 68.9958993,15.3586741 C68.0513661,15.2231564 67.1967885,15.1328112 66.7470108,15.5393643 C63.5985669,18.5659266 60.7199896,20.8245551 57.9313679,25.2966396 C57.3916346,26.2000911 56.9418569,27.1938876 56.2671904,28.5038922 C52.623991,16.1266078 66.0723442,-3.38794281 83.9734967,0.858278845 L83.9734967,0.858278845 Z" id="XMLID_14_" stroke="#333333" stroke-width="2"></path>
                        <path d="M59.8204342,180.10304 C59.8204342,183.762018 61.1697673,184.755814 64.2732334,185.343058 C101.199983,192.525497 117.706824,161.537113 111.859714,136.737372 C109.970648,128.696654 107.047093,121.017317 101.964605,114.602812 C90.4053179,99.9217266 85.0529632,82.8013222 80.9150084,65.0033294 C79.8805197,60.5764174 78.8910087,55.9688152 76.8670091,51.9484564 C73.5386541,45.2629159 66.9269219,42.417044 59.9553675,43.7722211 L59.9553675,47.5215445 C59.9553675,91.7003187 59.9553675,135.924265 59.8204342,180.10304 L59.8204342,180.10304 Z" id="XMLID_2_" stroke="#333333" stroke-width="2" fill="#FFFFFF"></path>
                        <path d="M76.5521647,107.465546 C78.9359865,111.75694 76.2822981,119.978348 72.0543877,122.598357 C70.2102991,123.727671 68.9958993,123.140428 68.860966,121.017317 C68.6810549,118.939379 68.8159882,116.816268 68.8159882,114.693157 C68.8159882,112.750737 68.3662105,110.582453 68.9509215,108.820723 C69.4906548,107.19451 71.019899,105.297262 72.5041654,104.845537 C73.5386541,104.529329 75.8325204,106.155541 76.5521647,107.465546 L76.5521647,107.465546 Z" id="XMLID_1_" fill="#0CAC6A"></path>
                        <path d="M68.8159882,114.647985 C68.8159882,112.705564 68.3662105,110.537281 68.9509215,108.77555 C69.4906548,107.149338 71.019899,105.25209 72.5041654,104.800364 C73.5836318,104.484156 75.8325204,106.110369 76.5521647,107.420373 C78.9359865,111.711768 76.2822981,119.933175 72.0543877,122.553185 C70.2102991,123.682499 68.9958993,123.095255 68.860966,120.972145 C68.6810549,118.894206 68.8159882,116.771095 68.8159882,114.647985 L68.8159882,114.647985 Z" id="XMLID_12_" stroke="#333333" stroke-width="2"></path>
                        <path d="M43.754861,109.091758 C44.3845498,110.853489 43.8897943,112.9766 43.8897943,114.91902 C43.8897943,116.861441 43.9797498,118.849034 43.8897943,120.791454 C43.754861,123.185601 42.4954834,123.772844 40.5164615,122.508012 C36.3335289,119.797658 33.8147738,112.163493 36.0186845,107.826926 C36.7383288,106.426577 39.1671284,104.529329 40.1566394,104.890709 C41.7308613,105.342435 43.17015,107.375201 43.754861,109.091758 L43.754861,109.091758 Z" id="XMLID_4_" fill="#FFCE08"></path>
                        <path d="M43.9347721,114.91902 C43.9347721,116.861441 44.0247276,118.849034 43.9347721,120.791454 C43.7998387,123.185601 42.5404612,123.772844 40.5614393,122.508012 C36.3785067,119.797658 33.8597516,112.163493 36.0636623,107.826926 C36.7833066,106.426577 39.2121062,104.529329 40.2016171,104.890709 C41.7308613,105.387608 43.2151277,107.420373 43.7998387,109.136931 C44.3845498,110.853489 43.8897943,112.9766 43.9347721,114.91902 L43.9347721,114.91902 Z" id="XMLID_13_" stroke="#333333" stroke-width="2"></path>
                    </g>
                </g>
            </g>
        </g>
    </g>
</svg>