<?xml version="1.0" encoding="UTF-8" standalone="no"?>
<svg width="65px" height="65px" viewBox="0 0 65 65" version="1.1" xmlns="http://www.w3.org/2000/svg" xmlns:xlink="http://www.w3.org/1999/xlink" xmlns:sketch="http://www.bohemiancoding.com/sketch/ns">
    <!-- Generator: Sketch 3.5.1 (25234) - http://www.bohemiancoding.com/sketch -->
    <title>Baumprofil</title>
    <desc>Created with Sketch.</desc>
    <defs></defs>
    <g id="Page-1" stroke="none" stroke-width="1" fill="none" fill-rule="evenodd" sketch:type="MSPage">
        <g id="Wireframe" sketch:type="MSArtboardGroup" transform="translate(-565.000000, -1701.000000)">
            <g id="Baumprofil" sketch:type="MSLayerGroup" transform="translate(566.000000, 1702.000000)">
                <g id="Group-9" sketch:type="MSShapeGroup">
                    <path d="M14.952,27.328 C14.952,18.242 22.337,10.857 31.423,10.857 C40.516,10.857 47.908,18.242 47.908,27.328 C47.908,35.742 41.573,42.7 33.425,43.68 L33.425,43.596 C41.531,42.623 47.824,35.714 47.824,27.356 C47.824,18.333 40.488,10.997 31.465,10.997 C22.442,10.997 15.106,18.333 15.106,27.356 C15.106,35.693 21.371,42.588 29.442,43.589 L29.442,43.68 C21.287,42.7 14.952,35.742 14.952,27.328" id="Fill-1" fill="#0CAC6A"></path>
                    <path d="M29.876,59.78 L29.876,52.738 C28.539,53.333 27.09,53.655 25.606,53.655 C23.513,53.655 21.476,53.025 19.754,51.863 C18.032,53.025 15.995,53.655 13.895,53.655 C13.846,53.655 13.797,53.648 13.748,53.648 C18.214,57.225 23.793,59.479 29.876,59.78 L29.876,59.78 Z M48.832,53.648 C46.809,53.606 44.842,52.99 43.176,51.863 C41.454,53.025 39.417,53.655 37.324,53.655 C35.84,53.655 34.391,53.333 33.061,52.738 L33.061,59.759 C39.004,59.381 44.45,57.155 48.832,53.648 L48.832,53.648 Z M62.573,31.717 C62.573,38.99 60.074,45.682 55.895,51.002 L55.944,51.051 C55.867,51.121 55.79,51.177 55.713,51.24 C49.973,58.401 41.16,63 31.29,63 C14.035,63 0,48.965 0,31.717 C0,14.462 14.035,0.427 31.29,0.427 C48.538,0.427 62.573,14.462 62.573,31.717 L62.573,31.717 Z M29.442,40.866 L19.712,31.136 L22.533,28.329 L29.442,35.238 L29.442,21.168 L33.425,21.168 L33.425,28.217 L37.835,23.8 L40.656,26.614 L33.425,33.852 L33.425,43.596 C33.306,43.61 33.18,43.624 33.054,43.638 L33.054,49.091 C34.293,49.987 35.784,50.47 37.324,50.47 C39.088,50.47 40.796,49.826 42.126,48.657 L43.176,47.74 L44.226,48.657 C45.556,49.826 47.264,50.47 49.035,50.47 C50.631,50.47 52.171,49.945 53.431,48.986 C57.162,44.219 59.395,38.227 59.395,31.717 C59.395,16.219 46.788,3.612 31.29,3.612 C15.792,3.612 3.185,16.219 3.185,31.717 C3.185,38.136 5.348,44.051 8.981,48.783 L9.086,48.657 C10.416,49.826 12.124,50.47 13.895,50.47 C15.666,50.47 17.367,49.826 18.704,48.657 L19.754,47.74 L20.804,48.657 C22.134,49.826 23.842,50.47 25.606,50.47 C27.146,50.47 28.637,49.987 29.876,49.091 L29.876,43.638 C29.729,43.624 29.582,43.61 29.442,43.589 L29.442,40.866 Z" id="Fill-3" fill="#F15853"></path>
                    <path d="M31.423,10.857 C22.337,10.857 14.952,18.242 14.952,27.328 C14.952,35.742 21.287,42.7 29.442,43.68 L29.442,43.589 C29.582,43.61 29.729,43.624 29.876,43.638 L29.876,49.091 C28.637,49.987 27.146,50.47 25.606,50.47 C23.842,50.47 22.134,49.826 20.804,48.657 L19.754,47.74 L18.704,48.657 C17.367,49.826 15.666,50.47 13.895,50.47 C12.124,50.47 10.416,49.826 9.086,48.657 L8.981,48.783 C5.348,44.051 3.185,38.136 3.185,31.717 C3.185,16.219 15.792,3.612 31.29,3.612 C46.788,3.612 59.395,16.219 59.395,31.717 C59.395,38.227 57.162,44.219 53.431,48.986 C52.171,49.945 50.631,50.47 49.035,50.47 C47.264,50.47 45.556,49.826 44.226,48.657 L43.176,47.74 L42.126,48.657 C40.796,49.826 39.088,50.47 37.324,50.47 C35.784,50.47 34.293,49.987 33.054,49.091 L33.054,43.638 C33.18,43.624 33.306,43.61 33.425,43.596 L33.425,43.68 C41.573,42.7 47.908,35.742 47.908,27.328 C47.908,18.242 40.516,10.857 31.423,10.857" id="Fill-5" fill="#03BAE1"></path>
                    <path d="M29.442,43.589 C21.371,42.588 15.106,35.693 15.106,27.356 C15.106,18.333 22.442,10.997 31.465,10.997 C40.488,10.997 47.824,18.333 47.824,27.356 C47.824,35.714 41.531,42.623 33.425,43.596 L33.425,33.852 L40.656,26.614 L37.835,23.8 L33.425,28.217 L33.425,21.168 L29.442,21.168 L29.442,35.238 L22.533,28.329 L19.712,31.136 L29.442,40.866 L29.442,43.589 Z" id="Fill-7" fill="#0CAC6A"></path>
                </g>
                <path d="M55.895,51.002 C60.074,45.682 62.573,38.99 62.573,31.717 C62.573,14.462 48.538,0.427 31.29,0.427 C14.035,0.427 0,14.462 0,31.717 C0,48.965 14.035,63 31.29,63 C41.16,63 49.973,58.401 55.713,51.24 C55.79,51.177 55.867,51.121 55.944,51.051 L55.895,51.002 L55.895,51.002 Z" id="Stroke-10" stroke="#000000" stroke-width="2" stroke-linejoin="round" sketch:type="MSShapeGroup"></path>
            </g>
        </g>
    </g>
</svg>