<?xml version="1.0" encoding="UTF-8" standalone="no"?>
<svg width="76px" height="82px" viewBox="0 0 76 82" version="1.1" xmlns="http://www.w3.org/2000/svg" xmlns:xlink="http://www.w3.org/1999/xlink" xmlns:sketch="http://www.bohemiancoding.com/sketch/ns">
    <!-- Generator: Sketch 3.4.4 (17249) - http://www.bohemiancoding.com/sketch -->
    <title>Page 1</title>
    <desc>Created with Sketch.</desc>
    <defs>
        <path id="path-1" d="M32.15,2.412 L27.062,3.275 L27.009,5.06 L26.974,5.238 L26.898,5.428 L26.818,5.558 L26.721,5.676 L26.601,5.781 L26.349,5.922 L25.661,6.183 L25.333,6.306 L24.628,6.574 L24.051,6.792 L23.564,6.977 L23.393,8.022 L14.117,9.616 L14.117,21.468 L13.321,21.771 L12.969,21.904 L12.909,22.498 L12.909,22.961 L12.909,24.07 L12.887,24.882 L12.844,25.144 L12.579,25.581 L12.219,25.827 L11.218,26.207 L10.604,26.354 L9.429,26.886 L9.372,27.597 L9.372,28.139 L9.372,28.818 L9.341,29.881 L9.274,30.209 L8.946,30.666 L8.674,30.82 L8.036,31.064 L4.975,32.151 L4.996,32.828 L5.037,33.516 L5.037,34.152 L4.86,35.329 L4.437,35.95 L3.602,41.395 L0.476,63.281 L25.897,66 L49.354,65.048 L58.116,56.324 L57.028,0.611 L32.15,2.412 Z"></path>
        <path id="path-3" d="M32.15,2.412 L27.062,3.275 L27.009,5.06 L26.974,5.238 L26.898,5.428 L26.818,5.558 L26.721,5.676 L26.601,5.781 L26.349,5.922 L25.661,6.183 L25.333,6.306 L24.628,6.574 L24.051,6.792 L23.564,6.977 L23.393,8.022 L14.117,9.616 L14.117,21.468 L13.321,21.771 L12.969,21.904 L12.909,22.498 L12.909,22.961 L12.909,24.07 L12.887,24.882 L12.844,25.144 L12.579,25.581 L12.219,25.827 L11.218,26.207 L10.604,26.354 L9.429,26.886 L9.372,27.597 L9.372,28.139 L9.372,28.818 L9.341,29.881 L9.274,30.209 L8.946,30.666 L8.674,30.82 L8.036,31.064 L4.975,32.151 L4.996,32.828 L5.037,33.516 L5.037,34.152 L4.86,35.329 L4.437,35.95 L3.602,41.395 L0.476,63.281 L25.897,66 L49.354,65.048 L58.116,56.324 L57.028,0.611"></path>
        <path id="path-5" d="M32.15,2.412 L27.062,3.275 L27.009,5.06 L26.974,5.238 L26.898,5.428 L26.818,5.558 L26.721,5.676 L26.601,5.781 L26.349,5.922 L25.661,6.183 L25.333,6.306 L24.628,6.574 L24.051,6.792 L23.564,6.977 L23.393,8.022 L14.117,9.616 L14.117,21.468 L13.321,21.771 L12.969,21.904 L12.909,22.498 L12.909,22.961 L12.909,24.07 L12.887,24.882 L12.844,25.144 L12.579,25.581 L12.219,25.827 L11.218,26.207 L10.604,26.354 L9.429,26.886 L9.372,27.597 L9.372,28.139 L9.372,28.818 L9.341,29.881 L9.274,30.209 L8.946,30.666 L8.674,30.82 L8.036,31.064 L4.975,32.151 L4.996,32.828 L5.037,33.516 L5.037,34.152 L4.86,35.329 L4.437,35.95 L3.602,41.395 L0.476,63.281 L25.897,66 L49.354,65.048 L58.116,56.324 L57.028,0.611"></path>
        <path id="path-7" d="M32.15,2.412 L27.062,3.275 L27.009,5.06 L26.974,5.238 L26.898,5.428 L26.818,5.558 L26.721,5.676 L26.601,5.781 L26.349,5.922 L25.661,6.183 L25.333,6.306 L24.628,6.574 L24.051,6.792 L23.564,6.977 L23.393,8.022 L14.117,9.616 L14.117,21.468 L13.321,21.771 L12.969,21.904 L12.909,22.498 L12.909,22.961 L12.909,24.07 L12.887,24.882 L12.844,25.144 L12.579,25.581 L12.219,25.827 L11.218,26.207 L10.604,26.354 L9.429,26.886 L9.372,27.597 L9.372,28.139 L9.372,28.818 L9.341,29.881 L9.274,30.209 L8.946,30.666 L8.674,30.82 L8.036,31.064 L4.975,32.151 L4.996,32.828 L5.037,33.516 L5.037,34.152 L4.86,35.329 L4.437,35.95 L3.602,41.395 L0.476,63.281 L25.897,66 L49.354,65.048 L58.116,56.324 L57.028,0.611"></path>
        <path id="path-9" d="M32.15,2.412 L27.062,3.275 L27.009,5.06 L26.974,5.238 L26.898,5.428 L26.818,5.558 L26.721,5.676 L26.601,5.781 L26.349,5.922 L25.661,6.183 L25.333,6.306 L24.628,6.574 L24.051,6.792 L23.564,6.977 L23.393,8.022 L14.117,9.616 L14.117,21.468 L13.321,21.771 L12.969,21.904 L12.909,22.498 L12.909,22.961 L12.909,24.07 L12.887,24.882 L12.844,25.144 L12.579,25.581 L12.219,25.827 L11.218,26.207 L10.604,26.354 L9.429,26.886 L9.372,27.597 L9.372,28.139 L9.372,28.818 L9.341,29.881 L9.274,30.209 L8.946,30.666 L8.674,30.82 L8.036,31.064 L4.975,32.151 L4.996,32.828 L5.037,33.516 L5.037,34.152 L4.86,35.329 L4.437,35.95 L3.602,41.395 L0.476,63.281 L25.897,66 L49.354,65.048 L58.116,56.324 L57.028,0.611"></path>
        <path id="path-11" d="M32.15,2.412 L27.062,3.275 L27.009,5.06 L26.974,5.238 L26.898,5.428 L26.818,5.558 L26.721,5.676 L26.601,5.781 L26.349,5.922 L25.661,6.183 L25.333,6.306 L24.628,6.574 L24.051,6.792 L23.564,6.977 L23.393,8.022 L14.117,9.616 L14.117,21.468 L13.321,21.771 L12.969,21.904 L12.909,22.498 L12.909,22.961 L12.909,24.07 L12.887,24.882 L12.844,25.144 L12.579,25.581 L12.219,25.827 L11.218,26.207 L10.604,26.354 L9.429,26.886 L9.372,27.597 L9.372,28.139 L9.372,28.818 L9.341,29.881 L9.274,30.209 L8.946,30.666 L8.674,30.82 L8.036,31.064 L4.975,32.151 L4.996,32.828 L5.037,33.516 L5.037,34.152 L4.86,35.329 L4.437,35.95 L3.602,41.395 L0.476,63.281 L25.897,66 L49.354,65.048 L58.116,56.324 L57.028,0.611"></path>
        <path id="path-13" d="M32.15,2.412 L27.062,3.275 L27.009,5.06 L26.974,5.238 L26.898,5.428 L26.818,5.558 L26.721,5.676 L26.601,5.781 L26.349,5.922 L25.661,6.183 L25.333,6.306 L24.628,6.574 L24.051,6.792 L23.564,6.977 L23.393,8.022 L14.117,9.616 L14.117,21.468 L13.321,21.771 L12.969,21.904 L12.909,22.498 L12.909,22.961 L12.909,24.07 L12.887,24.882 L12.844,25.144 L12.579,25.581 L12.219,25.827 L11.218,26.207 L10.604,26.354 L9.429,26.886 L9.372,27.597 L9.372,28.139 L9.372,28.818 L9.341,29.881 L9.274,30.209 L8.946,30.666 L8.674,30.82 L8.036,31.064 L4.975,32.151 L4.996,32.828 L5.037,33.516 L5.037,34.152 L4.86,35.329 L4.437,35.95 L3.602,41.395 L0.476,63.281 L25.897,66 L49.354,65.048 L58.116,56.324 L57.028,0.611"></path>
        <path id="path-15" d="M32.15,2.412 L27.062,3.275 L27.009,5.06 L26.974,5.238 L26.898,5.428 L26.818,5.558 L26.721,5.676 L26.601,5.781 L26.349,5.922 L25.661,6.183 L25.333,6.306 L24.628,6.574 L24.051,6.792 L23.564,6.977 L23.393,8.022 L14.117,9.616 L14.117,21.468 L13.321,21.771 L12.969,21.904 L12.909,22.498 L12.909,22.961 L12.909,24.07 L12.887,24.882 L12.844,25.144 L12.579,25.581 L12.219,25.827 L11.218,26.207 L10.604,26.354 L9.429,26.886 L9.372,27.597 L9.372,28.139 L9.372,28.818 L9.341,29.881 L9.274,30.209 L8.946,30.666 L8.674,30.82 L8.036,31.064 L4.975,32.151 L4.996,32.828 L5.037,33.516 L5.037,34.152 L4.86,35.329 L4.437,35.95 L3.602,41.395 L0.476,63.281 L25.897,66 L49.354,65.048 L58.116,56.324 L57.028,0.611"></path>
        <path id="path-17" d="M32.15,2.412 L27.062,3.275 L27.009,5.06 L26.974,5.238 L26.898,5.428 L26.818,5.558 L26.721,5.676 L26.601,5.781 L26.349,5.922 L25.661,6.183 L25.333,6.306 L24.628,6.574 L24.051,6.792 L23.564,6.977 L23.393,8.022 L14.117,9.616 L14.117,21.468 L13.321,21.771 L12.969,21.904 L12.909,22.498 L12.909,22.961 L12.909,24.07 L12.887,24.882 L12.844,25.144 L12.579,25.581 L12.219,25.827 L11.218,26.207 L10.604,26.354 L9.429,26.886 L9.372,27.597 L9.372,28.139 L9.372,28.818 L9.341,29.881 L9.274,30.209 L8.946,30.666 L8.674,30.82 L8.036,31.064 L4.975,32.151 L4.996,32.828 L5.037,33.516 L5.037,34.152 L4.86,35.329 L4.437,35.95 L3.602,41.395 L0.476,63.281 L25.897,66 L49.354,65.048 L58.116,56.324 L57.028,0.611"></path>
        <path id="path-19" d="M32.15,2.412 L27.062,3.275 L27.009,5.06 L26.974,5.238 L26.898,5.428 L26.818,5.558 L26.721,5.676 L26.601,5.781 L26.349,5.922 L25.661,6.183 L25.333,6.306 L24.628,6.574 L24.051,6.792 L23.564,6.977 L23.393,8.022 L14.117,9.616 L14.117,21.468 L13.321,21.771 L12.969,21.904 L12.909,22.498 L12.909,22.961 L12.909,24.07 L12.887,24.882 L12.844,25.144 L12.579,25.581 L12.219,25.827 L11.218,26.207 L10.604,26.354 L9.429,26.886 L9.372,27.597 L9.372,28.139 L9.372,28.818 L9.341,29.881 L9.274,30.209 L8.946,30.666 L8.674,30.82 L8.036,31.064 L4.975,32.151 L4.996,32.828 L5.037,33.516 L5.037,34.152 L4.86,35.329 L4.437,35.95 L3.602,41.395 L0.476,63.281 L25.897,66 L49.354,65.048 L58.116,56.324 L57.028,0.611 L32.15,2.412 Z"></path>
        <path id="path-21" d="M32.15,2.412 L27.062,3.275 L27.009,5.06 L26.974,5.238 L26.898,5.428 L26.818,5.558 L26.721,5.676 L26.601,5.781 L26.349,5.922 L25.661,6.183 L25.333,6.306 L24.628,6.574 L24.051,6.792 L23.564,6.977 L23.393,8.022 L14.117,9.616 L14.117,21.468 L13.321,21.771 L12.969,21.904 L12.909,22.498 L12.909,22.961 L12.909,24.07 L12.887,24.882 L12.844,25.144 L12.579,25.581 L12.219,25.827 L11.218,26.207 L10.604,26.354 L9.429,26.886 L9.372,27.597 L9.372,28.139 L9.372,28.818 L9.341,29.881 L9.274,30.209 L8.946,30.666 L8.674,30.82 L8.036,31.064 L4.975,32.151 L4.996,32.828 L5.037,33.516 L5.037,34.152 L4.86,35.329 L4.437,35.95 L3.602,41.395 L0.476,63.281 L25.897,66 L49.354,65.048 L58.116,56.324 L57.028,0.611 L32.15,2.412 Z"></path>
        <path id="path-23" d="M32.15,2.412 L27.062,3.275 L27.009,5.06 L26.974,5.238 L26.898,5.428 L26.818,5.558 L26.721,5.676 L26.601,5.781 L26.349,5.922 L25.661,6.183 L25.333,6.306 L24.628,6.574 L24.051,6.792 L23.564,6.977 L23.393,8.022 L14.117,9.616 L14.117,21.468 L13.321,21.771 L12.969,21.904 L12.909,22.498 L12.909,22.961 L12.909,24.07 L12.887,24.882 L12.844,25.144 L12.579,25.581 L12.219,25.827 L11.218,26.207 L10.604,26.354 L9.429,26.886 L9.372,27.597 L9.372,28.139 L9.372,28.818 L9.341,29.881 L9.274,30.209 L8.946,30.666 L8.674,30.82 L8.036,31.064 L4.975,32.151 L4.996,32.828 L5.037,33.516 L5.037,34.152 L4.86,35.329 L4.437,35.95 L3.602,41.395 L0.476,63.281 L25.897,66 L49.354,65.048 L58.116,56.324 L57.028,0.611"></path>
        <path id="path-25" d="M32.15,2.412 L27.062,3.275 L27.009,5.06 L26.974,5.238 L26.898,5.428 L26.818,5.558 L26.721,5.676 L26.601,5.781 L26.349,5.922 L25.661,6.183 L25.333,6.306 L24.628,6.574 L24.051,6.792 L23.564,6.977 L23.393,8.022 L14.117,9.616 L14.117,21.468 L13.321,21.771 L12.969,21.904 L12.909,22.498 L12.909,22.961 L12.909,24.07 L12.887,24.882 L12.844,25.144 L12.579,25.581 L12.219,25.827 L11.218,26.207 L10.604,26.354 L9.429,26.886 L9.372,27.597 L9.372,28.139 L9.372,28.818 L9.341,29.881 L9.274,30.209 L8.946,30.666 L8.674,30.82 L8.036,31.064 L4.975,32.151 L4.996,32.828 L5.037,33.516 L5.037,34.152 L4.86,35.329 L4.437,35.95 L3.602,41.395 L0.476,63.281 L25.897,66 L49.354,65.048 L58.116,56.324 L57.028,0.611 L32.15,2.412 Z"></path>
        <path id="path-27" d="M32.15,2.412 L27.062,3.275 L27.009,5.06 L26.974,5.238 L26.898,5.428 L26.818,5.558 L26.721,5.676 L26.601,5.781 L26.349,5.922 L25.661,6.183 L25.333,6.306 L24.628,6.574 L24.051,6.792 L23.564,6.977 L23.393,8.022 L14.117,9.616 L14.117,21.468 L13.321,21.771 L12.969,21.904 L12.909,22.498 L12.909,22.961 L12.909,24.07 L12.887,24.882 L12.844,25.144 L12.579,25.581 L12.219,25.827 L11.218,26.207 L10.604,26.354 L9.429,26.886 L9.372,27.597 L9.372,28.139 L9.372,28.818 L9.341,29.881 L9.274,30.209 L8.946,30.666 L8.674,30.82 L8.036,31.064 L4.975,32.151 L4.996,32.828 L5.037,33.516 L5.037,34.152 L4.86,35.329 L4.437,35.95 L3.602,41.395 L0.476,63.281 L25.897,66 L49.354,65.048 L58.116,56.324 L57.028,0.611"></path>
        <path id="path-29" d="M32.15,2.412 L27.062,3.275 L27.009,5.06 L26.974,5.238 L26.898,5.428 L26.818,5.558 L26.721,5.676 L26.601,5.781 L26.349,5.922 L25.661,6.183 L25.333,6.306 L24.628,6.574 L24.051,6.792 L23.564,6.977 L23.393,8.022 L14.117,9.616 L14.117,21.468 L13.321,21.771 L12.969,21.904 L12.909,22.498 L12.909,22.961 L12.909,24.07 L12.887,24.882 L12.844,25.144 L12.579,25.581 L12.219,25.827 L11.218,26.207 L10.604,26.354 L9.429,26.886 L9.372,27.597 L9.372,28.139 L9.372,28.818 L9.341,29.881 L9.274,30.209 L8.946,30.666 L8.674,30.82 L8.036,31.064 L4.975,32.151 L4.996,32.828 L5.037,33.516 L5.037,34.152 L4.86,35.329 L4.437,35.95 L3.602,41.395 L0.476,63.281 L25.897,66 L49.354,65.048 L58.116,56.324 L57.028,0.611"></path>
        <path id="path-31" d="M32.15,2.412 L27.062,3.275 L27.009,5.06 L26.974,5.238 L26.898,5.428 L26.818,5.558 L26.721,5.676 L26.601,5.781 L26.349,5.922 L25.661,6.183 L25.333,6.306 L24.628,6.574 L24.051,6.792 L23.564,6.977 L23.393,8.022 L14.117,9.616 L14.117,21.468 L13.321,21.771 L12.969,21.904 L12.909,22.498 L12.909,22.961 L12.909,24.07 L12.887,24.882 L12.844,25.144 L12.579,25.581 L12.219,25.827 L11.218,26.207 L10.604,26.354 L9.429,26.886 L9.372,27.597 L9.372,28.139 L9.372,28.818 L9.341,29.881 L9.274,30.209 L8.946,30.666 L8.674,30.82 L8.036,31.064 L4.975,32.151 L4.996,32.828 L5.037,33.516 L5.037,34.152 L4.86,35.329 L4.437,35.95 L3.602,41.395 L0.476,63.281 L25.897,66 L49.354,65.048 L58.116,56.324 L57.028,0.611 L32.15,2.412 Z"></path>
        <path id="path-33" d="M32.15,2.412 L27.062,3.275 L27.009,5.06 L26.974,5.238 L26.898,5.428 L26.818,5.558 L26.721,5.676 L26.601,5.781 L26.349,5.922 L25.661,6.183 L25.333,6.306 L24.628,6.574 L24.051,6.792 L23.564,6.977 L23.393,8.022 L14.117,9.616 L14.117,21.468 L13.321,21.771 L12.969,21.904 L12.909,22.498 L12.909,22.961 L12.909,24.07 L12.887,24.882 L12.844,25.144 L12.579,25.581 L12.219,25.827 L11.218,26.207 L10.604,26.354 L9.429,26.886 L9.372,27.597 L9.372,28.139 L9.372,28.818 L9.341,29.881 L9.274,30.209 L8.946,30.666 L8.674,30.82 L8.036,31.064 L4.975,32.151 L4.996,32.828 L5.037,33.516 L5.037,34.152 L4.86,35.329 L4.437,35.95 L3.602,41.395 L0.476,63.281 L25.897,66 L49.354,65.048 L58.116,56.324 L57.028,0.611"></path>
        <path id="path-35" d="M32.15,2.412 L27.062,3.275 L27.009,5.06 L26.974,5.238 L26.898,5.428 L26.818,5.558 L26.721,5.676 L26.601,5.781 L26.349,5.922 L25.661,6.183 L25.333,6.306 L24.628,6.574 L24.051,6.792 L23.564,6.977 L23.393,8.022 L14.117,9.616 L14.117,21.468 L13.321,21.771 L12.969,21.904 L12.909,22.498 L12.909,22.961 L12.909,24.07 L12.887,24.882 L12.844,25.144 L12.579,25.581 L12.219,25.827 L11.218,26.207 L10.604,26.354 L9.429,26.886 L9.372,27.597 L9.372,28.139 L9.372,28.818 L9.341,29.881 L9.274,30.209 L8.946,30.666 L8.674,30.82 L8.036,31.064 L4.975,32.151 L4.996,32.828 L5.037,33.516 L5.037,34.152 L4.86,35.329 L4.437,35.95 L3.602,41.395 L0.476,63.281 L25.897,66 L49.354,65.048 L58.116,56.324 L57.028,0.611"></path>
        <path id="path-37" d="M32.15,2.412 L27.062,3.275 L27.009,5.06 L26.974,5.238 L26.898,5.428 L26.818,5.558 L26.721,5.676 L26.601,5.781 L26.349,5.922 L25.661,6.183 L25.333,6.306 L24.628,6.574 L24.051,6.792 L23.564,6.977 L23.393,8.022 L14.117,9.616 L14.117,21.468 L13.321,21.771 L12.969,21.904 L12.909,22.498 L12.909,22.961 L12.909,24.07 L12.887,24.882 L12.844,25.144 L12.579,25.581 L12.219,25.827 L11.218,26.207 L10.604,26.354 L9.429,26.886 L9.372,27.597 L9.372,28.139 L9.372,28.818 L9.341,29.881 L9.274,30.209 L8.946,30.666 L8.674,30.82 L8.036,31.064 L4.975,32.151 L4.996,32.828 L5.037,33.516 L5.037,34.152 L4.86,35.329 L4.437,35.95 L3.602,41.395 L0.476,63.281 L25.897,66 L49.354,65.048 L58.116,56.324 L57.028,0.611"></path>
        <path id="path-39" d="M32.15,2.412 L27.062,3.275 L27.009,5.06 L26.974,5.238 L26.898,5.428 L26.818,5.558 L26.721,5.676 L26.601,5.781 L26.349,5.922 L25.661,6.183 L25.333,6.306 L24.628,6.574 L24.051,6.792 L23.564,6.977 L23.393,8.022 L14.117,9.616 L14.117,21.468 L13.321,21.771 L12.969,21.904 L12.909,22.498 L12.909,22.961 L12.909,24.07 L12.887,24.882 L12.844,25.144 L12.579,25.581 L12.219,25.827 L11.218,26.207 L10.604,26.354 L9.429,26.886 L9.372,27.597 L9.372,28.139 L9.372,28.818 L9.341,29.881 L9.274,30.209 L8.946,30.666 L8.674,30.82 L8.036,31.064 L4.975,32.151 L4.996,32.828 L5.037,33.516 L5.037,34.152 L4.86,35.329 L4.437,35.95 L3.602,41.395 L0.476,63.281 L25.897,66 L49.354,65.048 L58.116,56.324 L57.028,0.611"></path>
        <path id="path-41" d="M32.15,2.412 L27.062,3.275 L27.009,5.06 L26.974,5.238 L26.898,5.428 L26.818,5.558 L26.721,5.676 L26.601,5.781 L26.349,5.922 L25.661,6.183 L25.333,6.306 L24.628,6.574 L24.051,6.792 L23.564,6.977 L23.393,8.022 L14.117,9.616 L14.117,21.468 L13.321,21.771 L12.969,21.904 L12.909,22.498 L12.909,22.961 L12.909,24.07 L12.887,24.882 L12.844,25.144 L12.579,25.581 L12.219,25.827 L11.218,26.207 L10.604,26.354 L9.429,26.886 L9.372,27.597 L9.372,28.139 L9.372,28.818 L9.341,29.881 L9.274,30.209 L8.946,30.666 L8.674,30.82 L8.036,31.064 L4.975,32.151 L4.996,32.828 L5.037,33.516 L5.037,34.152 L4.86,35.329 L4.437,35.95 L3.602,41.395 L0.476,63.281 L25.897,66 L49.354,65.048 L58.116,56.324 L57.028,0.611"></path>
        <path id="path-43" d="M56.892,0.5 L21.411,5.904 L2.095,39.754 L0,61.573 L17.741,72.278 L38.541,61.369 L40.117,44.468 L40.117,32.616 L48.529,31.171 L66.273,21.911 L75.143,8.453 L56.892,0.5 Z"></path>
        <path id="path-45" d="M56.892,0.5 L21.411,5.904 L2.095,39.754 L0,61.573 L17.741,72.278 L38.541,61.369 L40.117,44.468 L40.117,32.616 L48.529,31.171 L66.273,21.911 L75.143,8.453 L56.892,0.5 Z"></path>
        <path id="path-47" d="M56.892,0.5 L21.411,5.904 L2.095,39.754 L0,61.573 L17.741,72.278 L38.541,61.369 L40.117,44.468 L40.117,32.616 L48.529,31.171 L66.273,21.911 L75.143,8.453"></path>
    </defs>
    <g id="Styleguide" stroke="none" stroke-width="1" fill="none" fill-rule="evenodd" sketch:type="MSPage">
        <g sketch:type="MSArtboardGroup" transform="translate(-2767.000000, -1286.000000)" id="Page-1">
            <g sketch:type="MSLayerGroup" transform="translate(2760.000000, 1283.000000)">
                <g id="Group-64" transform="translate(26.000000, 23.000000)">
                    <g id="Group-3">
                        <mask id="mask-2" sketch:name="Clip 2" fill="white">
                            <use xlink:href="#path-1"></use>
                        </mask>
                        <g id="Clip-2"></g>
                        <path d="M19.9617,9.3799 C21.9337,9.3799 23.0987,9.5369 24.0347,9.6629 C24.7047,9.7519 25.2447,9.8239 25.8797,9.8239 C27.3607,9.8239 29.4957,9.4189 33.2487,8.4239 C37.3977,7.3259 39.1147,6.5709 39.8127,6.1719 C38.5917,5.7619 34.5727,4.9809 21.6647,4.9809 L20.6617,4.9769 C10.4737,4.9769 7.1547,6.4339 6.6447,7.0679 C7.2837,7.9269 11.2357,9.3989 18.4657,9.3989 C18.9487,9.3989 19.4407,9.3929 19.9447,9.3799 L19.9557,9.3799 L19.9617,9.3799 Z M49.2137,14.4089 C49.4227,14.4669 49.7227,14.5179 50.1197,14.5179 C50.5177,14.5179 50.8157,14.4669 51.0267,14.4089 C50.8157,14.3499 50.5177,14.2989 50.1197,14.2989 C49.7237,14.2989 49.4247,14.3499 49.2137,14.4089 L49.2137,14.4089 Z M37.7067,23.1889 C37.6707,23.2069 37.6317,23.2189 37.5907,23.2249 C36.4797,23.3689 35.8717,23.4419 35.7827,23.4419 C35.3707,23.4419 34.3647,24.9069 34.3647,27.6219 C34.3647,30.3359 35.3707,31.7999 35.7827,31.7999 C36.0237,31.6989 37.3237,30.4589 38.3557,29.3729 C39.5037,28.4569 40.6157,27.6449 41.6907,26.8599 C42.1337,26.5369 42.5417,26.2439 42.9417,25.9559 C46.9577,23.0709 50.1547,20.7739 50.6037,15.7029 C50.4427,15.7189 50.2807,15.7269 50.1197,15.7269 C49.7907,15.7269 49.4667,15.6969 49.1707,15.6389 C48.7527,16.1139 48.3937,16.6459 48.0447,17.1609 C46.4847,19.4579 44.7207,22.0579 37.7067,23.1889 L37.7067,23.1889 Z M19.9307,58.4609 C21.8997,58.4609 23.0657,58.6169 24.0027,58.7419 C24.6897,58.8329 25.2147,58.9019 25.8527,58.9019 C27.3317,58.9019 29.4667,58.4979 33.2207,57.5049 C33.8827,57.3289 34.5627,57.1549 35.2327,56.9839 C37.2617,56.4629 39.1857,55.9699 40.1927,55.5459 L40.1907,30.7179 C39.7407,31.1079 39.2887,31.5029 38.8607,31.8779 C38.3477,32.3269 37.8667,32.7459 37.4657,33.0899 C37.4547,33.1039 37.4147,33.1369 37.3747,33.1689 L37.0237,32.9429 L37.2867,33.2439 L37.1717,33.3429 C37.1387,33.3699 37.1017,33.3909 37.0627,33.4059 C36.6497,33.6839 36.2197,33.8249 35.7817,33.8249 C33.7877,33.8249 32.3397,31.2159 32.3397,27.6219 C32.3397,24.1049 33.7527,21.4989 35.6997,21.4249 C37.4177,21.2319 38.8987,20.9549 40.1907,20.5809 L40.1907,8.3879 C38.8387,9.0389 36.7777,9.7229 33.8007,10.5119 C29.1907,11.7329 27.2997,11.9829 25.8797,11.9829 C25.0747,11.9829 24.4297,11.8959 23.7467,11.8039 C22.8287,11.6789 21.7877,11.5379 19.9747,11.5379 C19.5067,11.5509 19.0227,11.5579 18.5447,11.5579 C13.3487,11.5579 8.9517,10.8339 6.5317,9.5999 L6.5467,55.8059 L6.5867,56.1169 C7.0607,56.9339 11.0277,58.4799 18.4377,58.4799 C18.9197,58.4799 19.4117,58.4749 19.9157,58.4619 C19.9197,58.4609 19.9307,58.4609 19.9307,58.4609 L19.9307,58.4609 Z M25.8507,61.0599 C25.0387,61.0599 24.3977,60.9719 23.7177,60.8789 C22.7897,60.7539 21.7507,60.6149 19.9437,60.6149 C19.4757,60.6279 18.9917,60.6349 18.5127,60.6349 C11.3427,60.6349 5.9267,59.2809 4.7157,57.1869 C4.5507,56.9009 4.4577,56.5909 4.4367,56.2639 L4.4097,55.8299 L4.5317,7.5819 C4.3887,7.0599 4.4597,6.5309 4.7377,6.0499 C6.2767,3.3809 14.2487,2.8209 20.6637,2.8209 L21.6577,2.8249 C41.9597,2.8249 42.1977,4.6659 42.3567,5.8849 C42.3837,6.0779 42.3707,6.2789 42.3187,6.4799 L42.3187,19.7919 C44.2807,18.8589 45.2137,17.7059 46.1027,16.4149 C46.1967,14.6739 46.8357,11.8709 47.9777,10.6169 C46.9767,9.5019 47.1397,8.3809 47.3437,7.7829 C48.1677,5.3599 52.2767,3.2039 54.9387,3.2039 L55.3517,3.2039 C55.5647,3.2039 55.7387,3.3699 55.7507,3.5829 L55.7777,4.0889 C56.0967,6.7039 54.4477,11.0419 52.1377,12.1509 C51.7417,12.3409 51.3327,12.4379 50.9217,12.4379 C50.2967,12.4379 49.6877,12.2119 49.1057,11.7649 C48.8617,12.0779 48.5537,12.6929 48.2867,13.4919 C48.8977,13.1399 49.8157,13.1059 50.1307,13.1059 C51.2527,13.1059 52.5647,13.4469 52.5647,14.4079 C52.5647,14.4919 52.5477,14.5659 52.5277,14.6299 C52.2537,21.6559 47.7617,24.9349 43.0057,28.4059 L42.9157,28.4709 C42.7397,28.5999 42.5347,28.7589 42.3177,28.9329 L42.3177,55.8059 C42.4997,56.8889 37.7737,58.4669 33.7747,59.5879 C29.1597,60.8809 27.2387,61.0599 25.8507,61.0599 L25.8507,61.0599 Z" id="Fill-1" fill="#0CAC6A" sketch:type="MSShapeGroup" mask="url(#mask-2)"></path>
                    </g>
                    <g id="Group-6">
                        <mask id="mask-4" sketch:name="Clip 5" fill="white">
                            <use xlink:href="#path-3"></use>
                        </mask>
                        <g id="Clip-5"></g>
                        <path d="M37.8253,23.575 C44.9623,22.41 46.8543,19.626 48.3753,17.387 C48.6903,16.921 48.9903,16.477 49.3273,16.071 C49.5823,16.108 49.8493,16.127 50.1203,16.127 L50.1553,16.127 C49.5693,20.702 46.5153,22.897 42.7103,25.63 C42.3083,25.919 41.8993,26.213 41.4853,26.515 C40.3833,27.319 39.2653,28.136 38.1483,29.021 C38.1183,29.044 38.0913,29.07 38.0653,29.097 C37.2453,29.961 36.2163,30.956 35.7413,31.319 C35.4153,30.987 34.7653,29.816 34.7653,27.622 C34.7653,25.173 35.5773,23.997 35.8423,23.84 C35.9583,23.832 36.3053,23.795 37.6423,23.621 C37.7053,23.613 37.7673,23.597 37.8253,23.575 M48.9713,12.825 C49.0563,12.633 49.1393,12.466 49.2163,12.328 C49.4863,12.495 49.7613,12.621 50.0413,12.706 C49.7763,12.71 49.3813,12.735 48.9713,12.825 M25.8803,12.383 C27.3313,12.383 29.2513,12.13 33.9033,10.898 C36.5123,10.207 38.4293,9.593 39.7923,9.008 L39.7923,20.277 C38.5883,20.605 37.2183,20.851 35.6273,21.028 C35.6233,21.028 35.6203,21.029 35.6173,21.029 C33.4823,21.165 31.9403,23.92 31.9403,27.622 C31.9403,31.448 33.5553,34.225 35.7823,34.225 C36.2913,34.225 36.7863,34.067 37.2583,33.756 C37.3183,33.729 37.3753,33.693 37.4283,33.649 L37.5453,33.55 L37.6053,33.497 C37.6623,33.452 37.7063,33.415 37.7463,33.376 C38.1413,33.038 38.6103,32.628 39.1123,32.189 C39.3333,31.996 39.5613,31.796 39.7923,31.595 L39.7943,55.275 C38.7473,55.669 36.9143,56.139 35.1323,56.596 C34.4613,56.768 33.7803,56.943 33.1173,57.119 C29.4003,58.102 27.2953,58.503 25.8523,58.503 C25.2393,58.503 24.7243,58.435 24.0713,58.348 C23.1043,58.219 21.9203,58.061 19.9303,58.061 C19.4043,58.075 18.9163,58.08 18.4383,58.08 C10.9683,58.08 7.4843,56.567 6.9713,55.964 L6.9473,55.758 L6.9313,10.226 C9.4963,11.322 13.6823,11.958 18.5443,11.958 C19.0263,11.958 19.5143,11.951 19.9963,11.938 C21.7533,11.938 22.7833,12.077 23.6923,12.2 C24.3893,12.294 25.0453,12.383 25.8803,12.383 M7.2463,7.089 C8.2743,6.474 11.9043,5.377 20.6643,5.377 L21.6623,5.381 C32.1433,5.381 36.6993,5.892 38.6533,6.285 C37.6773,6.695 35.9993,7.282 33.1463,8.038 C29.4293,9.022 27.3243,9.424 25.8803,9.424 C25.2693,9.424 24.7643,9.357 24.1253,9.271 C23.1913,9.145 21.9633,8.98 19.9703,8.98 C19.4343,8.993 18.9453,8.999 18.4663,8.999 C11.7453,8.999 8.2503,7.773 7.2463,7.089 M20.6643,2.421 C11.1793,2.421 5.7043,3.575 4.3913,5.85 C4.0723,6.401 3.9823,7.029 4.1313,7.633 L4.0093,55.803 C4.0093,55.82 4.0093,55.837 4.0103,55.855 L4.0373,56.288 C4.0623,56.679 4.1743,57.048 4.3693,57.386 C5.9233,60.076 12.6943,61.034 18.5133,61.034 C18.9953,61.034 19.4823,61.028 19.9663,61.015 C21.7293,61.015 22.7553,61.153 23.6603,61.274 C24.3553,61.369 25.0093,61.459 25.8503,61.459 C27.2683,61.459 29.2233,61.279 33.8833,59.973 C42.6453,57.515 42.8013,56.334 42.7183,55.744 L42.7183,29.125 C42.8743,29.002 43.0213,28.889 43.1523,28.794 L43.2393,28.73 C48.0683,25.206 52.6313,21.877 52.9283,14.683 C52.9493,14.603 52.9643,14.512 52.9643,14.408 C52.9643,13.624 52.3243,13.05 51.2643,12.818 C51.6193,12.778 51.9703,12.675 52.3123,12.511 C54.7493,11.341 56.4973,6.812 56.1763,4.042 L56.1493,3.56 C56.1263,3.136 55.7753,2.804 55.3513,2.804 L54.9383,2.804 C52.1513,2.804 47.8383,5.088 46.9643,7.654 C46.7473,8.291 46.5693,9.444 47.4593,10.618 C46.4053,12.017 45.8223,14.55 45.7103,16.28 C44.9653,17.351 44.1723,18.321 42.7193,19.135 L42.7193,6.528 C42.7733,6.295 42.7843,6.06 42.7523,5.828 C42.5563,4.315 42.3113,2.425 21.6713,2.425 C21.3183,2.423 20.9893,2.421 20.6643,2.421 M35.7833,32.2 C36.2223,32.2 38.6453,29.648 38.6453,29.648 C39.7573,28.767 40.8713,27.954 41.9573,27.161 C46.6803,23.714 50.7203,21.378 51.0373,15.233 C50.7493,15.293 50.4363,15.327 50.1203,15.327 C49.7413,15.327 49.3603,15.283 49.0313,15.197 C48.5363,15.725 48.1363,16.313 47.7143,16.937 C46.1843,19.189 44.4583,21.72 37.5253,22.813 C37.5303,22.819 37.5343,22.823 37.5393,22.828 C37.5393,22.828 35.8903,23.042 35.7833,23.042 C35.0253,23.042 33.9653,24.784 33.9653,27.622 C33.9653,30.459 35.0223,32.2 35.7833,32.2 M50.1203,14.918 C51.1803,14.918 51.7573,14.582 51.7573,14.409 C51.7573,14.236 51.1803,13.899 50.1203,13.899 C49.0623,13.899 48.4843,14.236 48.4843,14.408 C48.4843,14.427 48.4933,14.45 48.5093,14.473 L48.5223,14.49 C48.6603,14.67 49.2123,14.918 50.1203,14.918 M25.8803,11.583 C25.1103,11.583 24.5023,11.502 23.8013,11.407 C22.8673,11.281 21.8083,11.138 19.9743,11.138 C19.5003,11.151 19.0193,11.158 18.5443,11.158 C12.8933,11.158 8.2553,10.286 6.1313,8.91 L6.1473,55.806 L6.1903,56.165 C6.1953,56.216 6.2103,56.259 6.2373,56.306 C6.8543,57.375 11.0473,58.88 18.4383,58.88 C18.9233,58.88 19.4193,58.875 19.9273,58.861 L19.9303,58.861 C21.8663,58.861 23.0213,59.015 23.9503,59.139 C24.6213,59.228 25.1813,59.303 25.8523,59.303 C27.3733,59.303 29.5383,58.893 33.3233,57.892 C36.1673,57.137 39.3443,56.408 40.5943,55.805 L40.5923,29.847 C39.4023,30.862 38.1063,32.015 37.2063,32.786 C37.1683,32.825 37.1263,32.855 37.0873,32.888 C37.0333,32.934 36.9713,32.99 36.9203,33.032 L36.9263,33.013 C36.5743,33.271 36.1923,33.425 35.7823,33.425 C34.0483,33.425 32.7403,30.931 32.7403,27.622 C32.7403,24.357 34.0143,21.889 35.7153,21.825 L35.7153,21.823 C37.7173,21.601 39.3013,21.275 40.5923,20.879 L40.5923,7.729 C39.4003,8.406 37.2923,9.173 33.6983,10.125 C29.1303,11.335 27.2693,11.583 25.8803,11.583 M49.3543,10.38 C49.3543,10.38 52.0283,7.833 52.7943,6.625 C53.2173,5.956 54.0623,4.696 54.0623,4.696 C54.0623,4.696 53.0513,5.84 52.6243,6.515 C51.8293,7.767 49.3543,10.38 49.3543,10.38 M18.4663,9.799 C18.9523,9.799 19.4483,9.793 19.9563,9.78 L19.9623,9.78 L19.9703,9.78 C21.8973,9.78 23.0533,9.934 23.9813,10.059 C24.6403,10.147 25.2033,10.224 25.8803,10.224 C27.4003,10.224 29.5653,9.814 33.3513,8.811 C39.2443,7.251 40.3643,6.357 40.5743,6.102 C40.2113,5.789 37.7593,4.581 21.6653,4.581 L20.6643,4.577 C10.3633,4.577 6.7623,6.054 6.2583,6.927 C6.2023,7.024 6.1903,7.093 6.2683,7.226 C6.8843,8.294 11.0773,9.799 18.4663,9.799 M20.6643,3.221 C20.9943,3.221 21.3293,3.223 21.6713,3.225 C41.6053,3.225 41.8373,4.988 41.9603,5.936 C41.9823,6.098 41.9683,6.261 41.9193,6.426 L41.9193,20.407 C44.4603,19.354 45.5383,17.949 46.4973,16.548 C46.5773,14.609 47.3443,11.55 48.5523,10.627 C47.4623,9.638 47.4823,8.616 47.7223,7.912 C48.4773,5.693 52.4283,3.604 54.9383,3.604 L55.3513,3.604 L55.3793,4.111 C55.6813,6.604 54.0783,10.776 51.9653,11.79 C51.6743,11.93 51.3203,12.038 50.9223,12.038 C50.3793,12.038 49.7523,11.831 49.0913,11.231 C48.5533,11.567 47.8013,13.231 47.4723,15.09 C47.7753,14.632 48.0233,14.269 48.2103,14.073 C48.5123,13.695 49.3223,13.506 50.1303,13.506 C51.1483,13.506 52.1643,13.806 52.1643,14.408 C52.1643,14.46 52.1483,14.509 52.1313,14.557 L52.1333,14.557 C51.8853,21.472 47.5093,24.624 42.6803,28.148 C42.4603,28.309 42.1953,28.516 41.9183,28.741 L41.9183,55.806 C41.9183,55.806 42.0873,56.841 33.6673,59.203 C29.1213,60.477 27.2403,60.659 25.8503,60.659 C25.0803,60.659 24.4723,60.578 23.7713,60.482 C22.8403,60.357 21.7853,60.215 19.9443,60.215 C19.4683,60.228 18.9883,60.234 18.5133,60.234 C11.5903,60.234 6.1853,58.929 5.0623,56.986 C4.9283,56.754 4.8533,56.503 4.8363,56.238 L4.8093,55.805 L4.9323,7.526 C4.8013,7.099 4.8493,6.656 5.0843,6.25 C6.6053,3.614 15.4993,3.221 20.6643,3.221" id="Fill-4" fill="#333333" sketch:type="MSShapeGroup" mask="url(#mask-4)"></path>
                    </g>
                    <g id="Group-9">
                        <mask id="mask-6" sketch:name="Clip 8" fill="white">
                            <use xlink:href="#path-5"></use>
                        </mask>
                        <g id="Clip-8"></g>
                        <path d="M10.864,7.085 C11.23,6.64 13.843,5.887 21.316,5.887 L22.042,5.888 C33.72,5.888 35.499,6.505 35.764,6.664 C35.611,6.793 34.798,7.25 30.522,8.046 C27.776,8.557 26.204,8.767 25.1,8.767 C24.609,8.767 24.2,8.729 23.724,8.683 C23.049,8.62 22.211,8.54 20.813,8.54 L20.806,8.54 L20.802,8.54 C20.434,8.546 20.073,8.55 19.722,8.55 C14.36,8.55 11.318,7.783 10.87,7.238 C10.815,7.169 10.824,7.134 10.864,7.085 M19.779,9.242 C20.122,9.242 20.472,9.239 20.817,9.233 C22.146,9.233 22.914,9.306 23.592,9.369 C24.101,9.417 24.541,9.459 25.1,9.459 C26.109,9.459 27.46,9.333 30.774,8.715 C33.381,8.229 34.993,7.921 35.776,7.493 C36.053,7.341 36.584,7 36.75,6.783 C36.798,6.721 36.779,6.646 36.767,6.578 C36.677,6.095 36.511,5.195 22.046,5.195 C21.799,5.195 21.555,5.193 21.316,5.193 C17.568,5.193 10.224,5.342 10.011,6.738 C9.975,6.976 10.122,7.47 10.295,7.676 C10.792,8.271 15.679,9.242 19.779,9.242" id="Fill-7" fill="#0CAC6A" sketch:type="MSShapeGroup" mask="url(#mask-6)"></path>
                    </g>
                    <g id="Group-12">
                        <mask id="mask-8" sketch:name="Clip 11" fill="white">
                            <use xlink:href="#path-7"></use>
                        </mask>
                        <g id="Clip-11"></g>
                        <path d="M13.728,7.175 C13.99,6.951 15.862,6.572 21.217,6.572 L21.738,6.574 C30.105,6.574 31.379,6.883 31.569,6.964 C31.46,7.029 30.877,7.258 27.814,7.659 C25.845,7.916 24.72,8.021 23.93,8.021 C23.576,8.021 23.284,8.001 22.941,7.979 C22.459,7.946 21.859,7.907 20.856,7.907 L20.853,7.907 L20.849,7.907 C20.584,7.91 20.326,7.912 20.075,7.912 C16.233,7.912 14.054,7.526 13.733,7.252 C13.692,7.219 13.699,7.2 13.728,7.175 M20.115,8.261 C20.362,8.261 20.612,8.259 20.858,8.256 C21.811,8.256 22.363,8.292 22.848,8.324 C23.212,8.348 23.529,8.369 23.929,8.369 C24.651,8.369 25.617,8.305 27.992,7.995 C29.859,7.75 31.014,7.596 31.576,7.379 C31.774,7.304 32.155,7.132 32.273,7.023 C32.307,6.992 32.295,6.954 32.287,6.92 C32.223,6.677 32.101,6.224 21.739,6.224 L21.215,6.224 C18.53,6.224 13.268,6.299 13.115,7 C13.089,7.12 13.194,7.369 13.318,7.473 C13.677,7.772 17.178,8.261 20.115,8.261" id="Fill-10" fill="#0CAC6A" sketch:type="MSShapeGroup" mask="url(#mask-8)"></path>
                    </g>
                    <g id="Group-15">
                        <mask id="mask-10" sketch:name="Clip 14" fill="white">
                            <use xlink:href="#path-9"></use>
                        </mask>
                        <g id="Clip-14"></g>
                        <path d="M18.514,7.111 C18.634,7.014 19.493,6.849 21.953,6.849 L22.191,6.849 C26.033,6.849 26.619,6.984 26.706,7.018 C26.654,7.047 26.389,7.146 24.982,7.32 C24.078,7.431 23.56,7.477 23.198,7.477 C23.036,7.477 22.901,7.469 22.743,7.459 C22.522,7.445 22.246,7.428 21.786,7.428 L21.784,7.428 C21.663,7.428 21.544,7.429 21.428,7.429 C19.664,7.429 18.663,7.261 18.517,7.141 C18.499,7.129 18.501,7.121 18.514,7.111 M21.448,7.581 C21.56,7.581 21.676,7.58 21.789,7.579 C22.227,7.579 22.48,7.596 22.702,7.609 C22.87,7.619 23.015,7.628 23.199,7.628 C23.53,7.628 23.973,7.6 25.064,7.466 C25.922,7.36 26.453,7.292 26.711,7.199 C26.801,7.166 26.976,7.091 27.03,7.044 C27.047,7.03 27.041,7.014 27.036,6.999 C27.007,6.893 26.951,6.697 22.192,6.697 L21.953,6.697 C20.719,6.697 18.303,6.729 18.232,7.034 C18.221,7.085 18.269,7.194 18.326,7.239 C18.491,7.369 20.098,7.581 21.448,7.581" id="Fill-13" fill="#000000" sketch:type="MSShapeGroup" mask="url(#mask-10)"></path>
                    </g>
                    <g id="Group-18">
                        <mask id="mask-12" sketch:name="Clip 17" fill="white">
                            <use xlink:href="#path-11"></use>
                        </mask>
                        <g id="Clip-17"></g>
                        <path d="M24.638,57.141 C24.561,57.132 25.27,50.401 24.774,44.907 C23.802,34.186 22.469,19.508 27.346,12.238 L27.489,12.028 L27.793,11.708 L27.98,12.092 L28.085,12.318 C30.964,19.69 30.039,32.079 29.297,42.033 C28.799,48.713 29.931,57.125 29.931,57.125 C29.546,57.157 29.194,57.027 28.913,56.75 C27.553,55.403 27.847,50.508 28.483,41.972 C29.195,32.44 30.073,20.654 27.601,13.374 C23.391,20.626 24.656,34.566 25.584,44.832 C26.246,52.141 26.538,55.997 25.389,56.927 C25.232,57.052 24.983,57.179 24.638,57.141" id="Fill-16" fill="#0CAC6A" sketch:type="MSShapeGroup" mask="url(#mask-12)"></path>
                    </g>
                    <g id="Group-21">
                        <mask id="mask-14" sketch:name="Clip 20" fill="white">
                            <use xlink:href="#path-13"></use>
                        </mask>
                        <g id="Clip-20"></g>
                        <path d="M10.058,56.658 C9.64,56.666 9.262,56.534 8.932,56.264 C6.717,54.443 6.961,46.41 7.329,34.247 C7.531,27.581 7.76,20.026 7.608,12.033 L7.948,12.027 L8.219,12.023 C8.372,20.031 8.142,27.595 7.94,34.267 C7.602,45.384 7.336,54.163 9.319,55.793 C9.558,55.988 14.908,22.16 12.91,14.087 C12.604,12.844 12.293,11.899 12.293,11.899 C13.14,12.231 13.66,13.763 13.927,16.722 C14.363,21.559 14.043,30.451 13.07,40.507 C13.01,41.132 11.585,55.728 10.489,56.582 L10.493,56.603 C10.471,56.608 10.448,56.614 10.428,56.619 C10.358,56.652 10.282,56.663 10.208,56.652 C10.158,56.655 10.107,56.657 10.058,56.658" id="Fill-19" fill="#0CAC6A" sketch:type="MSShapeGroup" mask="url(#mask-14)"></path>
                    </g>
                    <g id="Group-24">
                        <mask id="mask-16" sketch:name="Clip 23" fill="white">
                            <use xlink:href="#path-15"></use>
                        </mask>
                        <g id="Clip-23"></g>
                        <path d="M10.283,14.86 C6.56,21.409 9.989,38.369 10.236,37.115 C10.236,37.115 10.365,33.924 10.903,29.412 C11.671,22.975 11.733,15.007 10.61,14.666 C10.518,14.639 10.33,14.778 10.283,14.86 M10.512,37.765 C10.26,38.216 10.161,37.951 9.851,37.642 C8.41,36.212 8.578,14.996 9.818,14.158 C9.818,14.158 10.836,13.732 10.995,14.14 C14.822,23.942 10.512,37.765 10.512,37.765" id="Fill-22" fill="#0CAC6A" sketch:type="MSShapeGroup" mask="url(#mask-16)"></path>
                    </g>
                    <g id="Group-27">
                        <mask id="mask-18" sketch:name="Clip 26" fill="white">
                            <use xlink:href="#path-17"></use>
                        </mask>
                        <g id="Clip-26"></g>
                        <path d="M22.015,55.389 C25.74,48.551 22.309,30.847 22.063,32.155 C22.063,32.155 21.935,35.488 21.396,40.198 C20.628,46.917 20.566,55.236 21.689,55.591 C21.779,55.619 21.969,55.477 22.015,55.389 M21.787,31.477 C22.039,31.006 22.138,31.284 22.448,31.607 C23.888,33.099 23.721,55.247 22.48,56.122 C22.48,56.122 21.462,56.567 21.303,56.14 C17.476,45.906 21.787,31.477 21.787,31.477" id="Fill-25" fill="#0CAC6A" sketch:type="MSShapeGroup" mask="url(#mask-18)"></path>
                    </g>
                    <g id="Group-30">
                        <mask id="mask-20" sketch:name="Clip 29" fill="white">
                            <use xlink:href="#path-19"></use>
                        </mask>
                        <g id="Clip-29"></g>
                        <path d="M16.951,56.763 C13.445,55.977 13.966,50.616 14.829,41.731 C15.552,34.277 16.544,24.068 15.411,12.495 L16.223,12.416 C17.363,24.066 16.368,34.321 15.641,41.81 C14.85,49.957 14.327,55.34 17.13,55.966 L16.951,56.763 Z" id="Fill-28" fill="#0CAC6A" sketch:type="MSShapeGroup" mask="url(#mask-20)"></path>
                    </g>
                    <g id="Group-33">
                        <mask id="mask-22" sketch:name="Clip 32" fill="white">
                            <use xlink:href="#path-21"></use>
                        </mask>
                        <g id="Clip-32"></g>
                        <path d="M30.278,11.978 C33.784,12.764 33.264,18.126 32.402,27.011 C31.678,34.466 30.685,44.674 31.819,56.246 L31.007,56.326 C29.866,44.675 30.861,34.42 31.588,26.931 C32.381,18.784 32.901,13.402 30.101,12.774 L30.278,11.978 Z" id="Fill-31" fill="#0CAC6A" sketch:type="MSShapeGroup" mask="url(#mask-22)"></path>
                    </g>
                    <g id="Group-36">
                        <mask id="mask-24" sketch:name="Clip 35" fill="white">
                            <use xlink:href="#path-23"></use>
                        </mask>
                        <g id="Clip-35"></g>
                        <path d="M17.093,52.454 C16.793,52.454 16.904,51.381 16.904,51.381 C16.985,51.501 17.046,51.567 17.085,51.604 C18.104,50.421 18,38.24 17.9,26.453 C17.863,22.157 17.826,17.713 17.826,13.204 C17.826,13.204 18.679,22.151 18.715,26.446 C18.877,45.314 18.798,51.959 17.299,52.424 C17.229,52.442 17.16,52.454 17.093,52.454" id="Fill-34" fill="#0CAC6A" sketch:type="MSShapeGroup" mask="url(#mask-24)"></path>
                    </g>
                    <g id="Group-39">
                        <mask id="mask-26" sketch:name="Clip 38" fill="white">
                            <use xlink:href="#path-25"></use>
                        </mask>
                        <g id="Clip-38"></g>
                        <path d="M35.11,22.515 C35.231,19.356 35.459,17.197 35.857,16.734 C35.897,16.769 35.958,16.836 36.039,16.957 C36.039,16.957 36.148,15.884 35.85,15.884 C35.783,15.884 35.713,15.894 35.645,15.916 C34.839,16.165 34.445,18.204 34.276,22.961 L35.11,22.515 Z" id="Fill-37" fill="#0CAC6A" sketch:type="MSShapeGroup" mask="url(#mask-26)"></path>
                    </g>
                    <g id="Group-42">
                        <mask id="mask-28" sketch:name="Clip 41" fill="white">
                            <use xlink:href="#path-27"></use>
                        </mask>
                        <g id="Clip-41"></g>
                        <path d="M34.778,32.249 L33.965,31.922 C33.967,34.918 33.988,38.425 34.025,42.503 C34.061,46.8 34.915,55.747 34.915,55.747 C34.915,51.236 34.877,46.793 34.84,42.497 C34.81,39.018 34.78,35.505 34.778,32.249" id="Fill-40" fill="#0CAC6A" sketch:type="MSShapeGroup" mask="url(#mask-28)"></path>
                    </g>
                    <g id="Group-45">
                        <mask id="mask-30" sketch:name="Clip 44" fill="white">
                            <use xlink:href="#path-29"></use>
                        </mask>
                        <g id="Clip-44"></g>
                        <path d="M38.644,30.734 L37.805,31.394 C37.728,33.867 37.742,36.183 37.859,38.346 C38.303,46.52 38.597,51.919 35.771,52.428 L35.916,53.232 C39.451,52.593 39.159,47.213 38.674,38.303 C38.55,36.023 38.546,33.486 38.644,30.734" id="Fill-43" fill="#0CAC6A" sketch:type="MSShapeGroup" mask="url(#mask-30)"></path>
                    </g>
                    <g id="Group-48">
                        <mask id="mask-32" sketch:name="Clip 47" fill="white">
                            <use xlink:href="#path-31"></use>
                        </mask>
                        <g id="Clip-47"></g>
                        <path d="M37.998,22.004 C38.202,18.064 38.531,13.854 38.962,9.458 L38.147,10.378 C37.734,14.584 37.418,18.484 37.213,22.108 L37.998,22.004 Z" id="Fill-46" fill="#0CAC6A" sketch:type="MSShapeGroup" mask="url(#mask-32)"></path>
                    </g>
                    <g id="Group-51">
                        <mask id="mask-34" sketch:name="Clip 50" fill="white">
                            <use xlink:href="#path-33"></use>
                        </mask>
                        <g id="Clip-50"></g>
                        <path d="M27.042,18.268 C27.647,18.268 28.137,21.059 28.137,24.501 C28.137,27.943 27.647,30.734 27.042,30.734 C26.437,30.734 25.947,27.943 25.947,24.501 C25.947,21.059 26.437,18.268 27.042,18.268" id="Fill-49" fill="#0CAC6A" sketch:type="MSShapeGroup" mask="url(#mask-34)"></path>
                    </g>
                    <g id="Group-54">
                        <mask id="mask-36" sketch:name="Clip 53" fill="white">
                            <use xlink:href="#path-35"></use>
                        </mask>
                        <g id="Clip-53"></g>
                        <path d="M22.604,30.06 C20,30.06 19.311,18.519 19.311,12.416 L20.127,12.416 C20.127,23.465 21.739,29.245 22.604,29.245 L22.604,30.06" id="Fill-52" fill="#0CAC6A" sketch:type="MSShapeGroup" mask="url(#mask-36)"></path>
                    </g>
                    <g id="Group-57">
                        <mask id="mask-38" sketch:name="Clip 56" fill="white">
                            <use xlink:href="#path-37"></use>
                        </mask>
                        <g id="Clip-56"></g>
                        <path d="M21.73,24.07 C21.73,24.07 22.906,19.18 22.906,11.977 L23.672,11.977 C23.672,16.726 21.73,24.07 21.73,24.07" id="Fill-55" fill="#0CAC6A" sketch:type="MSShapeGroup" mask="url(#mask-38)"></path>
                    </g>
                    <g id="Group-60">
                        <mask id="mask-40" sketch:name="Clip 59" fill="white">
                            <use xlink:href="#path-39"></use>
                        </mask>
                        <g id="Clip-59"></g>
                        <path d="M38.287,25.144 C37.823,25.144 37.429,25.106 37.127,25.046 C36.953,25.011 35.166,24.913 35.166,24.605 L35.494,24.071 L36.058,24.071 L37.079,24.401 C37.332,24.525 39.39,24.769 41.866,23.827 C44.002,23.014 46.937,21.099 48.796,16.588 L49.361,16.821 C46.52,23.717 41.106,25.144 38.287,25.144" id="Fill-58" fill="#0CAC6A" sketch:type="MSShapeGroup" mask="url(#mask-40)"></path>
                    </g>
                    <g id="Group-63">
                        <mask id="mask-42" sketch:name="Clip 62" fill="white">
                            <use xlink:href="#path-41"></use>
                        </mask>
                        <g id="Clip-62"></g>
                        <path d="M35.698,30.209 L35.086,30.209 C35.086,28.597 37.771,27.371 40.612,26.074 C43.042,24.963 45.557,23.815 46.261,22.498 L46.8,22.787 C46,24.287 43.389,25.478 40.865,26.631 C38.325,27.789 35.698,28.99 35.698,30.209" id="Fill-61" fill="#0CAC6A" sketch:type="MSShapeGroup" mask="url(#mask-42)"></path>
                    </g>
                </g>
                <g id="Group-74">
                    <g id="Group-67">
                        <mask id="mask-44" sketch:name="Clip 66" fill="white">
                            <use xlink:href="#path-43"></use>
                        </mask>
                        <g id="Clip-66"></g>
                        <path d="M30.6355,50.4707 C31.0995,50.9357 31.3665,51.5537 31.3895,52.2127 L31.3925,52.3147 L32.7975,51.7777 L32.8745,49.1217 C32.8925,48.4987 33.2825,47.9517 33.8665,47.7287 L36.3435,46.7847 L36.4135,44.1387 C36.4315,43.5147 36.8205,42.9677 37.4035,42.7437 L39.8795,41.8037 L39.9515,39.1577 C39.9665,38.5317 40.3545,37.9827 40.9425,37.7617 L43.4125,36.8267 L43.4845,34.1807 C43.5015,33.5527 43.8935,33.0027 44.4815,32.7817 L46.9415,31.8507 L47.0085,29.2177 C47.0275,28.5947 47.4145,28.0467 47.9945,27.8197 L50.4715,26.8817 L50.5435,24.2397 C50.5575,23.6127 50.9465,23.0637 51.5355,22.8437 L54.0035,21.9047 L54.0745,19.2657 C54.0865,18.6437 54.4745,18.0937 55.0625,17.8677 L57.5345,16.9307 L57.6015,14.2937 C57.6205,13.6647 58.0115,13.1157 58.5975,12.8937 L60.0545,12.3437 L55.8225,8.1097 L22.0465,41.8817 L30.6355,50.4707 Z M24.6035,58.2047 L26.3585,56.4477 L26.2675,53.3937 L19.1365,46.2657 L15.9005,49.5027 L24.6035,58.2047 Z M22.5965,66.4327 C21.9085,66.4327 21.2615,66.1647 20.7755,65.6787 C19.7715,64.6717 19.7715,63.0367 20.7745,62.0337 L20.9605,61.8477 L12.2585,53.1447 L12.0715,53.3317 C11.5845,53.8187 10.9375,54.0867 10.2495,54.0867 C9.5605,54.0867 8.9135,53.8187 8.4275,53.3317 C7.9405,52.8447 7.6725,52.1967 7.6725,51.5087 C7.6725,50.8207 7.9405,50.1737 8.4275,49.6867 L17.3155,40.7967 C17.7835,40.3297 18.4145,40.0737 19.0935,40.0737 C19.2225,40.0737 19.3515,40.0827 19.4805,40.1007 L54.7345,4.8477 C55.0255,4.5567 55.4115,4.3967 55.8225,4.3967 C56.2345,4.3967 56.6205,4.5567 56.9105,4.8487 L63.8835,11.8197 C64.1745,12.1087 64.3345,12.4947 64.3355,12.9057 C64.3355,13.3167 64.1755,13.7037 63.8835,13.9947 C63.7395,14.1387 63.5725,14.2477 63.3705,14.3257 C63.2935,14.3807 63.2175,14.4307 63.1185,14.4697 L60.6505,15.4027 L60.5785,18.0437 C60.5655,18.6627 60.1785,19.2117 59.5915,19.4377 L57.1185,20.3747 L57.0495,23.0157 C57.0345,23.6357 56.6355,24.1977 56.0555,24.4127 L53.5895,25.3507 L53.5165,27.9907 C53.4995,28.6147 53.1135,29.1637 52.5305,29.3877 L50.0575,30.3247 L49.9905,32.9617 C49.9745,33.5907 49.5835,34.1397 48.9955,34.3617 L46.5315,35.2897 L46.4585,37.9347 C46.4415,38.5607 46.0525,39.1097 45.4685,39.3337 L42.9975,40.2697 L42.9265,42.9137 C42.9075,43.5337 42.5205,44.0827 41.9395,44.3107 L39.4615,45.2527 L39.3885,47.8957 C39.3745,48.5237 38.9855,49.0737 38.3975,49.2947 L35.9195,50.2347 L35.8425,52.8957 C35.8235,53.5207 35.4345,54.0667 34.8515,54.2877 L31.4895,55.5717 L31.5465,57.4027 C31.5655,58.1147 31.2905,58.8067 30.7905,59.3047 L24.4195,65.6787 C23.9315,66.1647 23.2835,66.4327 22.5965,66.4327 L22.5965,66.4327 Z" id="Fill-65" fill="#F15853" sketch:type="MSShapeGroup" mask="url(#mask-44)"></path>
                    </g>
                    <g id="Group-70">
                        <mask id="mask-46" sketch:name="Clip 69" fill="white">
                            <use xlink:href="#path-45"></use>
                        </mask>
                        <g id="Clip-69"></g>
                        <path d="M16.6073,49.5029 L19.1373,46.9729 L25.7733,53.6069 L25.8523,56.2469 L24.6033,57.4969 L16.6073,49.5029 Z M22.7533,41.8819 L55.8233,8.8169 L59.1533,12.1489 L58.4223,12.4249 C57.6453,12.7199 57.1273,13.4459 57.1013,14.2749 L57.0433,16.5829 L54.8863,17.3999 C54.1043,17.6999 53.5913,18.4299 53.5753,19.2609 L53.5123,21.5569 L51.3553,22.3769 C50.5793,22.6659 50.0623,23.3949 50.0443,24.2319 L49.9813,26.5329 L47.8243,27.3499 C47.0443,27.6549 46.5323,28.3799 46.5093,29.2019 L46.4493,31.5019 L44.3043,32.3139 C43.5263,32.6069 43.0083,33.3339 42.9843,34.1669 L42.9213,36.4779 L40.7643,37.2949 C39.9853,37.5869 39.4703,38.3159 39.4523,39.1499 L39.3883,41.4549 L37.2273,42.2759 C36.4523,42.5729 35.9383,43.2989 35.9143,44.1249 L35.8523,46.4369 L33.6893,47.2619 C32.9143,47.5559 32.3993,48.2809 32.3753,49.1079 L32.3083,51.4299 L31.8153,51.6179 C31.6873,51.0519 31.4043,50.5339 30.9903,50.1179 L22.7533,41.8819 Z M55.8223,3.8969 C55.2783,3.8969 54.7663,4.1089 54.3813,4.4939 L19.2953,39.5799 C19.2273,39.5759 19.1603,39.5729 19.0933,39.5729 C18.2813,39.5729 17.5253,39.8819 16.9633,40.4419 L10.0813,47.3249 L8.0733,49.3339 C7.4923,49.9139 7.1723,50.6869 7.1723,51.5089 C7.1723,52.3299 7.4923,53.1029 8.0733,53.6849 C8.6543,54.2669 9.4273,54.5869 10.2493,54.5869 C10.9913,54.5869 11.6943,54.3259 12.2513,53.8459 L20.2593,61.8549 C19.2253,63.0619 19.2793,64.8869 20.4203,66.0309 C21.0023,66.6129 21.7743,66.9329 22.5963,66.9329 C23.4173,66.9329 24.1903,66.6129 24.7723,66.0329 L26.7803,64.0269 L31.1453,59.6579 C31.7403,59.0639 32.0693,58.2369 32.0453,57.3899 L32.0003,55.9119 L35.0313,54.7539 C35.8023,54.4629 36.3183,53.7379 36.3413,52.9099 L36.4103,50.5839 L38.5753,49.7619 C39.3533,49.4689 39.8693,48.7399 39.8883,47.9059 L39.9523,45.6009 L42.1123,44.7799 C42.8903,44.4749 43.4023,43.7499 43.4253,42.9279 L43.4883,40.6189 L45.6433,39.8019 C46.4203,39.5039 46.9353,38.7779 46.9583,37.9489 L47.0223,35.6389 L49.1713,34.8299 C49.9513,34.5359 50.4693,33.8079 50.4903,32.9749 L50.5483,30.6729 L52.7053,29.8559 C53.4833,29.5579 53.9963,28.8299 54.0153,27.9999 L54.0803,25.6999 L56.2373,24.8789 C56.9993,24.5959 57.5303,23.8499 57.5493,23.0269 L57.6103,20.7229 L59.7663,19.9059 C60.5483,19.6049 61.0613,18.8779 61.0783,18.0519 L61.1403,15.7509 L63.2913,14.9389 C63.4313,14.8839 63.5363,14.8199 63.6123,14.7679 C63.8543,14.6649 64.0603,14.5259 64.2403,14.3449 C64.6233,13.9629 64.8353,13.4509 64.8353,12.9049 C64.8353,12.3609 64.6223,11.8489 64.2353,11.4639 L57.2633,4.4939 C56.8803,4.1089 56.3683,3.8969 55.8223,3.8969 L55.8223,3.8969 Z M24.6043,58.9119 L26.8653,56.6479 L26.7613,53.1799 L19.1373,45.5589 L15.1933,49.5029 L24.6043,58.9119 L24.6043,58.9119 Z M30.9143,53.0329 L33.2883,52.1259 L33.3753,49.1359 C33.3873,48.7149 33.6513,48.3459 34.0453,48.1959 L36.8343,47.1329 L36.9143,44.1529 C36.9263,43.7319 37.1893,43.3619 37.5833,43.2109 L40.3703,42.1519 L40.4523,39.1709 C40.4613,38.7499 40.7273,38.3769 41.1183,38.2299 L43.9033,37.1759 L43.9843,34.1949 C43.9963,33.7719 44.2603,33.3989 44.6583,33.2489 L47.4323,32.1989 L47.5093,29.2299 C47.5213,28.8079 47.7853,28.4389 48.1783,28.2849 L50.9623,27.2309 L51.0443,24.2529 C51.0533,23.8309 51.3193,23.4579 51.7113,23.3119 L54.4943,22.2529 L54.5753,19.2799 C54.5833,18.8569 54.8503,18.4849 55.2413,18.3349 L58.0263,17.2799 L58.1013,14.3059 C58.1143,13.8839 58.3793,13.5109 58.7753,13.3609 L60.9563,12.5379 L55.8233,7.4029 L21.3393,41.8819 L30.2823,50.8239 C30.6573,51.1999 30.8723,51.7039 30.8903,52.2299 L30.9143,53.0329 L30.9143,53.0329 Z M55.8223,4.8969 C56.0883,4.8969 56.3543,4.9979 56.5563,5.2009 L63.5303,12.1729 C63.9373,12.5779 63.9373,13.2349 63.5303,13.6409 C63.4133,13.7589 63.2793,13.8309 63.1343,13.8799 C63.0703,13.9249 63.0123,13.9739 62.9383,14.0029 L60.1593,15.0529 L60.0793,18.0299 C60.0703,18.4479 59.8043,18.8199 59.4123,18.9709 L56.6283,20.0259 L56.5503,23.0029 C56.5403,23.4209 56.2753,23.7979 55.8823,23.9439 L53.0993,25.0029 L53.0163,27.9759 C53.0063,28.3979 52.7423,28.7709 52.3513,28.9209 L49.5663,29.9759 L49.4913,32.9489 C49.4803,33.3709 49.2143,33.7449 48.8193,33.8939 L46.0413,34.9399 L45.9593,37.9209 C45.9473,38.3439 45.6833,38.7159 45.2893,38.8669 L42.5073,39.9209 L42.4263,42.8999 C42.4143,43.3229 42.1503,43.6909 41.7573,43.8449 L38.9713,44.9039 L38.8893,47.8819 C38.8793,48.3039 38.6163,48.6779 38.2213,48.8269 L35.4303,49.8859 L35.3423,52.8809 C35.3303,53.3009 35.0693,53.6709 34.6753,53.8199 L31.2333,55.1339 C31.1963,55.1489 31.1593,55.1529 31.1213,55.1529 C31.0873,55.1529 31.0523,55.1489 31.0163,55.1489 C31.0033,55.1489 30.9893,55.1499 30.9763,55.1509 L31.0463,57.4179 C31.0623,57.9899 30.8433,58.5469 30.4383,58.9509 L26.0743,63.3189 L24.0663,65.3249 C23.6593,65.7299 23.1273,65.9329 22.5963,65.9329 C22.0643,65.9329 21.5333,65.7299 21.1283,65.3249 C20.3183,64.5129 20.3153,63.1999 21.1283,62.3869 L21.6683,61.8489 L12.2583,52.4379 L11.7183,52.9779 C11.3123,53.3839 10.7803,53.5869 10.2493,53.5869 C9.7173,53.5869 9.1863,53.3839 8.7813,52.9779 C7.9703,52.1659 7.9693,50.8509 8.7813,50.0409 L10.7883,48.0319 L17.6693,41.1499 C18.0643,40.7559 18.5763,40.5729 19.0933,40.5729 C19.2783,40.5729 19.4643,40.5969 19.6463,40.6429 L55.0883,5.2009 C55.2913,4.9979 55.5573,4.8969 55.8223,4.8969 L55.8223,4.8969 Z" id="Fill-68" fill="#333333" sketch:type="MSShapeGroup" mask="url(#mask-46)"></path>
                    </g>
                    <g id="Group-73">
                        <mask id="mask-48" sketch:name="Clip 72" fill="white">
                            <use xlink:href="#path-47"></use>
                        </mask>
                        <g id="Clip-72"></g>
                        <path d="M26.224,41.893 C26.631,42.298 27.286,42.298 27.692,41.893 L53.887,15.698 C54.293,15.292 54.293,14.635 53.887,14.229 C53.483,13.823 52.824,13.819 52.419,14.229 L26.224,40.424 C25.819,40.83 25.819,41.487 26.224,41.893" id="Fill-71" fill="#F15853" sketch:type="MSShapeGroup" mask="url(#mask-48)"></path>
                    </g>
                </g>
                <path d="M40.117,43.391 L40.117,32.617 L47.707,31.312" id="Stroke-75" stroke="#0CAC6A" stroke-width="0.5" sketch:type="MSShapeGroup"></path>
            </g>
        </g>
    </g>
</svg>