<?xml version="1.0" encoding="UTF-8" standalone="no"?>
<svg width="102px" height="102px" viewBox="0 0 102 102" version="1.1" xmlns="http://www.w3.org/2000/svg" xmlns:xlink="http://www.w3.org/1999/xlink" xmlns:sketch="http://www.bohemiancoding.com/sketch/ns">
    <!-- Generator: Sketch 3.4.4 (17249) - http://www.bohemiancoding.com/sketch -->
    <title>Profil</title>
    <desc>Created with Sketch.</desc>
    <defs></defs>
    <g id="Styleguide" stroke="none" stroke-width="1" fill="none" fill-rule="evenodd" sketch:type="MSPage">
        <g sketch:type="MSArtboardGroup" transform="translate(-1829.000000, -1088.000000)" id="Profil">
            <g sketch:type="MSLayerGroup" transform="translate(1830.000000, 1089.000000)">
                <rect id="Rectangle-16" stroke="#4A4A4A" stroke-width="2" fill="#FFFFFF" sketch:type="MSShapeGroup" x="0" y="0" width="100" height="100"></rect>
                <path d="M37.4226621,34.3300378 C36.4146621,34.1074973 35.4016966,33.8464162 34.3874897,33.5716595 C34.2708,34.6184703 34.208731,35.6901459 34.208731,36.779227 C34.208731,48.7827405 41.5130069,58.5123622 50.5241793,58.5123622 C59.5353517,58.5123622 66.8396276,48.7827405 66.8396276,36.779227 C66.8396276,35.4017135 66.7390759,34.0527946 66.5541103,32.7436595 C65.148869,33.2111189 63.7349379,33.6537135 62.3098345,34.0478216 C54.2334207,36.2806865 45.5673517,36.1290108 37.4226621,34.3300378" id="Fill-1" fill="#FFCE07" sketch:type="MSShapeGroup"></path>
                <path d="M37.4226621,34.3300378 C36.4146621,34.1074973 35.4016966,33.8464162 34.3874897,33.5716595 C34.2708,34.6184703 34.208731,35.6901459 34.208731,36.779227 C34.208731,48.7827405 41.5130069,58.5123622 50.5241793,58.5123622 C59.5353517,58.5123622 66.8396276,48.7827405 66.8396276,36.779227 C66.8396276,35.4017135 66.7390759,34.0527946 66.5541103,32.7436595 C65.148869,33.2111189 63.7349379,33.6537135 62.3098345,34.0478216 C54.2334207,36.2806865 45.5673517,36.1290108 37.4226621,34.3300378 L37.4226621,34.3300378 Z" id="Stroke-3" stroke="#000000" stroke-width="2" sketch:type="MSShapeGroup"></path>
                <path d="M25.4644552,27.1786541 C29.3611448,28.2018432 33.4428,29.1578973 37.4226621,29.9647622 C45.5673517,31.6145459 54.2334207,31.7537892 62.3085931,29.7061676 C64.4214207,29.1690865 66.5330069,28.6208162 68.6110759,27.9631405 C70.5786621,27.3365459 72.6765931,26.7074649 74.5361793,25.8471405 C76.3833517,24.9917892 78.4403172,24.3838432 80.0714897,23.1107622 C80.9429379,22.4307081 81.6691448,21.397573 81.3575586,20.2177351 C80.556869,17.2103297 74.7943862,17.7436811 72.3054207,17.7436811 C70.4148,17.7436811 68.1095586,17.7026541 66.5628,16.5538973 C64.3059724,14.8817351 64.5890069,10.7777892 63.3190759,8.43551892 C62.304869,6.56319459 60.9517655,4.63616757 58.4851448,4.51681622 C55.7950759,4.38751892 53.4885931,6.44881622 50.8059724,6.32324865 C48.2189379,6.2038973 46.4350759,4.0878973 43.7810069,4.04065405 C41.264731,3.99465405 39.228869,5.31000541 38.1811448,7.38497838 C35.9963172,11.7226541 36.1229379,14.3521135 34.1354897,15.9447081 C43.1379724,21.1302757 55.7205931,18.5617351 55.7205931,18.5617351 C43.4979724,23.2052486 34.3862483,18.7531946 31.6452828,17.109627 C31.1301103,17.2550865 30.5665241,17.3893568 29.9011448,17.5024919 C26.6251448,18.0594649 20.7459724,17.6230865 18.3761793,20.1903838 C17.6077655,21.0246 17.5121793,21.8202757 17.8324552,22.5488162 C19.0676276,25.3622757 22.760731,26.4712486 25.4644552,27.1786541" id="Fill-5" fill="#0CAC6A" sketch:type="MSShapeGroup"></path>
                <path d="M25.4644552,27.1786541 C29.3611448,28.2018432 33.4428,29.1578973 37.4226621,29.9647622 C45.5673517,31.6145459 54.2334207,31.7537892 62.3085931,29.7061676 C64.4214207,29.1690865 66.5330069,28.6208162 68.6110759,27.9631405 C70.5786621,27.3365459 72.6765931,26.7074649 74.5361793,25.8471405 C76.3833517,24.9917892 78.4403172,24.3838432 80.0714897,23.1107622 C80.9429379,22.4307081 81.6691448,21.397573 81.3575586,20.2177351 C80.556869,17.2103297 74.7943862,17.7436811 72.3054207,17.7436811 C70.4148,17.7436811 68.1095586,17.7026541 66.5628,16.5538973 C64.3059724,14.8817351 64.5890069,10.7777892 63.3190759,8.43551892 C62.304869,6.56319459 60.9517655,4.63616757 58.4851448,4.51681622 C55.7950759,4.38751892 53.4885931,6.44881622 50.8059724,6.32324865 C48.2189379,6.2038973 46.4350759,4.0878973 43.7810069,4.04065405 C41.264731,3.99465405 39.228869,5.31000541 38.1811448,7.38497838 C35.9963172,11.7226541 36.1229379,14.3521135 34.1354897,15.9447081 C43.1379724,21.1302757 55.7205931,18.5617351 55.7205931,18.5617351 C43.4979724,23.2052486 34.3862483,18.7531946 31.6452828,17.109627 C31.1301103,17.2550865 30.5665241,17.3893568 29.9011448,17.5024919 C26.6251448,18.0594649 20.7459724,17.6230865 18.3761793,20.1903838 C17.6077655,21.0246 17.5121793,21.8202757 17.8324552,22.5488162 C19.0676276,25.3622757 22.760731,26.4712486 25.4644552,27.1786541 L25.4644552,27.1786541 Z" id="Stroke-7" stroke="#000000" stroke-width="2" sketch:type="MSShapeGroup"></path>
                <path d="M50.5428,69.1608649 L37.6274897,61.8456216 C36.4295586,62.3876757 34.7661103,63.0080541 32.4062483,63.8895135 L32.4062483,80.1996216 L35.2080414,80.1996216 L35.2080414,82.8129189 L64.4325931,82.8129189 L64.4325931,80.1996216 L67.2331448,80.1996216 L67.2331448,63.4034054 L67.2803172,63.4034054 C65.2879034,62.6574595 63.8851448,62.1154054 62.8659724,61.6193514 L50.5428,69.1608649 Z" id="Fill-9" fill="#CAA1C9" sketch:type="MSShapeGroup"></path>
                <path d="M50.5428,69.1608649 L37.6274897,61.8456216 C36.4295586,62.3876757 34.7661103,63.0080541 32.4062483,63.8895135 L32.4062483,80.1996216 L35.2080414,80.1996216 L35.2080414,82.8129189 L64.4325931,82.8129189 L64.4325931,80.1996216 L67.2331448,80.1996216 L67.2331448,63.4034054 L67.2803172,63.4034054 C65.2879034,62.6574595 63.8851448,62.1154054 62.8659724,61.6193514 L50.5428,69.1608649 L50.5428,69.1608649 Z" id="Stroke-11" stroke="#000000" stroke-width="2" sketch:type="MSShapeGroup"></path>
                <path d="M15.3360414,95.9987568 L26.1695586,95.9987568 L26.1695586,80.1983784 L28.9713517,80.1983784 L28.9713517,65.2483784 C23.3876276,67.622973 18.5772828,70.4538378 18.5772828,70.4538378 C13.4590759,74.7654054 15.3360414,95.9987568 15.3360414,95.9987568" id="Fill-13" fill="#CAA1C9" sketch:type="MSShapeGroup"></path>
                <path d="M15.3360414,95.9987568 L26.1695586,95.9987568 L26.1695586,80.1983784 L28.9713517,80.1983784 L28.9713517,65.2483784 C23.3876276,67.622973 18.5772828,70.4538378 18.5772828,70.4538378 C13.4590759,74.7654054 15.3360414,95.9987568 15.3360414,95.9987568 L15.3360414,95.9987568 Z" id="Stroke-15" stroke="#000000" stroke-width="2" sketch:type="MSShapeGroup"></path>
                <path d="M82.4462483,70.4538378 C82.4462483,70.4538378 76.8228,67.1542703 70.6692828,64.6876757 L70.6692828,80.1996216 L73.4723172,80.1996216 L73.4723172,96 L85.6961793,96 C85.6949379,95.9987568 87.5756276,74.7654054 82.4462483,70.4538378" id="Fill-17" fill="#CAA1C9" sketch:type="MSShapeGroup"></path>
                <path d="M82.4462483,70.4538378 C82.4462483,70.4538378 76.8228,67.1542703 70.6692828,64.6876757 L70.6692828,80.1996216 L73.4723172,80.1996216 L73.4723172,96 L85.6961793,96 C85.6949379,95.9987568 87.5756276,74.7654054 82.4462483,70.4538378 L82.4462483,70.4538378 Z" id="Stroke-19" stroke="#000000" stroke-width="2" sketch:type="MSShapeGroup"></path>
                <path d="M30.6881793,82.8116757 C31.3063862,82.8116757 31.8066621,83.3127027 31.8066621,83.9318378 C31.8066621,84.550973 31.3063862,85.052 30.6881793,85.052 C30.0699724,85.052 29.5696966,84.550973 29.5696966,83.9318378 C29.5696966,83.3127027 30.0699724,82.8116757 30.6881793,82.8116757" id="Fill-21" fill="#000000" sketch:type="MSShapeGroup"></path>
                <path d="M68.9499724,82.8116757 C69.5681793,82.8116757 70.0684552,83.3127027 70.0684552,83.9318378 C70.0684552,84.550973 69.5681793,85.052 68.9499724,85.052 C68.3317655,85.052 67.8314897,84.550973 67.8314897,83.9318378 C67.8314897,83.3127027 68.3317655,82.8116757 68.9499724,82.8116757" id="Fill-23" fill="#000000" sketch:type="MSShapeGroup"></path>
            </g>
        </g>
    </g>
</svg>