<?xml version="1.0" encoding="UTF-8" standalone="no"?>
<svg width="194px" height="194px" viewBox="0 0 194 194" version="1.1" xmlns="http://www.w3.org/2000/svg" xmlns:xlink="http://www.w3.org/1999/xlink" xmlns:sketch="http://www.bohemiancoding.com/sketch/ns">
    <!-- Generator: Sketch 3.5.1 (25234) - http://www.bohemiancoding.com/sketch -->
    <title>eintstellungen</title>
    <desc>Created with Sketch.</desc>
    <defs>
        <path id="path-1" d="M0,0.0197703745 L192.736438,0.0197703745 L192.736438,192.761151 L0,192.761151"></path>
    </defs>
    <g id="Page-1" stroke="none" stroke-width="1" fill="none" fill-rule="evenodd" sketch:type="MSPage">
        <g id="eintstellungen" sketch:type="MSLayerGroup" transform="translate(0.529705, 0.631653)">
            <g id="einstellungen">
                <g id="Group-3">
                    <mask id="mask-2" sketch:name="Clip 2" fill="white">
                        <use xlink:href="#path-1"></use>
                    </mask>
                    <g id="Clip-2"></g>
                    <path d="M104.051481,0.0197703745 L87.9064988,0.0197703745 C80.0972009,0.0197703745 73.4815393,5.60737246 72.1791659,13.305462 L70.4319591,23.6082984 C67.70859,24.5795181 65.0371181,25.7064294 62.4373139,26.976676 L54.195539,21.1024035 C51.4746412,19.1649068 48.2743119,18.1393186 44.9380612,18.1393186 C40.6800168,18.1393186 36.6740446,19.7975587 33.6590625,22.8100695 L22.2416713,34.2299321 C16.7183229,39.7508092 15.9942329,48.3781063 20.5142348,54.7441669 L26.5664407,63.2676696 C25.3233784,65.8823016 24.2285939,68.5710726 23.2895011,71.3043268 L13.3128759,72.9773948 C5.59995857,74.2674117 0,80.8855446 0,88.707199 L0,104.852181 C0,112.661479 5.58760208,119.27714 13.2856916,120.579514 L23.588528,122.326721 C24.5597477,125.052561 25.686659,127.726504 26.9569056,130.323837 L21.0826331,138.563141 C16.5428608,144.934144 17.2620082,153.568855 22.7927705,159.099617 L34.2101617,170.517009 C37.2226725,173.531991 41.2286447,175.190231 45.4916317,175.190231 C48.8204685,175.190231 52.0133839,174.169585 54.7268678,172.241974 L63.2454279,166.19471 C65.719196,167.371048 68.2596892,168.416406 70.8421943,169.320901 L72.5424465,179.448275 C73.8324635,187.161193 80.4505963,192.761151 88.2722507,192.761151 L104.417233,192.761151 C112.224059,192.761151 118.83725,187.173549 120.144566,179.477931 L121.862117,169.330786 C124.590429,168.376865 127.274257,167.264782 129.883946,166.004421 L138.249286,171.970131 C140.965241,173.905156 144.165571,174.930745 147.501821,174.933216 C151.769751,174.933216 155.775723,173.274976 158.788234,170.259994 L170.203154,158.842602 C175.726502,153.324197 176.453063,144.694428 171.93059,138.328368 L165.967351,129.933372 C167.227712,127.321212 168.342267,124.642326 169.296188,121.916485 L179.423562,120.218705 C187.13648,118.923745 192.736438,112.308083 192.736438,104.486429 L192.736438,88.341447 C192.736438,80.5321491 187.148836,73.9164876 179.450746,72.6141141 L169.306073,70.8940916 C168.352153,68.1657799 167.240069,65.4844228 165.979708,62.8722621 L171.945418,54.5069224 C176.48519,48.1359192 175.766043,39.5012082 170.235281,33.9704459 L158.817889,22.5530547 C155.805379,19.5405439 151.799406,17.8798324 147.536419,17.8798324 C144.207583,17.8798324 141.014667,18.900478 138.301183,20.8280895 L129.908659,26.7888574 C127.160577,25.461771 124.333414,24.3002615 121.454353,23.3092715 L119.781285,13.3326463 C118.491268,5.61972894 111.873135,0.0197703745 104.051481,0.0197703745 M104.051481,4.96236399 C109.448793,4.96236399 114.01575,8.8250009 114.907888,14.1506455 L117.077686,27.0952982 C121.664413,28.4643966 126.102862,30.290685 130.336194,32.546979 L141.165416,24.8563033 C143.038659,23.5242743 145.240585,22.822426 147.536419,22.822426 C150.479734,22.822426 153.245115,23.9691077 155.323476,26.0474684 L166.740867,37.4648596 C170.556549,41.2805419 171.05328,47.2413098 167.919676,51.6377468 L160.219115,62.4397852 C162.406212,66.5446092 164.188017,70.839723 165.539817,75.2682869 L178.625333,77.4875114 C183.938621,78.3870635 187.793845,82.9515487 187.793845,88.341447 L187.793845,104.486429 C187.793845,109.883741 183.928736,114.450698 178.605563,115.342836 L165.532403,117.534876 C164.180603,121.96344 162.396327,126.258554 160.20923,130.360907 L167.899905,141.190129 C171.021153,145.584095 170.51948,151.53992 166.70874,155.348189 L155.29382,166.76558 C153.212988,168.846412 150.447607,169.990622 147.506764,169.990622 C145.203515,169.988151 142.994176,169.28136 141.118462,167.944389 L130.316423,160.243828 C126.214071,162.430925 121.918957,164.21273 117.487922,165.56453 L115.271168,178.650046 C114.369145,183.963334 109.80466,187.818557 104.417233,187.818557 L88.2722507,187.818557 C82.8749385,187.818557 78.307982,183.955921 77.4158438,178.630276 L75.2238036,165.557116 C70.9385749,164.247329 66.7793824,162.537191 62.8005945,160.446474 L51.8626348,168.21376 C49.9893918,169.545789 47.7874664,170.247637 45.4916317,170.247637 C42.5483172,170.247637 39.782936,169.100955 37.7045754,167.022595 L26.2871842,155.605204 C22.4715019,151.789521 21.9747712,145.828753 25.1083756,141.432316 L32.7298549,130.739015 C30.5205156,126.656433 28.7164689,122.373675 27.335014,117.947583 L14.1111048,115.706117 C8.79781664,114.806565 4.94259362,110.239608 4.94259362,104.852181 L4.94259362,88.707199 C4.94259362,83.3098867 8.80523053,78.7429302 14.1308752,77.8507921 L27.0755278,75.6809935 C28.4001429,71.2376018 30.1547637,66.9326028 32.3122058,62.8228362 L24.5449199,51.8824052 C21.423672,47.4884395 21.9253453,41.5350855 25.736085,37.7243458 L37.1510049,26.3069545 C39.2318368,24.2285939 41.997218,23.0819122 44.9380612,23.0819122 C47.2413098,23.0819122 49.4506491,23.7911744 51.3263634,25.128146 L62.0196647,32.7496253 C66.102247,30.5427573 70.3850044,28.7362393 74.811097,27.3547844 L77.0525632,14.1308752 C77.9521152,8.81758701 82.5166004,4.96236399 87.9064988,4.96236399 L104.051481,4.96236399" id="Fill-1" fill="#333333" sketch:type="MSShapeGroup" mask="url(#mask-2)"></path>
                </g>
                <path d="M96.3694547,125.963234 C80.0613671,125.963234 66.7954458,112.697313 66.7954458,96.3892251 C66.7954458,80.0811374 80.0638384,66.8152162 96.3694547,66.8152162 C112.677542,66.8152162 125.943464,80.0811374 125.943464,96.3892251 C125.943464,112.697313 112.677542,125.963234 96.3694547,125.963234 L96.3694547,125.963234 Z M97.1083725,57.1425605 C75.4672263,57.1425605 57.8617078,74.7480789 57.8617078,96.3867538 C57.8617078,118.0279 75.4672263,135.630947 97.1083725,135.630947 C118.747047,135.630947 136.352566,118.025429 136.352566,96.3867538 C136.352566,74.7480789 118.747047,57.1425605 97.1083725,57.1425605 L97.1083725,57.1425605 Z M178.127367,104.485193 C178.127367,105.140087 177.657821,105.696129 177.010341,105.804866 L160.912313,108.503522 C159.026714,108.819848 157.504395,110.216131 157.027435,112.067132 C155.571841,117.718988 153.32049,123.148427 150.330221,128.2047 C149.359001,129.848113 149.445496,131.909174 150.550166,133.46362 L160.012761,146.788852 C160.393341,147.322652 160.331559,148.046742 159.869426,148.508875 L148.452035,159.926266 C148.110996,160.267305 147.713117,160.319202 147.505528,160.319202 C147.310296,160.319202 147.018683,160.274719 146.732012,160.069601 L133.431493,150.589707 C131.874576,149.480094 129.811043,149.391128 128.165159,150.364819 C123.108886,153.350145 117.676976,155.603968 112.02512,157.05709 C110.17659,157.531579 108.782779,159.051427 108.463981,160.932084 L105.73567,177.035054 C105.626933,177.680062 105.070891,178.149609 104.415997,178.149609 L88.2710151,178.149609 C87.6161214,178.149609 87.0600796,177.680062 86.9513426,177.032583 L84.2526865,160.937026 C83.9363605,159.051427 82.5400778,157.531579 80.6890765,157.054619 C75.1706707,155.633623 69.8598538,153.451468 64.907375,150.567465 C64.1536295,150.127574 63.3133886,149.9101 62.475619,149.9101 C61.4920428,149.9101 60.510938,150.209127 59.6756397,150.802238 L46.2589693,160.331559 C45.9698276,160.536676 45.6806859,160.578688 45.4854534,160.578688 C45.2778645,160.578688 44.8799857,160.526791 44.5389467,160.185752 L33.1215555,148.768361 C32.6569517,148.303757 32.5976406,147.579667 32.9782203,147.045867 L42.3938611,133.839257 C43.5108873,132.272455 43.5924401,130.194094 42.6039213,128.545739 C39.5914105,123.519121 37.3029897,118.10451 35.8103264,112.452654 C35.3259522,110.618952 33.8135186,109.237497 31.9427469,108.921171 L15.7211546,106.170618 C15.0761462,106.061881 14.6090711,105.505839 14.6090711,104.853417 L14.6090711,88.7084346 C14.6090711,88.0535409 15.0786175,87.4974992 15.7260972,87.3887621 L31.7178589,84.7074051 C33.6133435,84.3886078 35.140605,82.9774973 35.6101514,81.1141395 C37.031147,75.4425133 39.245429,69.9982465 42.1936861,64.9345593 C43.1476066,63.2960895 43.0561687,61.2498558 41.9564416,59.702824 L32.4295924,46.2836823 C32.051484,45.7498822 32.1107951,45.0282635 32.5729276,44.5636597 L43.9903188,33.1462684 C44.3313578,32.8052295 44.7292366,32.7533323 44.9368255,32.7533323 C45.1295867,32.7533323 45.423671,32.7953443 45.7103414,33.0029332 L58.9169516,42.4185741 C60.4837537,43.5356002 62.5621144,43.617153 64.2104693,42.6286343 C69.237087,39.6136522 74.6516984,37.3277026 80.3035542,35.8325681 C82.1372564,35.3481939 83.5187113,33.8357603 83.8350373,31.9649886 L86.5855906,15.7433963 C86.6943277,15.0983879 87.2478982,14.6313128 87.9027918,14.6313128 L104.047774,14.6313128 C104.705139,14.6313128 105.258709,15.1008592 105.367446,15.7483389 L108.048803,31.7401006 C108.365129,33.6355852 109.77624,35.1628466 111.642069,35.632393 C117.447145,37.0879869 123.010034,39.3739364 128.177516,42.425988 C129.818457,43.3972076 131.88199,43.3107122 133.436436,42.2060426 L146.761668,32.7434471 C147.05081,32.5383294 147.339951,32.4963174 147.535184,32.4963174 C147.742773,32.4963174 148.140652,32.5482146 148.484162,32.8867823 L159.901553,44.3041735 C160.366157,44.7687773 160.425468,45.4928673 160.044888,46.0266674 L150.564994,59.3271868 C149.455381,60.8841038 149.366415,62.9476367 150.340106,64.5935203 C153.327904,69.6497936 155.579255,75.081704 157.032377,80.7335598 C157.509338,82.5820898 159.026714,83.9759012 160.907371,84.2946985 L177.010341,87.0254815 C177.655349,87.1342185 178.124896,87.6902603 178.124896,88.3426827 L178.124896,104.485193 L178.127367,104.485193 Z M178.62904,77.4862758 L165.543524,75.2670513 C164.191724,70.8384874 162.409919,66.5433735 160.222822,62.4385495 L167.923383,51.6365112 C171.056987,47.2400741 170.560256,41.2793062 166.744574,37.463624 L155.327183,26.0462327 C153.248822,23.9678721 150.483441,22.8211904 147.540126,22.8211904 C145.244292,22.8211904 143.042366,23.5230387 141.169123,24.8550677 L130.339901,32.5457433 C126.106569,30.2894493 121.66812,28.463161 117.081393,27.0940626 L114.911595,14.1494099 C114.019457,8.82376526 109.4525,4.96112834 104.055188,4.96112834 L87.9102057,4.96112834 C82.5203074,4.96112834 77.9558222,8.81635137 77.0562701,14.1296395 L74.8148039,27.3535487 C70.3887114,28.7350036 66.105954,30.5415216 62.0233717,32.7483897 L51.3300704,25.1269103 C49.4543561,23.7899387 47.2450167,23.0806765 44.9417681,23.0806765 C42.0009249,23.0806765 39.2355438,24.2273583 37.1547119,26.3057189 L25.7397919,37.7231101 C21.9290522,41.5338498 21.427379,47.4872038 24.5486269,51.8811696 L32.3159127,62.8216005 C30.1584706,66.9313671 28.4038499,71.2363662 27.0792348,75.6797578 L14.1345821,77.8495564 C8.80893748,78.7416946 4.94630056,83.3086511 4.94630056,88.7059633 L4.94630056,104.850945 C4.94630056,110.238372 8.80152358,114.805329 14.1148117,115.704881 L27.3387209,117.946347 C28.7201759,122.37244 30.5242225,126.655197 32.7335619,130.737779 L25.1120825,141.431081 C21.9784782,145.827518 22.4752088,151.788286 26.2908911,155.603968 L37.7082824,167.021359 C39.786643,169.09972 42.5520241,170.246402 45.4953386,170.246402 C47.7911733,170.246402 49.9930988,169.544553 51.8663418,168.212524 L62.8043015,160.445238 C66.7830893,162.535955 70.9422818,164.246093 75.2275105,165.55588 L77.4195508,178.62904 C78.3116889,183.954685 82.8786454,187.817322 88.2759577,187.817322 L104.42094,187.817322 C109.808367,187.817322 114.372852,183.962099 115.274875,178.648811 L117.491629,165.563294 C121.922664,164.211495 126.217778,162.42969 130.32013,160.242592 L141.122169,167.943153 C142.997883,169.280124 145.207222,169.986915 147.510471,169.989387 C150.451314,169.989387 153.216695,168.845176 155.297527,166.764344 L166.712447,155.346953 C170.523187,151.538685 171.02486,145.582859 167.903612,141.188894 L160.212936,130.359671 C162.400034,126.257318 164.18431,121.962204 165.53611,117.533641 L178.60927,115.3416 C183.932443,114.449462 187.797551,109.882506 187.797551,104.485193 L187.797551,88.3402114 C187.797551,82.950313 183.942328,78.3858278 178.62904,77.4862758 L178.62904,77.4862758 Z" id="Fill-4" fill="#FFCE07" sketch:type="MSShapeGroup"></path>
                <g id="Group-10" transform="translate(54.368530, 51.897233)" sketch:type="MSShapeGroup">
                    <path d="M42.7395955,82.4978186 C20.8266067,82.4978186 2.99867155,64.6723547 2.99867155,42.7593659 C2.99867155,20.8463771 20.8266067,3.02091322 42.7395955,3.02091322 C64.650113,3.02091322 82.4780482,20.8463771 82.4780482,42.7593659 C82.4780482,64.6723547 64.650113,82.4978186 42.7395955,82.4978186" id="Fill-6" fill="#0CAC6A"></path>
                    <path d="M42.7398427,1.78452343 C20.1447759,1.78452343 1.76327027,20.1660291 1.76327027,42.7586245 C1.76327027,65.3536912 20.1447759,83.7351969 42.7398427,83.7351969 C65.3324381,83.7351969 83.7139438,65.3512199 83.7139438,42.7586245 C83.7139438,20.1660291 65.3324381,1.78452343 42.7398427,1.78452343 M42.7398427,4.25582023 C63.9707535,4.25582023 81.2426469,21.5277136 81.2426469,42.7586245 C81.2426469,63.9895354 63.9707535,81.2639001 42.7398427,81.2639001 C21.5064605,81.2639001 4.23456708,63.9895354 4.23456708,42.7586245 C4.23456708,21.5277136 21.5064605,4.25582023 42.7398427,4.25582023" id="Fill-8" fill="#333333"></path>
                </g>
                <path d="M96.3682191,123.489219 C80.0601314,123.489219 66.7942101,110.223297 66.7942101,93.9176811 C66.7942101,77.6095935 80.0626027,64.3436722 96.3682191,64.3436722 C112.676307,64.3436722 125.939757,77.6095935 125.939757,93.9176811 C125.939757,110.223297 112.676307,123.489219 96.3682191,123.489219" id="Fill-11" fill="#FFFFFF" sketch:type="MSShapeGroup"></path>
            </g>
        </g>
    </g>
</svg>