<?xml version="1.0" encoding="UTF-8" standalone="no"?>
<svg width="194px" height="153px" viewBox="0 0 194 153" version="1.1" xmlns="http://www.w3.org/2000/svg" xmlns:xlink="http://www.w3.org/1999/xlink" xmlns:sketch="http://www.bohemiancoding.com/sketch/ns">
    <!-- Generator: Sketch 3.5.1 (25234) - http://www.bohemiancoding.com/sketch -->
    <title>foto</title>
    <desc>Created with Sketch.</desc>
    <defs>
        <path id="path-1" d="M0,0.729415436 L193.149253,0.729415436 L193.149253,153.220402 L0,153.220402"></path>
    </defs>
    <g id="Page-1" stroke="none" stroke-width="1" fill="none" fill-rule="evenodd" sketch:type="MSPage">
        <g id="foto" sketch:type="MSLayerGroup" transform="translate(0.294435, -0.235087)">
            <g id="Page-1">
                <g id="Group-5" sketch:type="MSShapeGroup">
                    <path d="M179.298477,132.425588 C179.298477,136.258256 176.213375,139.359351 172.413851,139.359351 C172.413851,139.348561 166.586913,139.348561 162.015041,139.348561 L20.6731854,139.348561 C16.8607891,139.348561 13.7778328,136.247466 13.7778328,132.425588 L13.7778328,49.2506481 C13.7885598,45.4179801 16.8715162,42.3168854 20.6731854,42.3168854 C20.6731854,42.3276756 172.415996,42.3276756 172.415996,42.3276756 C176.226247,42.3276756 179.311349,45.4244542 179.311349,49.2506481 C179.309204,49.2506481 179.309204,132.425588 179.298477,132.425588 L179.298477,132.425588 Z M78.8610365,14.5926248 L114.223854,14.5926248 L116.684641,28.4515181 L76.423849,28.4515181 L78.8610365,14.5926248 Z M172.413851,28.4515181 L130.679161,28.4515181 L126.441973,4.57287369 C126.070817,2.45368447 124.028385,0.729415436 121.880828,0.729415436 L71.1868995,0.729415436 C69.0393426,0.729415436 66.9947654,2.45368447 66.6257546,4.58366386 L62.4186026,28.4536761 L20.6731854,28.4536761 C9.2595961,28.4515181 0,37.7655921 0,49.2506481 L0,132.425588 C0,143.90417 9.2595961,153.220402 20.6731854,153.220402 L172.415996,153.220402 C183.829586,153.220402 193.089182,143.906328 193.089182,132.425588 L193.089182,49.2506481 C193.087036,37.7655921 183.829586,28.4515181 172.413851,28.4515181 L172.413851,28.4515181 Z" id="Fill-1" fill="#03BAE1"></path>
                    <path d="M96.6035897,118.057399 C81.3840404,118.057399 69.041488,105.65302 69.041488,90.3374543 C69.041488,75.013256 81.3840404,62.5980874 96.6035897,62.5980874 C111.829575,62.5980874 124.169982,75.013256 124.169982,90.3374543 C124.169982,105.65302 111.829575,118.057399 96.6035897,118.057399 M96.6035897,48.7413522 C73.7656841,48.7413522 55.2550736,67.3630261 55.2550736,90.3396123 C55.2550736,113.301092 73.7678295,131.927082 96.6035897,131.927082 C119.443641,131.927082 137.947815,113.298934 137.947815,90.3396123 C137.94996,67.3630261 119.445786,48.7413522 96.6035897,48.7413522" id="Fill-3" fill="#F15853"></path>
                </g>
                <g id="Group-8">
                    <mask id="mask-2" sketch:name="Clip 7" fill="white">
                        <use xlink:href="#path-1"></use>
                    </mask>
                    <g id="Clip-7"></g>
                    <path d="M121.941972,0.729415436 L71.2480437,0.729415436 C69.1004868,0.729415436 67.0559096,2.45368447 66.6868988,4.58366386 L62.4797469,28.4536761 L20.7343296,28.4536761 L20.7300388,28.4536761 C9.31859492,28.4536761 0.0611442282,37.7655921 0.0611442282,49.2506481 L0.0611442282,132.425588 C0.0611442282,143.90417 9.32074033,153.220402 20.7343296,153.220402 L172.477141,153.220402 C183.89073,153.220402 193.150326,143.906328 193.150326,132.425588 L193.150326,49.2506481 C193.148181,37.7655921 183.89073,28.4515181 172.474995,28.4515181 L130.740305,28.4515181 L126.503117,4.57287369 C126.131961,2.45368447 124.089529,0.729415436 121.941972,0.729415436 M120.431603,7.20351693 L124.404905,29.5888019 L125.351031,34.9256196 L130.740305,34.9256196 L172.474995,34.9256196 C180.325056,34.9256196 186.711946,41.3522443 186.714091,49.2506481 L186.714091,132.425588 C186.714091,140.321834 180.327201,146.746301 172.477141,146.746301 L20.7343296,146.746301 C12.8842689,146.746301 6.49737877,140.321834 6.49737877,132.425588 L6.49737877,49.2506481 C6.49737877,45.4244542 7.97771272,41.8291698 10.6680588,39.1229954 C13.3562594,36.4168209 16.930515,34.9277776 20.7343296,34.9277776 L62.4797469,34.9277776 L67.8754568,34.9277776 L68.8172925,29.5844858 L72.7627042,7.20351693 L120.431603,7.20351693" id="Fill-6" fill="#333333" sketch:type="MSShapeGroup" mask="url(#mask-2)"></path>
                </g>
            </g>
        </g>
    </g>
</svg>