<?xml version="1.0" encoding="UTF-8" standalone="no"?>
<svg width="165px" height="118px" viewBox="0 0 165 118" version="1.1" xmlns="http://www.w3.org/2000/svg" xmlns:xlink="http://www.w3.org/1999/xlink" xmlns:sketch="http://www.bohemiancoding.com/sketch/ns">
    <!-- Generator: Sketch 3.5.1 (25234) - http://www.bohemiancoding.com/sketch -->
    <title>giessen</title>
    <desc>Created with Sketch.</desc>
    <defs></defs>
    <g id="Page-1" stroke="none" stroke-width="1" fill="none" fill-rule="evenodd" sketch:type="MSPage">
        <g id="giessen" sketch:type="MSLayerGroup" transform="translate(1.357486, 0.402784)">
            <g id="Page-1" sketch:type="MSShapeGroup">
                <path d="M138.937789,67.7401559 C138.630113,44.5413082 140.791262,33.324445 137.857215,32.55748 C133.377372,30.8668384 94.1467704,32.55748 94.1467704,32.55748 L81.7896685,26.1046495 C81.7896685,26.1046495 79.626666,24.4140079 81.7896685,21.6485091 C83.952671,18.8830102 93.6834022,7.66799073 119.785857,10.894406 C145.888312,14.1208213 154.230792,32.4044558 154.38463,41.7758094 C154.538468,51.147163 151.1392,62.9779669 148.668521,67.7401559 C146.197842,72.5023448 139.245466,90.9390036 138.937789,67.7401559 M161.720675,39.2389251 C161.257307,32.5556364 158.013729,2.59606592 114.920491,1.96184486 C71.8272532,1.3276238 71.3638851,29.3292211 67.2973662,31.4310002 C63.2308473,33.5327793 63.523696,34.1670003 63.523696,34.1670003 L63.523696,55.1386996 L51.9024227,60.9001555 L26.8805425,19.8785898 C26.8805425,19.8785898 27.4662399,13.5326919 28.811861,9.12448677 C29.3401007,7.39697185 31.0490024,7.57580744 31.28254,6.12852973 C31.5364657,4.55957007 30.5189092,3.37962391 30.3558037,2.7859635 C29.6607514,0.250922925 17.7280948,2.74724652 11.1260254,6.51201223 C8.98897145,7.73067537 1.07093647,15.1993658 0.931926027,18.4958404 C0.718776677,23.5659216 7.18739607,21.2613392 7.18739607,21.2613392 L18.3082317,25.4095874 L64.4133628,102.76612 C64.4133628,102.76612 60.4209828,109.961948 67.7978038,113.011371 C75.0949254,116.025765 87.3760349,114.74073 99.4236069,115.085496 C117.089054,115.592504 134.200313,114.689107 137.393847,113.444633 C142.72258,111.370509 139.015635,101.691263 139.015635,101.691263 C139.015635,101.691263 138.146357,100.25136 147.124578,88.0942271 C163.980058,65.2733309 162.184043,45.9222139 161.720675,39.2389251" id="Fill-1" fill="#03BAE1"></path>
                <path d="M138.937789,67.7401559 C138.630113,44.5413082 140.791262,33.324445 137.857215,32.55748 C133.377372,30.8668384 94.1467704,32.55748 94.1467704,32.55748 L81.7896685,26.1046495 C81.7896685,26.1046495 79.626666,24.4140079 81.7896685,21.6485091 C83.952671,18.8830102 93.6834022,7.66799073 119.785857,10.894406 C145.888312,14.1208213 154.230792,32.4044558 154.38463,41.7758094 C154.538468,51.147163 151.1392,62.9779669 148.668521,67.7401559 C146.197842,72.5023448 139.245466,90.9390036 138.937789,67.7401559 L138.937789,67.7401559 Z M161.720675,39.2389251 C161.257307,32.5556364 158.013729,2.59606592 114.920491,1.96184486 C71.8272532,1.3276238 71.3638851,29.3292211 67.2973662,31.4310002 C63.2308473,33.5327793 63.523696,34.1670003 63.523696,34.1670003 L63.523696,55.1386996 L51.9024227,60.9001555 L26.8805425,19.8785898 C26.8805425,19.8785898 27.4662399,13.5326919 28.811861,9.12448677 C29.3401007,7.39697185 31.0490024,7.57580744 31.28254,6.12852973 C31.5364657,4.55957007 30.5189092,3.37962391 30.3558037,2.7859635 C29.6607514,0.250922925 17.7280948,2.74724652 11.1260254,6.51201223 C8.98897145,7.73067537 1.07093647,15.1993658 0.931926027,18.4958404 C0.718776677,23.5659216 7.18739607,21.2613392 7.18739607,21.2613392 L18.3082317,25.4095874 L64.4133628,102.76612 C64.4133628,102.76612 60.4209828,109.961948 67.7978038,113.011371 C75.0949254,116.025765 87.3760349,114.74073 99.4236069,115.085496 C117.089054,115.592504 134.200313,114.689107 137.393847,113.444633 C142.72258,111.370509 139.015635,101.691263 139.015635,101.691263 C139.015635,101.691263 138.146357,100.25136 147.124578,88.0942271 C163.980058,65.2733309 162.184043,45.9222139 161.720675,39.2389251 L161.720675,39.2389251 Z" id="Stroke-3" stroke="#333333" stroke-width="3"></path>
            </g>
        </g>
    </g>
</svg>