<?xml version="1.0" encoding="UTF-8" standalone="no"?>
<svg width="119px" height="161px" viewBox="0 0 119 161" version="1.1" xmlns="http://www.w3.org/2000/svg" xmlns:xlink="http://www.w3.org/1999/xlink" xmlns:sketch="http://www.bohemiancoding.com/sketch/ns">
    <!-- Generator: Sketch 3.5.1 (25234) - http://www.bohemiancoding.com/sketch -->
    <title>löschen</title>
    <desc>Created with Sketch.</desc>
    <defs>
        <path id="path-1" d="M0,0 L123.56484,0 L123.56484,165.576886 L0,165.576886 L0,0 Z"></path>
    </defs>
    <g id="Page-1" stroke="none" stroke-width="1" fill="none" fill-rule="evenodd" sketch:type="MSPage">
        <g id="löschen" sketch:type="MSLayerGroup" transform="translate(-2.120212, -2.310184)">
            <g id="Page-1">
                <path d="M37.0696993,160.635034 C27.3698593,160.635034 22.4989333,160.635034 20.9939135,145.560123 L9.64077598,37.0701935 L4.94284075,37.0701935 L4.94284075,24.7137095 C4.94284075,19.9317502 7.57477185,17.2998191 12.3567312,17.2998191 L42.0122929,17.2998191 L42.0122929,14.8285222 C42.0122929,10.0663333 45.8774011,4.94333501 54.3687769,4.94333501 L69.1965578,4.94333501 C77.6854623,4.94333501 81.5530418,10.0663333 81.5530418,14.8285222 L81.5530418,17.2998191 L111.208604,17.2998191 C115.988092,17.2998191 118.622494,19.9317502 118.622494,24.7137095 L118.622494,37.0701935 L113.924559,37.0701935 L102.571421,145.550238 C101.06393,160.635034 96.1954754,160.635034 86.4956354,160.635034 L37.0696993,160.635034 Z" id="Fill-1" fill="#F15853" sketch:type="MSShapeGroup"></path>
                <path d="M69.1963106,2.47129681 L54.3685298,2.47129681 C44.4833426,2.47129681 39.5407489,8.64953883 39.5407489,14.8277809 L12.356484,14.8277809 C6.17824202,14.8277809 2.47129681,18.5347261 2.47129681,24.7129681 L2.47129681,39.5407489 L7.41389043,39.5407489 L18.5347261,145.806512 C20.2646338,163.105589 27.1842649,163.105589 37.0694521,163.105589 L86.4953883,163.105589 C96.3805755,163.105589 103.300207,163.105589 105.030114,145.806512 L116.15095,39.5407489 L121.093544,39.5407489 L121.093544,24.7129681 C121.093544,18.5347261 117.386598,14.8277809 111.208356,14.8277809 L84.0240915,14.8277809 C84.0240915,8.64953883 79.0814979,2.47129681 69.1963106,2.47129681 M69.1963106,7.41389043 C76.0245037,7.41389043 79.0814979,11.1381347 79.0814979,14.8277809 L79.0814979,19.7703745 L84.0240915,19.7703745 L111.208356,19.7703745 C114.673115,19.7703745 116.15095,21.24821 116.15095,24.7129681 L116.15095,34.5981553 L111.697673,34.5981553 L111.235541,39.0267192 L100.112234,145.314724 C98.8271594,158.162996 95.967869,158.162996 86.4953883,158.162996 L37.0694521,158.162996 C27.5969715,158.162996 24.7376811,158.162996 23.4501354,145.292482 L12.3292998,39.0267192 L11.8671673,34.5981553 L7.41389043,34.5981553 L7.41389043,24.7129681 C7.41389043,21.24821 8.89172592,19.7703745 12.356484,19.7703745 L39.5407489,19.7703745 L44.4833426,19.7703745 L44.4833426,14.8277809 C44.4833426,11.1381347 47.5403367,7.41389043 54.3685298,7.41389043 L69.1963106,7.41389043" id="Fill-3" fill="#333333" sketch:type="MSShapeGroup"></path>
                <path d="M79.0758139,14.8159186 L44.4776586,14.8159186 C44.4776586,14.8159186 44.4776586,7.4020282 54.3628458,7.4020282 L69.1906267,7.4020282 C79.0758139,7.4020282 79.0758139,14.8159186 79.0758139,14.8159186" id="Fill-5" fill="#FFCE07" sketch:type="MSShapeGroup"></path>
                <path d="M116.145266,24.7011059 L116.145266,34.5862931 L7.40820644,34.5862931 L7.40820644,24.7011059 C7.40820644,20.9941607 8.64385485,19.7585122 12.3508001,19.7585122 L111.202672,19.7585122 C114.909618,19.7585122 116.145266,20.9941607 116.145266,24.7011059" id="Fill-7" fill="#FFCE07" sketch:type="MSShapeGroup"></path>
                <path d="M111.202672,39.5288867 L100.081837,145.794649 C98.8461884,158.151134 95.1392432,158.151134 86.4897043,158.151134 L37.0637682,158.151134 C28.4142293,158.151134 24.7072841,158.151134 23.4716357,145.794649 L12.3508001,39.5288867 L111.202672,39.5288867 Z" id="Fill-9" fill="#F15853" sketch:type="MSShapeGroup"></path>
                <path d="M100.081837,145.794649 C98.8461884,158.151134 95.1392432,158.151134 86.4897043,158.151134 L37.0637682,158.151134 C28.4142293,158.151134 24.7072841,158.151134 23.4716357,145.794649 L12.3508001,39.5288867 L111.202672,39.5288867 L100.081837,145.794649 L100.081837,145.794649 Z" id="Stroke-11" stroke="#333333" sketch:type="MSShapeGroup"></path>
                <path d="M81.5527947,138.392621 L86.4953883,138.392621 L91.4379819,54.3685298 L86.4953883,54.3685298 L81.5527947,138.392621 Z" id="Fill-13" fill="#FFCE07" sketch:type="MSShapeGroup"></path>
                <mask id="mask-2" sketch:name="Clip 16" fill="white">
                    <use xlink:href="#path-1"></use>
                </mask>
                <g id="Clip-16"></g>
                <path d="M59.3111234,54.3685298 L64.253717,54.3685298 L64.253717,138.392621 L59.3111234,138.392621 L59.3111234,54.3685298 Z" id="Fill-15" fill="#FFCE07" sketch:type="MSShapeGroup" mask="url(#mask-2)"></path>
                <path d="M37.0694521,138.392621 L42.0120458,138.392621 L37.0694521,54.3685298 L32.1268585,54.3685298 L37.0694521,138.392621 Z" id="Fill-17" fill="#FFCE07" sketch:type="MSShapeGroup" mask="url(#mask-2)"></path>
            </g>
        </g>
    </g>
</svg>