<?xml version="1.0" encoding="UTF-8" standalone="no"?>
<svg width="62px" height="210px" viewBox="0 0 62 210" version="1.1" xmlns="http://www.w3.org/2000/svg" xmlns:xlink="http://www.w3.org/1999/xlink" xmlns:sketch="http://www.bohemiancoding.com/sketch/ns">
    <!-- Generator: Sketch 3.5.1 (25234) - http://www.bohemiancoding.com/sketch -->
    <title>Page 1</title>
    <desc>Created with Sketch.</desc>
    <defs></defs>
    <g id="Page-1" stroke="none" stroke-width="1" fill="none" fill-rule="evenodd" sketch:type="MSPage">
        <g sketch:type="MSLayerGroup" transform="translate(1.019449, 1.217763)">
            <path d="M29.5395657,0 C19.1476619,0 10.6835556,8.49038732 10.6835556,18.923807 L10.6835556,155.197637 C3.92178535,160.78178 0,169.008529 0,177.926549 C0,194.280406 13.2546416,207.588932 29.5478395,207.588932 C45.8493112,207.588932 59.095679,194.280406 59.095679,177.926549 C59.095679,169.000225 55.1738937,160.78178 48.4141919,155.189334 L48.4141919,18.923807 C48.4141919,8.49038732 39.9459487,0 29.5395657,0 M29.5395657,7.57076835 C35.7945651,7.57076835 40.8602045,12.6546213 40.8602045,18.923807 L40.8602045,159.071247 C47.2475849,162.949008 51.5520339,169.901161 51.5520339,177.926549 C51.5520339,190.134855 41.7062015,200.020239 29.5478395,200.020239 C17.3977514,200.020239 7.54364513,190.134855 7.54364513,177.926549 C7.54364513,169.901161 11.8501626,162.957312 18.2272007,159.087854 L18.2272007,18.923807 C18.2272007,12.6546213 23.2928401,7.57076835 29.5395657,7.57076835" id="Fill-1" fill="#F15853" sketch:type="MSShapeGroup"></path>
            <path d="M29.5395657,0 C19.1476619,0 10.6835556,8.49038732 10.6835556,18.923807 L10.6835556,155.197637 C3.92178535,160.78178 0,169.008529 0,177.926549 C0,194.280406 13.2546416,207.588932 29.5478395,207.588932 C45.8493112,207.588932 59.095679,194.280406 59.095679,177.926549 C59.095679,169.000225 55.1738937,160.78178 48.4141919,155.189334 L48.4141919,18.923807 C48.4141919,8.49038732 39.9459487,0 29.5395657,0 L29.5395657,0 Z M29.5395657,7.57076835 C35.7945651,7.57076835 40.8602045,12.6546213 40.8602045,18.923807 L40.8602045,159.071247 C47.2475849,162.949008 51.5520339,169.901161 51.5520339,177.926549 C51.5520339,190.134855 41.7062015,200.020239 29.5478395,200.020239 C17.3977514,200.020239 7.54364513,190.134855 7.54364513,177.926549 C7.54364513,169.901161 11.8501626,162.957312 18.2272007,159.087854 L18.2272007,18.923807 C18.2272007,12.6546213 23.2928401,7.57076835 29.5395657,7.57076835 L29.5395657,7.57076835 Z" id="Stroke-3" stroke="#333333" stroke-width="2" stroke-linecap="round" stroke-linejoin="round" sketch:type="MSShapeGroup"></path>
            <path d="M33.4158451,162.284723 L33.4158451,77.7254479 C33.4158451,74.4144044 31.6969613,72.8574874 29.5561133,72.8574874 C27.4297445,72.8574874 25.7025869,74.4144044 25.7025869,77.7254479 L25.7025869,162.284723 C19.079403,164.00356 14.1751028,170.027791 14.1751028,177.210368 C14.1751028,185.752652 21.0671855,192.669515 29.5561133,192.669515 C38.0512465,192.669515 44.9412607,185.752652 44.9412607,177.210368 C44.9412607,170.029866 40.0410975,164.007712 33.4158451,162.284723" id="Fill-5" fill="#F15853" sketch:type="MSShapeGroup"></path>
        </g>
    </g>
</svg>