<?xml version="1.0" encoding="UTF-8" standalone="no"?>
<svg width="102px" height="102px" viewBox="0 0 102 102" version="1.1" xmlns="http://www.w3.org/2000/svg" xmlns:xlink="http://www.w3.org/1999/xlink" xmlns:sketch="http://www.bohemiancoding.com/sketch/ns">
    <!-- Generator: Sketch 3.4.4 (17249) - http://www.bohemiancoding.com/sketch -->
    <title>Wiesenprofil</title>
    <desc>Created with Sketch.</desc>
    <defs>
        <path id="path-1" d="M0,9.83350896 L98.9452415,9.83350896 L98.9452415,87.4520548 L0,87.4520548"></path>
    </defs>
    <g id="Styleguide" stroke="none" stroke-width="1" fill="none" fill-rule="evenodd" sketch:type="MSPage">
        <g sketch:type="MSArtboardGroup" transform="translate(-1669.000000, -1088.000000)" id="Wiesenprofil">
            <g sketch:type="MSLayerGroup" transform="translate(1670.000000, 1089.000000)">
                <g id="Group-5">
                    <rect id="Rectangle-16" stroke="#4A4A4A" stroke-width="2" fill="#FFFFFF" sketch:type="MSShapeGroup" x="0.99009901" y="0" width="99.009901" height="100"></rect>
                    <mask id="mask-2" sketch:name="Clip 4" fill="white">
                        <use xlink:href="#path-1"></use>
                    </mask>
                    <g id="Clip-4"></g>
                </g>
                <path d="M6.33400687,86.4342536 C5.36613457,86.4342536 4.71751869,85.7782648 4.71751869,84.8024306 L4.71751869,79.5076642 C4.71751869,78.53183 5.36613457,77.8778785 6.33400687,77.8778785 L21.4885836,77.8778785 L21.4885836,63.2851844 C20.4035159,63.5235406 19.2942008,63.6437373 18.1848858,63.6437373 C16.6593251,63.6437373 15.0953728,63.4155673 13.5334411,62.965339 C7.31804405,61.2377661 1.73105678,54.5373094 1.08446151,48.0303899 C0.472216609,41.240295 3.70115175,34.9065402 9.52050919,31.44732 C8.92240857,28.8131788 9.01131542,26.0140218 9.81349768,23.3880295 C11.9654476,16.0112118 18.7607597,10.8509027 26.3380481,10.8509027 C28.4819155,11.0627749 30.3489594,11.4661468 32.3150131,12.12621 C32.9312993,12.4256832 33.2505557,12.8636881 33.3232976,13.3831823 C33.3778541,13.7621075 33.3030915,14.161405 33.1010305,14.5688514 C33.0646595,14.6401545 33.0222267,14.7073832 32.9696908,14.7685002 C29.8215801,18.5373797 28.1565973,23.1720829 28.1565973,28.1673762 L28.1565973,28.7805831 C28.1565973,29.6076993 27.6999394,30.0681138 27.4554455,30.3146189 C22.7393413,34.2831472 20.0741564,40.160562 20.0741564,46.5024658 C20.0741564,53.6898209 23.7577288,60.4554689 29.9286725,64.6012364 C29.9852495,64.6399438 30.039806,64.6847629 30.0883007,64.7336565 C30.3651243,65.0127573 30.7833906,65.4365016 30.7833906,66.0619319 L30.7833906,78.2853249 L44.7256011,78.2853249 L44.7256011,63.8189392 C44.7235805,63.8291254 44.7175187,63.8311626 44.7074156,63.8311626 C44.6750859,63.8311626 44.6043645,63.7863435 44.5619317,63.7802318 C43.3980602,64.0043274 42.3534047,64.1041517 41.304708,64.1041517 C39.9286725,64.1041517 38.5890079,63.9350615 37.2069105,63.5866948 C30.0094969,61.8265262 24.7478278,55.8166913 24.1194181,48.6293361 C23.5071732,41.8433158 26.7441907,35.5034492 32.5756719,32.0462662 L32.5393009,31.754942 C32.3635078,30.7118792 32.1978177,29.7299333 32.1978177,28.5768599 C32.1978177,19.3013418 39.4558497,11.6943168 48.7203475,11.2603864 C49.0295009,11.2420513 49.3507779,11.2318651 49.6700344,11.2318651 C56.3986664,11.2318651 62.5190948,15.4856059 65.2570216,22.0699403 C66.5603152,25.0728205 66.8654274,28.3649877 66.162255,31.8466175 C71.9614063,35.220274 75.2428773,41.5988479 74.6265912,48.4296874 C73.9840372,55.5457394 69.0982017,61.412968 62.175591,63.3748226 C60.78137,63.7272638 59.32451,63.9004285 57.8130936,63.9004285 C56.6653869,63.9004285 55.5338452,63.8006041 54.4467569,63.6009554 L54.228531,63.5642852 L54.2224692,78.0795645 L68.1646797,78.0795645 L68.1646797,66.0619319 C68.1646797,65.2327784 68.619317,64.7723639 68.8638109,64.5258588 C75.1539705,60.2761925 78.6718529,53.7529751 78.6718529,46.5024658 C78.6718529,40.1442641 76.0551627,34.3972322 71.2986462,30.2962838 C70.9632249,30.1475659 70.589412,29.7971619 70.589412,28.9843063 L70.589412,28.3731366 C70.589412,23.4084018 68.884017,18.7288795 65.7904627,15.1942817 C65.4307941,14.8336916 65.255001,14.3325325 65.3358254,13.8272989 C65.4186704,13.3078047 65.768236,12.8575764 66.2956153,12.590699 C68.5142453,11.7248753 70.7146898,11.3072427 72.927258,11.3072427 C73.7314609,11.3072427 74.5558699,11.362248 75.3701758,11.4722585 C80.5631441,12.3441939 84.8347141,15.3429996 87.4311982,19.9226976 C89.6215397,23.6080506 90.3024854,27.560281 89.443726,31.6612294 C95.1741766,35.0817422 98.4758537,41.6416298 97.8636088,48.4296874 C97.225096,55.5049947 91.8401697,61.6553987 84.7700546,63.3850088 C83.4627197,63.7618967 82.1533643,63.9513593 80.8076379,63.9513593 C79.6700344,63.9513593 78.5283896,63.816902 77.2574257,63.5378012 L77.2574257,77.8778785 L96.0470802,77.8778785 C97.0149525,77.8778785 97.665589,78.53183 97.665589,79.5076642 L97.665589,84.8024306 C97.665589,85.7782648 97.0149525,86.4342536 96.0470802,86.4342536 L6.33400687,86.4342536 Z" id="Fill-1" fill="#0CAC6A" sketch:type="MSShapeGroup"></path>
            </g>
        </g>
    </g>
</svg>