<?xml version="1.0" encoding="UTF-8" standalone="no"?>
<svg width="61px" height="79px" viewBox="0 0 61 79" version="1.1" xmlns="http://www.w3.org/2000/svg" xmlns:xlink="http://www.w3.org/1999/xlink" xmlns:sketch="http://www.bohemiancoding.com/sketch/ns">
    <!-- Generator: Sketch 3.5.1 (25234) - http://www.bohemiancoding.com/sketch -->
    <title>Page 1</title>
    <desc>Created with Sketch.</desc>
    <defs></defs>
    <g id="Page-1" stroke="none" stroke-width="1" fill="none" fill-rule="evenodd" sketch:type="MSPage">
        <g id="Wireframe" sketch:type="MSArtboardGroup" transform="translate(-248.000000, -1700.000000)">
            <g id="Page-1" sketch:type="MSLayerGroup" transform="translate(249.563830, 1700.753425)">
                <path d="M28.8865199,3.20198193 C13.1543822,3.20198193 0.400087642,15.955476 0.400087642,31.6876137 L0.400087642,31.6884142 C0.416097552,43.6630261 7.9199422,54.3496408 19.1773102,58.4305667 L28.8865199,75.2465753 L38.5869241,58.4449757 C49.8530976,54.3640497 57.3609447,43.6702305 57.3721516,31.6884142 C57.3721516,15.955476 44.6186576,3.20198193 28.8865199,3.20198193 L28.8865199,3.20198193 Z M28.8865199,10.5585354 C40.556143,10.5585354 50.0163986,20.018791 50.0163986,31.6884142 C50.0163986,43.3580373 40.556143,52.8182929 28.8865199,52.8182929 C17.2168967,52.8182929 7.75664113,43.3580373 7.75664113,31.6884142 L7.75664113,31.6884142 C7.75664113,20.018791 17.2168967,10.5585354 28.8865199,10.5585354 L28.8865199,10.5585354 L28.8865199,10.5585354 Z M28.8865199,3.20198193 C13.1543822,3.20198193 0.400087642,15.955476 0.400087642,31.6876137 L0.400087642,31.6884142 C0.416097552,43.6630261 7.9199422,54.3496408 19.1773102,58.4305667 L28.8865199,75.2465753 L38.5869241,58.4449757 C49.8530976,54.3640497 57.3609447,43.6702305 57.3721516,31.6884142 C57.3721516,15.955476 44.6186576,3.20198193 28.8865199,3.20198193 L28.8865199,3.20198193 Z" id="Stroke-1" stroke="#0CAC6A" stroke-width="3" sketch:type="MSShapeGroup"></path>
                <path d="M28.7892597,8.76430484 C41.4611032,8.76430484 51.7338617,19.0370634 51.7346622,31.7097073 C51.7338617,44.3815508 41.4611032,54.6543094 28.7892597,54.6543094 C16.1174162,54.6543094 5.84385717,44.3815508 5.84385717,31.7097073 L5.84385717,31.7097073 C5.84385717,19.0370634 16.1166157,8.76430484 28.7892597,8.76430484 L28.7892597,8.76430484 Z" id="Fill-3" fill="#0CAC6A" sketch:type="MSShapeGroup"></path>
                <g id="Group-30" transform="translate(14.408919, 0.000000)" sketch:type="MSShapeGroup">
                    <path d="M43.6122747,7.58677598 C43.6122747,5.79046412 42.9470629,3.92691064 41.5493978,2.53004602 C38.7548681,-0.264483707 34.2304676,-0.264483707 31.502379,2.53004602 C30.1055144,3.92691064 29.4403027,5.79046412 29.4403027,7.58677598 L29.4403027,7.65321711 L32.4341558,41.7199034 C32.4341558,43.9821036 34.2304676,45.7792159 36.4926679,45.7792159 C38.7548681,45.7792159 40.5511799,43.9821036 40.5511799,41.7199034 L43.6122747,7.65321711 C43.6122747,7.65321711 43.6122747,7.65321711 43.6122747,7.58677598 M40.0860921,51.700481 C42.0817273,53.6969168 42.0817273,56.8900932 40.0860921,58.886529 C38.0896563,60.8829647 34.8956794,60.8829647 32.9000441,58.886529 C30.9036084,56.8900932 30.9036084,53.6969168 32.9000441,51.700481 C34.8956794,49.7048458 38.0896563,49.7048458 40.0860921,51.700481" id="Fill-5" fill="#F15853"></path>
                    <path d="M43.6122747,7.58677598 C43.6122747,5.79046412 42.9470629,3.92691064 41.5493978,2.53004602 C38.7548681,-0.264483707 34.2304676,-0.264483707 31.502379,2.53004602 C30.1055144,3.92691064 29.4403027,5.79046412 29.4403027,7.58677598 L29.4403027,7.65321711 L32.4341558,41.7199034 C32.4341558,43.9821036 34.2304676,45.7792159 36.4926679,45.7792159 C38.7548681,45.7792159 40.5511799,43.9821036 40.5511799,41.7199034 L43.6122747,7.65321711 C43.6122747,7.65321711 43.6122747,7.65321711 43.6122747,7.58677598 L43.6122747,7.58677598 Z M40.0860921,51.700481 C42.0817273,53.6969168 42.0817273,56.8900932 40.0860921,58.886529 C38.0896563,60.8829647 34.8956794,60.8829647 32.9000441,58.886529 C30.9036084,56.8900932 30.9036084,53.6969168 32.9000441,51.700481 C34.8956794,49.7048458 38.0896563,49.7048458 40.0860921,51.700481 L40.0860921,51.700481 Z" id="Stroke-7" stroke="#333333" stroke-width="0.8"></path>
                    <g id="Group-19" transform="translate(0.000000, 16.009910)">
                        <path d="M18.5215443,23.4587603 C19.4453161,22.9152238 20.0184708,21.1813506 19.5013507,20.2823942 C19.3420521,20.0054227 18.8465454,19.6684142 18.6160027,19.7340548 C18.2934031,19.8245108 17.9660004,20.22716 17.8443251,20.5657696 C17.7122433,20.9371995 17.8155073,21.3846765 17.8155073,21.7977321 C17.8147068,22.2396056 17.7882904,22.6846811 17.8227117,23.1249536 C17.8579335,23.5732311 18.1156931,23.6981084 18.5215443,23.4587603 M28.1050762,14.0961651 C29.6948602,17.130043 29.5843918,22.6934866 27.6359858,27.4452278 C26.4064248,30.4454848 24.7005689,32.106513 23.3213152,32.4331151 C20.1817719,33.1767754 18.9225925,32.5844088 16.3762164,31.4589121 C15.8574953,31.2299704 15.8574953,31.2299704 15.8582958,30.7048454 C15.8582958,12.6248544 15.7534309,15.882871 15.915131,12.5680192 C15.9295399,12.252624 15.9479513,12.2550255 16.2081123,12.0677095 C21.9892907,7.94435732 25.7724324,9.64060724 28.1050762,14.0961651" id="Fill-9" fill="#0CAC6A"></path>
                        <path d="M21.6394742,0.579638779 C21.9020367,0.642877922 22.2366438,1.02711575 22.2774691,1.30088521 C22.7465594,4.43402453 19.2411897,8.22276964 15.9623602,8.03705469 C16.357805,6.68261634 17.0254182,5.87731788 18.1309025,4.85748664 C18.2397699,4.75662421 18.3150164,4.59972709 18.3822581,4.43322403 C18.4639086,4.23310016 18.3350288,4.01056242 18.1228975,3.97934309 C17.9019608,3.94652278 17.6962334,3.9257099 17.596972,4.02016836 C16.8573142,4.72940736 16.1744915,5.25933537 15.5212872,6.30158049 C15.3892055,6.5113103 15.28354,6.74985796 15.1306454,7.05244525 C14.2573048,4.15625259 17.4304689,-0.415377106 21.6394742,0.579638779" id="Fill-11" fill="#CAA1C9"></path>
                        <path d="M19.5013507,20.2822341 C20.0184708,21.181991 19.4453161,22.9150637 18.5215443,23.4586002 C18.1156931,23.6987488 17.8579335,23.573071 17.8227117,23.1247935 C17.7882904,22.684521 17.8147068,22.2394455 17.8155073,21.797572 C17.8155073,21.3845164 17.7122433,20.9370394 17.8443251,20.5656095 C17.9660004,20.2269999 18.2934031,19.8243507 18.6160027,19.7338947 C18.8465454,19.6690545 19.3420521,20.0052626 19.5013507,20.2822341" id="Fill-13" fill="#F2F2F2"></path>
                        <path d="M11.7911384,21.5386918 C11.7903379,21.1264366 11.8952028,20.6781592 11.7623205,20.3075297 C11.6414457,19.9689202 11.314043,19.5654704 10.9898424,19.4758149 C10.7601002,19.4101743 10.2645935,19.7463824 10.1052949,20.0233538 C9.58737429,20.9231108 10.1613296,22.6561835 11.0851013,23.1997199 C11.491753,23.4398686 11.7495126,23.3141908 11.7839339,22.8659133 C11.8183552,22.4256408 11.7927393,21.9805653 11.7911384,21.5386918 M13.6546918,11.9055292 C13.9164539,12.0936456 13.9332643,12.0920446 13.9476732,12.4058388 C14.1085728,15.7214911 14.0053089,12.4634745 14.0061094,30.5434655 C14.0061094,31.0685905 14.0061094,31.0685905 13.4873883,31.2967317 C10.9402117,32.4222284 9.68103226,33.014595 6.54148898,32.2725357 C5.16383626,31.9451331 3.45637939,30.2841049 2.22761883,27.2838479 C0.277611833,22.5313062 0.167943952,16.9678626 1.75772798,13.9347852 C4.09117231,9.48002785 7.87431396,7.78297743 13.6546918,11.9055292" id="Fill-15" fill="#FFCE07"></path>
                        <path d="M11.7621604,20.3077699 C11.8950427,20.6783993 11.7901778,21.1258763 11.7909783,21.5389319 C11.7925792,21.9808055 11.8181951,22.4258809 11.7837738,22.8661535 C11.7493525,23.3144309 11.4915929,23.4401087 11.0857417,23.1999601 C10.1611695,22.6556231 9.58721419,20.9225504 10.1051348,20.0227935 C10.2644334,19.7466226 10.7599401,19.4104145 10.9904828,19.4760551 C11.3138829,19.5657106 11.6412856,19.9683598 11.7621604,20.3077699" id="Fill-17" fill="#F15853"></path>
                    </g>
                    <path d="M2.22745873,43.2937575 C3.45621929,46.2940146 5.16367616,47.9550427 6.54212938,48.2824454 C9.68087217,49.0245047 10.9408521,48.432138 13.4872282,47.3066414 C14.0059493,47.0785002 14.0059493,47.0785002 14.0059493,46.5533751 C14.0051488,28.4733842 14.1084127,31.7314008 13.9475131,28.4157485 C13.9331042,28.1019543 13.9162938,28.1035552 13.6545317,27.9154388 C7.87415386,23.7928871 4.09181271,25.4899375 1.75836838,29.9446949 C0.167783853,32.9777722 0.277451734,38.5412158 2.22745873,43.2937575 L2.22745873,43.2937575 Z" id="Stroke-20" stroke="#333333" stroke-width="0.969"></path>
                    <path d="M21.6394742,16.5895484 C21.9020367,16.6527876 22.2366438,17.0370254 22.2774691,17.3107949 C22.7465594,20.4439342 19.2411897,24.2326793 15.9623602,24.0469643 C16.357805,22.692526 17.0254182,21.8872275 18.1309025,20.8673963 C18.2397699,20.7665339 18.3150164,20.6096367 18.3822581,20.4431337 C18.4639086,20.2430098 18.3350288,20.0204721 18.1228975,19.9892527 C17.9019608,19.9564324 17.6962334,19.9356195 17.596972,20.030078 C16.8573142,20.739317 16.1744915,21.269245 15.5212872,22.3114901 C15.3892055,22.52122 15.28354,22.7597676 15.1306454,23.0623549 C14.2573048,20.1661622 17.4304689,15.5945325 21.6394742,16.5895484 L21.6394742,16.5895484 Z" id="Stroke-22" stroke="#333333" stroke-width="0.969" stroke-linecap="round" stroke-linejoin="round"></path>
                    <path d="M27.6360659,43.4550574 C26.4065048,46.4553144 24.6998485,48.1163426 23.3213952,48.4429447 C20.181852,49.186605 18.9226726,48.5942384 16.3762964,47.4687417 C15.8575754,47.2398 15.8575754,47.2398 15.8583759,46.714675 C15.8575754,28.634684 15.7535109,31.8927006 15.915211,28.5778488 C15.92962,28.2624536 15.9480313,28.2648551 16.2073919,28.0775391 C21.9893708,23.9541869 25.7725124,25.6504368 28.1051562,30.1059947 C29.6949403,33.1398726 29.5844719,38.7033162 27.6360659,43.4550574 L27.6360659,43.4550574 Z" id="Stroke-24" stroke="#333333" stroke-width="0.969"></path>
                    <path d="M17.8152671,37.8077218 C17.8160676,37.3946662 17.7128037,36.9471892 17.8440849,36.5757593 C17.9657603,36.2371497 18.2939634,35.8345005 18.6165631,35.7440445 C18.8471058,35.6784038 19.341812,36.0154124 19.5011106,36.2923839 C20.0190312,37.1913403 19.4450759,38.9252135 18.5213041,39.46875 C18.1154529,39.7080981 17.8576934,39.5832208 17.8224716,39.1349433 C17.7880503,38.6946708 17.8152671,38.2487948 17.8152671,37.8077218 L17.8152671,37.8077218 Z" id="Stroke-26" stroke="#333333" stroke-width="0.969"></path>
                    <path d="M11.7911384,37.5486014 C11.7903379,37.1363463 11.8952028,36.6880688 11.7623205,36.3174394 C11.6414457,35.9788298 11.314043,35.5753801 10.9898424,35.4857246 C10.7601002,35.420084 10.2645935,35.7562921 10.1052949,36.0332635 C9.58737429,36.9330204 10.1613296,38.6660931 11.0851013,39.2096296 C11.491753,39.4497782 11.7495126,39.3241004 11.7839339,38.875823 C11.8183552,38.4355504 11.7927393,37.9904749 11.7911384,37.5486014 L11.7911384,37.5486014 Z" id="Stroke-28" stroke="#333333" stroke-width="0.969" stroke-linecap="round" stroke-linejoin="round"></path>
                </g>
            </g>
        </g>
    </g>
</svg>