<?xml version="1.0" encoding="UTF-8" standalone="no"?>
<svg width="66px" height="66px" viewBox="0 0 66 66" version="1.1" xmlns="http://www.w3.org/2000/svg" xmlns:xlink="http://www.w3.org/1999/xlink" xmlns:sketch="http://www.bohemiancoding.com/sketch/ns">
    <!-- Generator: Sketch 3.5.1 (25234) - http://www.bohemiancoding.com/sketch -->
    <title>ernte</title>
    <desc>Created with Sketch.</desc>
    <defs>
        <path id="path-1" d="M5,18.1594934 L57.1822535,18.1594934 L57.1822535,45.588041 L5,45.588041 L5,18.1594934 Z"></path>
    </defs>
    <g id="Page-1" stroke="none" stroke-width="1" fill="none" fill-rule="evenodd" sketch:type="MSPage">
        <g id="Wireframe" sketch:type="MSArtboardGroup" transform="translate(-885.000000, -1706.000000)">
            <g id="ernte" sketch:type="MSLayerGroup" transform="translate(886.000000, 1707.000000)">
                <path d="M51.7254104,37.3978413 C50.1952763,37.3978413 48.9510675,38.6367168 48.9510675,40.1583697 C48.9510675,41.6800226 50.1961427,42.918898 51.7254104,42.918898 C53.2546781,42.918898 54.4997533,41.6800226 54.4997533,40.1583697 C54.4997533,38.6367168 53.2546781,37.3978413 51.7254104,37.3978413 M51.7254104,45.1569779 C48.9553997,45.1569779 46.7017876,42.9145874 46.7017876,40.1583697 C46.7017876,37.402152 48.9553997,35.1597615 51.7254104,35.1597615 C54.4954211,35.1597615 56.7490332,37.402152 56.7490332,40.1583697 C56.7490332,42.9145874 54.4954211,45.1569779 51.7254104,45.1569779 M0.610833893,0.443335573 L63.6108339,0.443335573 L63.6108339,63.4433356 L0.610833893,63.4433356 L0.610833893,0.443335573 Z" id="Fill-1" stroke="#404040" stroke-width="2" fill="#FFFFFF" sketch:type="MSShapeGroup"></path>
                <path d="M51.7254104,38.8651803 C52.4428233,38.8651803 53.0250714,39.4445291 53.0250714,40.1583697 C53.0250714,40.8722103 52.4428233,41.4515591 51.7254104,41.4515591 C51.0079976,41.4515591 50.4257495,40.8722103 50.4257495,40.1583697 C50.4257495,39.4445291 51.0079976,38.8651803 51.7254104,38.8651803" id="Fill-3" fill="#000000" sketch:type="MSShapeGroup"></path>
                <path d="M26.5425734,33.7607892 C27.9540052,33.9789071 30.5437962,34.298756 33.6179276,34.298756 C41.7096166,34.298756 51.6303619,32.1399918 53.4065652,21.9600046 L24.2153138,26.1051078 L26.5425734,33.7607892 Z M33.6196605,37.3981 C28.8308431,37.3972378 25.1753301,36.6765003 25.0219701,36.6463259 C24.4579172,36.5325252 24.0039023,36.1221531 23.8384122,35.575565 L20.709695,25.2731559 C20.5788625,24.8412307 20.6429791,24.3739582 20.8873154,23.9928984 C21.1333845,23.6101144 21.5319472,23.354925 21.9807634,23.2911276 L54.9722234,18.6063334 C55.0450044,18.5959879 55.1195183,18.5908151 55.1931658,18.5908151 C55.5873962,18.5908151 55.9634315,18.7382387 56.2510898,19.0054979 C56.597666,19.3262089 56.7778857,19.777963 56.7449609,20.2460976 C55.9790274,31.3063157 47.7651702,37.3981 33.6196605,37.3981 L33.6196605,37.3981 Z" id="Fill-5" fill="#0CAC6A" sketch:type="MSShapeGroup"></path>
                <mask id="mask-2" sketch:name="Clip 8" fill="white">
                    <use xlink:href="#path-1"></use>
                </mask>
                <g id="Clip-8"></g>
                <path d="M24.7767674,26.4612522 L52.8659062,22.4721939 C50.8600962,31.8538521 41.3803692,33.8677791 33.6179276,33.8677791 C30.7604064,33.8677791 28.3231089,33.5884501 26.8778859,33.375505 L24.7767674,26.4612522 Z M55.1940322,18.1589761 C55.0995902,18.1589761 55.0042817,18.1658731 54.9098397,18.1796671 L21.9192462,22.8653235 C21.3465289,22.9455012 20.8370618,23.2713849 20.5234103,23.7584863 C20.2097588,24.248174 20.1274469,24.8447654 20.29467,25.3982505 L23.4233871,35.7006595 C23.6356651,36.3989818 24.2153138,36.9231546 24.935326,37.0688539 C25.0930182,37.0998905 28.8065827,37.8283872 33.6179276,37.8292493 C48.0259689,37.8292493 56.3923196,31.5952142 57.1773148,20.2754961 C57.218904,19.6771805 56.9892972,19.0995559 56.546546,18.6891837 C56.1765759,18.3477817 55.6965678,18.1589761 55.1940322,18.1589761 L55.1940322,18.1589761 Z M53.9255631,21.4514364 L23.6555932,25.749998 L26.2063944,34.1445216 C27.4298086,34.3428106 30.2448742,34.7299053 33.6179276,34.7299053 C42.135039,34.7299053 52.3867646,32.3814734 53.9255631,21.4514364 L53.9255631,21.4514364 Z M55.1931658,19.0211024 C55.4764918,19.0211024 55.7468213,19.1271439 55.9565,19.3211223 C56.2051684,19.55131 56.3368674,19.8797801 56.3134735,20.2168715 C55.5640024,31.0184517 47.505238,36.967123 33.6196605,36.967123 L33.6179276,36.967123 C28.8663671,36.9662609 25.2593748,36.2541446 25.1077477,36.2239702 C24.701387,36.1420682 24.373006,35.8454968 24.2534372,35.451505 L21.1247201,25.149096 C21.0302781,24.8378684 21.0770659,24.4990528 21.2529533,24.2240345 C21.4297072,23.9498783 21.7173655,23.7645212 22.0422807,23.7188285 L55.0328742,19.0331721 C55.0865936,19.025413 55.1403129,19.0211024 55.1931658,19.0211024 L55.1931658,19.0211024 Z" id="Fill-7" fill="#333333" sketch:type="MSShapeGroup" mask="url(#mask-2)"></path>
                <path d="M25.6375761,45.1569779 C25.5388019,45.1569779 25.4417606,45.1474945 25.3438528,45.1293898 C24.7018203,45.0069679 24.201884,44.4931406 24.099644,43.8525808 L23.0009973,37.0219543 L13.8453191,27.2988941 L6.99090728,27.2988941 C6.13226462,27.2988941 5.43304703,26.6031582 5.43304703,25.748791 C5.43304703,24.8944239 6.13226462,24.198688 6.99090728,24.198688 L14.5211428,24.198688 C14.9508974,24.198688 15.3659224,24.3771481 15.6579129,24.6892378 L25.6003192,35.2468363 C25.8134636,35.4744376 25.9520941,35.7563529 26.0014812,36.0624077 L26.4979517,39.1470956 L28.244696,36.2339709 C28.5236899,35.7675605 29.0357563,35.4778861 29.5816139,35.4778861 L49.1259152,35.4778861 C49.9845579,35.4778861 50.6837755,36.173622 50.6837755,37.0279892 C50.6837755,37.8823563 49.9845579,38.5780922 49.1259152,38.5780922 L30.4662498,38.5780922 L26.974494,44.4008931 C26.6955001,44.8673034 26.1825673,45.1569779 25.6375761,45.1569779" id="Fill-10" fill="#CAA1C9" sketch:type="MSShapeGroup" mask="url(#mask-2)"></path>
                <path d="M14.5213161,23.7676248 L6.99108057,23.7676248 C5.89330029,23.7676248 5,24.656477 5,25.748791 C5,26.841105 5.89330029,27.7299572 6.99108057,27.7299572 L13.6583412,27.7299572 L22.5939435,37.2202433 L23.6717956,43.9206888 C23.8026282,44.7397088 24.4420613,45.3957869 25.2617142,45.5526938 C25.3934132,45.5768334 25.5173142,45.588041 25.6377494,45.588041 C26.3352341,45.588041 26.9902632,45.2173267 27.3472368,44.6215975 L30.7124922,39.0091554 L49.1260885,39.0091554 C50.2238688,39.0091554 51.1171691,38.1203032 51.1171691,37.0279892 C51.1171691,35.9356752 50.2238688,35.046823 49.1260885,35.046823 L29.5817872,35.046823 C28.8843025,35.046823 28.2292734,35.4175373 27.8722998,36.0132665 L26.7363961,37.907358 L26.4288097,35.9942998 C26.366426,35.6020323 26.1888057,35.2416635 25.9167433,34.9519891 L15.974337,24.3935285 C15.6000347,23.9960883 15.0706395,23.7676248 14.5213161,23.7676248 M14.5213161,24.6297511 C14.8323683,24.6297511 15.1295574,24.7573458 15.3418354,24.9832229 L25.2842416,35.5416835 C25.4376016,35.7046253 25.5381087,35.9098114 25.5736328,36.1305157 L26.2581209,40.3876953 L28.6165723,36.4546752 C28.8193194,36.1158596 29.1858238,35.9089492 29.5817872,35.9089492 L49.1260885,35.9089492 C49.7473265,35.9089492 50.2507285,36.4098446 50.2507285,37.0279892 C50.2507285,37.6461337 49.7473265,38.1470291 49.1260885,38.1470291 L30.2203539,38.1470291 L26.6029643,44.1801888 C26.3976179,44.5233151 26.0285141,44.7259147 25.6377494,44.7259147 C25.5667013,44.7259147 25.4965196,44.7190177 25.4254715,44.7060858 C24.9610593,44.6172868 24.6014864,44.2491589 24.5269725,43.7844728 L23.4075312,36.8236652 L14.03351,26.8678309 L6.99108057,26.8678309 C6.36984264,26.8678309 5.86644063,26.3669356 5.86644063,25.748791 C5.86644063,25.1306465 6.36984264,24.6297511 6.99108057,24.6297511 L14.5213161,24.6297511" id="Fill-12" fill="#333333" sketch:type="MSShapeGroup" mask="url(#mask-2)"></path>
                <path d="M26.112039,34.1441767 C27.3354532,34.3424658 30.1505188,34.7295605 33.5235722,34.7295605 C42.0406836,34.7295605 52.2924092,32.3811285 53.8312077,21.4510915 L23.5612378,25.7496531 L26.112039,34.1441767 Z" id="Fill-15" fill="#FFFFFF" sketch:type="MSShapeGroup" mask="url(#mask-2)"></path>
            </g>
        </g>
    </g>
</svg>