<?xml version="1.0" encoding="UTF-8" standalone="no"?>
<svg width="66px" height="67px" viewBox="0 0 66 67" version="1.1" xmlns="http://www.w3.org/2000/svg" xmlns:xlink="http://www.w3.org/1999/xlink" xmlns:sketch="http://www.bohemiancoding.com/sketch/ns">
    <!-- Generator: Sketch 3.5.1 (25234) - http://www.bohemiancoding.com/sketch -->
    <title>info</title>
    <desc>Created with Sketch.</desc>
    <defs></defs>
    <g id="Page-1" stroke="none" stroke-width="1" fill="none" fill-rule="evenodd" sketch:type="MSPage">
        <g id="Wireframe" sketch:type="MSArtboardGroup" transform="translate(-566.000000, -1512.000000)">
            <g id="info" sketch:type="MSLayerGroup" transform="translate(569.000000, 1515.000000)">
                <path d="M30.3672876,0 C13.6004195,0 0.00824031283,13.7896962 0.00824031283,30.8002148 C0.00824031283,47.8107335 13.6004195,61.6004296 30.3672876,61.6004296 C47.1341557,61.6004296 60.7263349,47.8107335 60.7263349,30.8002148 C60.7263349,13.7896962 47.1341557,0 30.3672876,0 L30.3672876,0 Z" id="Stroke-1" stroke="#333333" stroke-width="4.5" sketch:type="MSShapeGroup"></path>
                <path d="M29.3281408,16.8543176 C29.5948667,14.9601043 31.3036474,13.4376937 33.1707288,13.4376937 C35.0486527,13.4376937 36.3237327,14.9601043 36.0613438,16.8543176 C35.7902808,18.7485308 34.0836687,20.2709414 32.2144188,20.2709414 C30.3408319,20.2709414 29.0614149,18.7485308 29.3281408,16.8543176" id="Fill-3" fill="#FFCE07" sketch:type="MSShapeGroup"></path>
                <path d="M36.0038784,45.3957766 C34.7808425,47.457191 32.3217597,48.1611959 30.3419161,48.1611959 C27.1390366,48.1611959 25.5343441,46.5375846 25.9572023,43.5543638 L28.2514788,26.7462465 C28.3100284,26.3172436 27.9890899,25.9410409 27.5662318,25.9410409 L25.0529364,25.9410409 C24.7341664,25.9410409 24.5736971,25.7232394 24.6214042,25.3976371 C24.6214042,25.0676348 24.8924671,24.8520333 25.2112371,24.8520333 L33.8700711,24.8520333 C34.1888411,24.8520333 34.4035229,25.0676348 34.3449733,25.3976371 L31.7340953,44.3683695 C31.5172449,46.0447811 31.9466086,46.5375846 33.0113438,46.5375846 C33.9741593,46.5375846 34.8307181,45.7741793 35.3142943,45.017374 C35.4660896,44.7995725 35.6894454,44.6917717 35.9540028,44.7995725 C36.1144721,44.9073732 36.1686847,45.1801751 36.0038784,45.3957766" id="Fill-5" fill="#FFCE07" sketch:type="MSShapeGroup"></path>
                <path d="M30.3590473,0 C13.5921792,0 0,13.7896962 0,30.8002148 C0,47.8107335 13.5921792,61.6004296 30.3590473,61.6004296 C47.1259154,61.6004296 60.7180946,47.8107335 60.7180946,30.8002148 C60.7180946,13.7896962 47.1259154,0 30.3590473,0 M30.3590473,4.40003069 C44.7080341,4.40003069 56.3810878,16.2427133 56.3810878,30.8002148 C56.3810878,45.3577164 44.7080341,57.200399 30.3590473,57.200399 C16.0100604,57.200399 4.33700675,45.3577164 4.33700675,30.8002148 C4.33700675,16.2427133 16.0100604,4.40003069 30.3590473,4.40003069" id="Fill-7" fill="#F15853" sketch:type="MSShapeGroup"></path>
            </g>
        </g>
    </g>
</svg>