<?xml version="1.0" encoding="UTF-8" standalone="no"?>
<svg width="66px" height="66px" viewBox="0 0 66 66" version="1.1" xmlns="http://www.w3.org/2000/svg" xmlns:xlink="http://www.w3.org/1999/xlink" xmlns:sketch="http://www.bohemiancoding.com/sketch/ns">
    <!-- Generator: Sketch 3.5.1 (25234) - http://www.bohemiancoding.com/sketch -->
    <title>karte</title>
    <desc>Created with Sketch.</desc>
    <defs></defs>
    <g id="Page-1" stroke="none" stroke-width="1" fill="none" fill-rule="evenodd" sketch:type="MSPage">
        <g id="Wireframe" sketch:type="MSArtboardGroup" transform="translate(-886.000000, -1511.000000)">
            <g id="karte" sketch:type="MSLayerGroup" transform="translate(887.000000, 1512.000000)">
                <rect id="Fill-1" stroke="#404040" stroke-width="2" fill="#FFFFFF" sketch:type="MSShapeGroup" x="0.0397498594" y="0.83789228" width="63" height="63"></rect>
                <path d="M29.6954261,14.8825706 C33.5925629,14.8825706 36.8901402,18.220284 36.8901402,22.1648544 C36.8901402,24.7439965 34.0422325,31.267709 31.4941046,36.4259933 C30.8945451,37.7914215 30.2949856,38.8534212 29.6954261,39.9154209 C27.1472981,34.9088509 22.5007119,25.5025677 22.5007119,22.1648544 C22.5007119,18.220284 25.7982892,14.8825706 29.6954261,14.8825706 L29.6954261,14.8825706 Z M49.9305597,37.0328503 C49.7806698,36.7294218 49.48089,36.4259933 49.0312204,36.4259933 L33.7424528,36.4259933 C36.1406908,31.5711375 38.8387086,25.1991392 38.8387086,22.1648544 C38.8387086,17.0065701 34.7916819,12.7585712 29.6954261,12.7585712 C24.5991702,12.7585712 20.5521435,17.0065701 20.5521435,22.1648544 C20.5521435,25.1991392 23.4000512,31.5711375 25.6483993,36.4259933 L13.3574293,36.4259933 C12.9077597,36.4259933 12.6079799,36.7294218 12.45809,37.0328503 L7.06205441,50.0802753 C6.91216453,50.3837038 7.06205441,50.6871322 7.21194429,50.9905607 C7.36183417,51.2939892 7.66161392,51.4457035 8.11128356,51.4457035 L54.5771459,51.4457035 C54.8769256,51.4457035 55.1767054,51.2939892 55.4764852,50.9905607 C55.626375,50.6871322 55.626375,50.3837038 55.626375,50.0802753 L49.9305597,37.0328503 Z" id="Fill-1" fill="#333333" sketch:type="MSShapeGroup"></path>
                <path d="M21.0018131,43.2531343 L10.9591913,45.8322764 L13.8070989,38.8534212 L21.0018131,43.2531343 Z" id="Fill-4" fill="#FFCE07" sketch:type="MSShapeGroup"></path>
                <path d="M31.1943248,49.4734183 L9.46029247,49.4734183 L10.059852,48.2597043 L23.549941,44.7702767 L31.1943248,49.4734183 Z" id="Fill-6" fill="#0CAC6A" sketch:type="MSShapeGroup"></path>
                <path d="M50.0804495,42.4945631 L52.9283572,49.4734183 L35.0914617,49.4734183 L31.3442147,47.1977046 L50.0804495,42.4945631 Z" id="Fill-8" fill="#CAA1C9" sketch:type="MSShapeGroup"></path>
                <path d="M49.1811103,40.8257064 L28.7960868,45.8322764 L16.8048965,38.5499927 L26.6976285,38.5499927 C27.8967475,40.8257064 28.7960868,42.4945631 28.7960868,42.6462773 C28.9459767,42.9497058 29.2457564,43.10142 29.6954261,43.10142 C29.9952058,43.10142 30.4448755,42.9497058 30.5947653,42.6462773 C30.7446552,42.4945631 31.6439945,40.8257064 32.6932236,38.5499927 L48.281771,38.5499927 L49.1811103,40.8257064 Z" id="Fill-10" fill="#0CAC6A" sketch:type="MSShapeGroup"></path>
                <path d="M29.6954261,24.7439965 C28.3464172,24.7439965 27.297188,23.6819968 27.297188,22.3165686 C27.297188,21.1028546 28.3464172,20.0408549 29.6954261,20.0408549 C31.044435,20.0408549 32.0936641,21.1028546 32.0936641,22.4682828 C32.0936641,23.6819968 31.044435,24.7439965 29.6954261,24.7439965 M34.0422325,22.4682828 C34.0422325,20.0408549 32.0936641,18.0685698 29.6954261,18.0685698 C27.297188,18.0685698 25.3486196,20.0408549 25.3486196,22.4682828 C25.3486196,24.8957107 27.297188,26.8679959 29.6954261,26.8679959 C32.0936641,26.8679959 34.0422325,24.8957107 34.0422325,22.4682828" id="Fill-12" fill="#F15853" sketch:type="MSShapeGroup"></path>
            </g>
        </g>
    </g>
</svg>