<?xml version="1.0" encoding="UTF-8" standalone="no"?>
<svg width="65px" height="65px" viewBox="0 0 65 65" version="1.1" xmlns="http://www.w3.org/2000/svg" xmlns:xlink="http://www.w3.org/1999/xlink" xmlns:sketch="http://www.bohemiancoding.com/sketch/ns">
    <!-- Generator: Sketch 3.5.1 (25234) - http://www.bohemiancoding.com/sketch -->
    <title>profil</title>
    <desc>Created with Sketch.</desc>
    <defs></defs>
    <g id="Page-1" stroke="none" stroke-width="1" fill="none" fill-rule="evenodd" sketch:type="MSPage">
        <g id="Wireframe" sketch:type="MSArtboardGroup" transform="translate(-245.000000, -1512.000000)">
            <g id="profil" sketch:type="MSLayerGroup" transform="translate(246.000000, 1513.000000)">
                <rect id="Rectangle-16" stroke="#4A4A4A" stroke-width="2" fill="#FFFFFF" sketch:type="MSShapeGroup" x="0" y="0" width="63" height="63"></rect>
                <path d="M23.5762771,21.6279238 C22.9412371,21.4877233 22.3030688,21.3232422 21.6641185,21.1501455 C21.590604,21.8096363 21.5515006,22.4847919 21.5515006,23.170913 C21.5515006,30.7331265 26.1531943,36.8627882 31.830233,36.8627882 C37.5072716,36.8627882 42.1089654,30.7331265 42.1089654,23.170913 C42.1089654,22.3030795 42.0456178,21.4532606 41.9290895,20.6285055 C41.0437874,20.9230049 40.1530109,21.2018395 39.2551957,21.4501276 C34.167055,22.8568325 28.7074316,22.7612768 23.5762771,21.6279238" id="Fill-1" fill="#FFCE07" sketch:type="MSShapeGroup"></path>
                <path d="M23.5762771,21.6279238 C22.9412371,21.4877233 22.3030688,21.3232422 21.6641185,21.1501455 C21.590604,21.8096363 21.5515006,22.4847919 21.5515006,23.170913 C21.5515006,30.7331265 26.1531943,36.8627882 31.830233,36.8627882 C37.5072716,36.8627882 42.1089654,30.7331265 42.1089654,23.170913 C42.1089654,22.3030795 42.0456178,21.4532606 41.9290895,20.6285055 C41.0437874,20.9230049 40.1530109,21.2018395 39.2551957,21.4501276 C34.167055,22.8568325 28.7074316,22.7612768 23.5762771,21.6279238 L23.5762771,21.6279238 Z" id="Stroke-3" stroke="#000000" sketch:type="MSShapeGroup"></path>
                <path d="M16.0426068,17.1225521 C18.4975212,17.7671612 21.068964,18.3694753 23.5762771,18.8778002 C28.7074316,19.9171639 34.167055,20.0048872 39.2544137,18.7148856 C40.585495,18.3765245 41.9157943,18.0311142 43.2249778,17.6167785 C44.4645571,17.2220239 45.7862537,16.8257029 46.957793,16.2836985 C48.1215116,15.7448272 49.4173999,15.3618212 50.4450385,14.5597802 C50.9940509,14.1313461 51.4515612,13.480471 51.2552619,12.7371731 C50.7508274,10.8425077 47.1204633,11.1785191 45.552415,11.1785191 C44.361324,11.1785191 42.9090219,11.1526721 41.934564,10.4289553 C40.5127626,9.37549314 40.6910743,6.79000719 39.8910178,5.31437692 C39.2520674,4.13481259 38.3996123,2.92078557 36.8456412,2.84559422 C35.1508978,2.76413692 33.6978137,4.06275422 32.0077626,3.98364665 C30.3779309,3.9084553 29.2540978,2.5753753 27.5820343,2.54561205 C25.9967806,2.51663205 24.7141874,3.34530341 24.0541212,4.65253638 C22.6776799,7.38527205 22.7574509,9.04183151 21.5053585,10.0451661 C27.1769226,13.3120737 35.1039737,11.6938931 35.1039737,11.6938931 C27.4037226,14.6193066 21.6633364,11.8145126 19.9365281,10.779065 C19.6119695,10.8707045 19.2569102,10.9552948 18.8377212,11.0265699 C16.7738412,11.3774629 13.0699626,11.1025445 11.576993,12.7199418 C11.0928923,13.245498 11.032673,13.7467737 11.2344468,14.2057542 C12.0126054,15.9782337 14.3392606,16.6768866 16.0426068,17.1225521" id="Fill-5" fill="#0CAC6A" sketch:type="MSShapeGroup"></path>
                <path d="M16.0426068,17.1225521 C18.4975212,17.7671612 21.068964,18.3694753 23.5762771,18.8778002 C28.7074316,19.9171639 34.167055,20.0048872 39.2544137,18.7148856 C40.585495,18.3765245 41.9157943,18.0311142 43.2249778,17.6167785 C44.4645571,17.2220239 45.7862537,16.8257029 46.957793,16.2836985 C48.1215116,15.7448272 49.4173999,15.3618212 50.4450385,14.5597802 C50.9940509,14.1313461 51.4515612,13.480471 51.2552619,12.7371731 C50.7508274,10.8425077 47.1204633,11.1785191 45.552415,11.1785191 C44.361324,11.1785191 42.9090219,11.1526721 41.934564,10.4289553 C40.5127626,9.37549314 40.6910743,6.79000719 39.8910178,5.31437692 C39.2520674,4.13481259 38.3996123,2.92078557 36.8456412,2.84559422 C35.1508978,2.76413692 33.6978137,4.06275422 32.0077626,3.98364665 C30.3779309,3.9084553 29.2540978,2.5753753 27.5820343,2.54561205 C25.9967806,2.51663205 24.7141874,3.34530341 24.0541212,4.65253638 C22.6776799,7.38527205 22.7574509,9.04183151 21.5053585,10.0451661 C27.1769226,13.3120737 35.1039737,11.6938931 35.1039737,11.6938931 C27.4037226,14.6193066 21.6633364,11.8145126 19.9365281,10.779065 C19.6119695,10.8707045 19.2569102,10.9552948 18.8377212,11.0265699 C16.7738412,11.3774629 13.0699626,11.1025445 11.576993,12.7199418 C11.0928923,13.245498 11.032673,13.7467737 11.2344468,14.2057542 C12.0126054,15.9782337 14.3392606,16.6768866 16.0426068,17.1225521 L16.0426068,17.1225521 Z" id="Stroke-7" stroke="#000000" sketch:type="MSShapeGroup"></path>
                <path d="M31.841964,43.5713449 L23.7053185,38.9627416 C22.9506219,39.3042357 21.9026495,39.6950741 20.4159364,40.2503935 L20.4159364,50.5257616 L22.1810661,50.5257616 L22.1810661,52.1721389 L40.5925337,52.1721389 L40.5925337,50.5257616 L42.3568812,50.5257616 L42.3568812,39.9441454 L42.3865999,39.9441454 C41.1313792,39.4741995 40.2476412,39.1327054 39.6055626,38.8201914 L31.841964,43.5713449 Z" id="Fill-9" fill="#CAA1C9" sketch:type="MSShapeGroup"></path>
                <path d="M31.841964,43.5713449 L23.7053185,38.9627416 C22.9506219,39.3042357 21.9026495,39.6950741 20.4159364,40.2503935 L20.4159364,50.5257616 L22.1810661,50.5257616 L22.1810661,52.1721389 L40.5925337,52.1721389 L40.5925337,50.5257616 L42.3568812,50.5257616 L42.3568812,39.9441454 L42.3865999,39.9441454 C41.1313792,39.4741995 40.2476412,39.1327054 39.6055626,38.8201914 L31.841964,43.5713449 L31.841964,43.5713449 Z" id="Stroke-11" stroke="#000000" sketch:type="MSShapeGroup"></path>
                <path d="M9.66170607,60.4792168 L16.4868219,60.4792168 L16.4868219,50.5249784 L18.2519516,50.5249784 L18.2519516,41.1064784 C14.7342054,42.602473 11.7036881,44.3859178 11.7036881,44.3859178 C8.47921779,47.1022054 9.66170607,60.4792168 9.66170607,60.4792168" id="Fill-13" fill="#CAA1C9" sketch:type="MSShapeGroup"></path>
                <path d="M9.66170607,60.4792168 L16.4868219,60.4792168 L16.4868219,50.5249784 L18.2519516,50.5249784 L18.2519516,41.1064784 C14.7342054,42.602473 11.7036881,44.3859178 11.7036881,44.3859178 C8.47921779,47.1022054 9.66170607,60.4792168 9.66170607,60.4792168 L9.66170607,60.4792168 Z" id="Stroke-15" stroke="#000000" sketch:type="MSShapeGroup"></path>
                <path d="M51.9411364,44.3859178 C51.9411364,44.3859178 48.398364,42.3071903 44.5216481,40.7532357 L44.5216481,50.5257616 L46.2875599,50.5257616 L46.2875599,60.48 L53.988593,60.48 C53.9878109,60.4792168 55.1726454,47.1022054 51.9411364,44.3859178" id="Fill-17" fill="#CAA1C9" sketch:type="MSShapeGroup"></path>
                <path d="M51.9411364,44.3859178 C51.9411364,44.3859178 48.398364,42.3071903 44.5216481,40.7532357 L44.5216481,50.5257616 L46.2875599,50.5257616 L46.2875599,60.48 L53.988593,60.48 C53.9878109,60.4792168 55.1726454,47.1022054 51.9411364,44.3859178 L51.9411364,44.3859178 Z" id="Stroke-19" stroke="#000000" sketch:type="MSShapeGroup"></path>
                <path d="M19.333553,52.1713557 C19.7230233,52.1713557 20.0381971,52.4870027 20.0381971,52.8770578 C20.0381971,53.267113 19.7230233,53.58276 19.333553,53.58276 C18.9440826,53.58276 18.6289088,53.267113 18.6289088,52.8770578 C18.6289088,52.4870027 18.9440826,52.1713557 19.333553,52.1713557" id="Fill-21" fill="#000000" sketch:type="MSShapeGroup"></path>
                <path d="M43.4384826,52.1713557 C43.827953,52.1713557 44.1431268,52.4870027 44.1431268,52.8770578 C44.1431268,53.267113 43.827953,53.58276 43.4384826,53.58276 C43.0490123,53.58276 42.7338385,53.267113 42.7338385,52.8770578 C42.7338385,52.4870027 43.0490123,52.1713557 43.4384826,52.1713557" id="Fill-23" fill="#000000" sketch:type="MSShapeGroup"></path>
            </g>
        </g>
    </g>
</svg>